<svg width="225" height="114" viewBox="0 0 225 114" fill="none" xmlns="http://www.w3.org/2000/svg">
<path d="M17.114 113.748C17.114 113.748 -8.614 86.7607 12.7634 57.5437C31.7305 31.6204 53.8446 33.3917 70.0732 43.9118C76.9837 48.3925 96.9067 44.4644 113.864 18.0858C136.985 -17.8862 217.144 3.93133 202.528 59.2753C195.456 86.0588 224.054 87.0317 209.482 113.803L17.114 113.748Z" fill="#EBF3FA"/>
<path d="M66.5235 61.5781C66.5235 61.5781 53.7949 43.8761 48.8214 46.17C43.8479 48.4639 66.5235 61.5781 66.5235 61.5781Z" fill="#A8D29F"/>
<path d="M65.7136 56.8191C65.7136 56.8191 63.7692 43.5118 60.7044 44.0335C57.6395 44.5553 65.7136 56.8191 65.7136 56.8191Z" fill="#A8D29F"/>
<path d="M54.9528 98.2991C54.9528 98.2991 56.1762 92.3757 51.4253 91.6333C51.4253 91.6333 48.2027 91.5237 46.3056 92.7108C46.3056 92.7108 51.6944 95.7496 51.0532 96.6949C50.412 97.6402 45.299 92.8812 45.299 92.8812C45.299 92.8812 39.5223 95.3528 38.2324 97.1428C38.2324 97.1428 45.0589 98.3308 44.2001 99.0903C43.3413 99.8498 36.1784 98.9377 36.1784 98.9377C36.1784 98.9377 31.5637 102.569 33.5737 105.46C35.5837 108.351 37.8777 108.331 38.6037 107.828C39.3296 107.326 42.8845 103.175 43.338 103.739C43.7915 104.303 42.2258 107.809 40.3753 108.943C40.3753 108.943 46.1893 110.854 47.9335 108.432C49.6778 106.01 48.8746 104.126 49.9842 102.648C51.0939 101.171 52.3663 100.478 52.1388 101.491C51.9112 102.505 49.5922 104.636 49.5822 106.572C49.5723 108.509 49.3754 109.92 51.6404 108.207C53.9054 106.494 56.9129 102.533 55.932 100.417L54.9528 98.2991Z" fill="#82B378"/>
<path d="M36.1301 104.178C36.1301 104.178 49.6843 96.0954 54.9568 98.296C54.9568 98.296 56.7658 99.9066 59.878 100.573L60.6969 101.259C60.6969 101.259 56.8821 100.097 55.9377 100.416C55.9336 100.419 54.5349 94.8912 36.1301 104.178Z" fill="#82B378"/>
<path d="M59.874 100.576C59.874 100.576 64.0759 101.101 66.4779 104.827L65.9655 105.169C65.9655 105.169 62.7461 101.718 60.1414 101.103C57.5368 100.487 59.874 100.576 59.874 100.576Z" fill="#82B378"/>
<path d="M59.1015 81.0199C59.1015 81.0199 68.9447 75.6353 64.3508 68.3277C64.3508 68.3277 60.6763 63.8405 56.7394 62.6866C56.7394 62.6866 58.8391 73.5841 56.7394 73.8405C54.6397 74.0969 55.2958 61.5328 55.2958 61.5328C55.2958 61.5328 44.9285 56.6643 40.8604 57.0456C40.8604 57.0456 47.2907 67.6866 45.191 67.4318C43.0913 67.1771 35.8736 56.4046 35.8736 56.4046C35.8736 56.4046 25.2422 54.4815 23.5379 60.6354C21.8335 66.7892 24.5852 69.8661 26.1633 70.2507C27.7414 70.6353 37.8429 70.5071 37.5804 71.7924C37.318 73.0777 30.4939 75.1258 26.6882 73.9719C26.6882 73.9719 30.8876 84.1001 36.3993 83.5873C41.9111 83.0745 43.6171 79.7411 47.0307 79.4847C50.4444 79.2283 52.9361 80.1258 51.2301 81.0264C49.5241 81.9271 43.75 81.321 40.9941 83.6092C38.2382 85.8974 36.0106 87.3085 41.1253 88.3341C46.24 89.3598 55.4295 88.7187 57.2668 84.8726L59.1015 81.0199Z" fill="#A8D29F"/>
<path d="M28.3933 62.5583C28.3933 62.5583 55.9519 71.2763 59.1014 81.0199C59.1014 81.0199 58.9702 85.3788 61.726 90.3788V92.3019C61.726 92.3019 58.839 85.7635 57.2642 84.866C57.2642 84.866 63.432 76.4045 28.3933 62.5583Z" fill="#82B378"/>
<path d="M61.7259 90.3787C61.7259 90.3787 65.976 96.6843 63.5532 104.359L62.4593 104.072C62.4593 104.072 63.5208 95.6181 61.2965 91.367C59.0722 87.116 61.7259 90.3787 61.7259 90.3787Z" fill="#82B378"/>
<path d="M69.1042 35.9688L54.3789 110.345C54.308 110.7 54.3185 111.066 54.4096 111.417C54.5006 111.767 54.67 112.094 54.9056 112.373C55.1411 112.652 55.437 112.877 55.772 113.032C56.107 113.186 56.4728 113.266 56.8432 113.266H64.6099L69.1042 35.9688Z" fill="#ED7D2B"/>
<path d="M166.993 57.2598C166.993 57.2598 160.37 53.1321 163.862 48.2295C163.862 48.2295 166.603 45.2523 169.386 44.6032C169.386 44.6032 167.48 52.0991 168.93 52.3596C170.379 52.6201 170.435 43.8575 170.435 43.8575C170.435 43.8575 177.842 40.8739 180.656 41.2999C180.656 41.2999 175.749 48.4485 177.22 48.3528C178.691 48.257 184.15 41.05 184.15 41.05C184.15 41.05 191.62 40.1274 192.555 44.4726C193.489 48.8177 191.447 50.8503 190.337 51.0564C189.226 51.2626 182.205 50.7798 182.335 51.6812C182.465 52.5827 187.126 54.2778 189.819 53.6214C189.819 53.6214 186.485 60.5006 182.676 59.9294C178.867 59.3581 177.815 56.9733 175.45 56.6618C173.086 56.3502 171.317 56.8768 172.467 57.5681C173.617 58.2594 177.656 58.0639 179.48 59.759C181.303 61.454 182.796 62.5259 179.195 63.0395C175.595 63.5532 169.229 62.749 168.112 60.0024L166.993 57.2598Z" fill="#C7DCFB"/>
<path d="M189.101 45.6199C189.101 45.6199 169.582 50.6069 166.993 57.2597C166.993 57.2597 166.91 60.2961 164.786 63.6651L164.708 65.0023C164.708 65.0023 166.982 60.5687 168.113 60.0056C168.114 60.0056 164.171 53.8818 189.101 45.6199Z" fill="#C7DCFB"/>
<path d="M164.786 63.665C164.786 63.665 161.574 67.8844 162.945 73.3153L163.717 73.1579C163.717 73.1579 163.325 67.2345 165.046 64.3686C166.767 61.5026 164.786 63.665 164.786 63.665Z" fill="#C7DCFB"/>
<path d="M149.158 39.3451C149.158 39.3451 138.981 37.1615 141.037 29.4993C141.037 29.4993 143.054 24.5707 146.218 22.521C146.218 22.521 147.351 32.7036 149.277 32.3806C151.203 32.0577 147.178 21.1189 147.178 21.1189C147.178 21.1189 155.006 14.0984 158.708 13.373C158.708 13.373 155.942 24.4636 157.728 23.687C159.514 22.9105 162.941 11.5011 162.941 11.5011C162.941 11.5011 171.81 7.01878 175.006 12.0115C178.202 17.0042 176.61 20.4503 175.323 21.1984C174.037 21.9465 165.069 24.483 165.653 25.5476C166.237 26.6122 172.831 26.639 175.879 24.6226C175.879 24.6226 174.944 34.6753 169.932 35.6645C164.919 36.6536 162.497 34.1544 159.41 34.8206C156.324 35.4868 154.365 36.9303 156.119 37.28C157.874 37.6297 162.813 35.5817 165.877 36.884C168.941 38.1864 171.3 38.8485 167.056 41.0945C162.813 43.3405 154.515 45.1792 151.839 42.2605L149.158 39.3451Z" fill="#DFEBFD"/>
<path d="M171.24 14.9829C171.24 14.9829 149.271 29.9042 149.158 39.3451C149.158 39.3451 150.47 43.1636 149.408 48.3048L149.935 50.0088C149.935 50.0088 150.693 43.4736 151.84 42.2678C151.838 42.2605 144.065 36.3956 171.24 14.9829Z" fill="#DFEBFD"/>
<path d="M149.406 48.3017C149.406 48.3017 147.379 54.9878 151.625 61.1384L152.513 60.598C152.513 60.598 149.256 53.4031 150.056 49.0628C150.855 44.7225 149.406 48.3017 149.406 48.3017Z" fill="#DFEBFD"/>
<path d="M69.2818 35.6678L59.5209 108.696C59.4447 109.267 59.494 109.847 59.6655 110.397C59.837 110.948 60.1267 111.456 60.5154 111.888C60.9041 112.321 61.3827 112.667 61.9193 112.904C62.456 113.142 63.0382 113.264 63.6273 113.264H77.9456L69.8724 35.4058L69.2818 35.6678Z" fill="#78ACEA"/>
<path d="M69.2818 35.6677L64.913 108.229C64.8745 108.875 64.9717 109.522 65.1985 110.131C65.4253 110.74 65.7769 111.297 66.2319 111.768C66.6868 112.239 67.2355 112.614 67.8442 112.87C68.453 113.127 69.1089 113.259 69.7719 113.259H91.1268L69.2818 35.6677Z" fill="#699DEE"/>
<path d="M69.1182 36.2617L71.2428 108.23C71.2043 108.877 71.3015 109.524 71.5283 110.133C71.7551 110.741 72.1067 111.298 72.5617 111.769C73.0166 112.24 73.5653 112.616 74.174 112.872C74.7828 113.129 75.4387 113.261 76.1017 113.261H97.4566L69.1182 36.2617Z" fill="#5288D8"/>
<path d="M171.365 113.266H87.1609C86.1419 113.266 85.1553 112.916 84.3728 112.279C83.5903 111.641 83.0615 110.756 82.8784 109.777L70.0651 41.3208C69.9286 40.5913 69.958 39.8413 70.151 39.1241C70.3441 38.4069 70.6962 37.7399 71.1823 37.1703C71.6684 36.6007 72.2767 36.1424 72.9642 35.8279C73.6517 35.5134 74.4015 35.3504 75.1607 35.3503H158.374C159.393 35.3505 160.379 35.6997 161.162 36.3372C161.944 36.9748 162.473 37.8603 162.656 38.8395L175.647 108.245C175.762 108.859 175.738 109.489 175.576 110.092C175.414 110.695 175.118 111.256 174.709 111.735C174.301 112.214 173.789 112.6 173.211 112.864C172.633 113.129 172.003 113.266 171.365 113.266Z" fill="#D7E9FF"/>
<path d="M71.732 50.2116H164.84L162.453 37.2872C162.353 36.7438 162.06 36.252 161.627 35.8979C161.193 35.5438 160.646 35.35 160.081 35.3503H69.8948C69.7789 35.3502 69.6645 35.3751 69.5595 35.423C69.4546 35.471 69.3618 35.541 69.2876 35.628C69.2135 35.7149 69.1599 35.8168 69.1306 35.9263C69.1013 36.0358 69.0971 36.1503 69.1182 36.2616L71.732 50.2116Z" fill="#F99746"/>
<path d="M73.9089 31.4614C72.8388 31.4623 71.8127 31.8779 71.0559 32.6171C70.2991 33.3563 69.8734 34.3586 69.8723 35.4041H70.6481C70.6485 34.7821 70.8353 34.1738 71.1855 33.6543C71.5358 33.1348 72.0341 32.7269 72.6189 32.4809C73.2037 32.2349 73.8495 32.1616 74.4764 32.2701C75.1034 32.3785 75.6841 32.6639 76.147 33.0911C76.6098 33.5183 76.9344 34.0686 77.0808 34.674C77.2272 35.2793 77.1889 35.9134 76.9706 36.4977C76.7524 37.0821 76.3638 37.5912 75.8527 37.9623C75.3417 38.3333 74.7306 38.5501 74.095 38.5857V39.3452C74.4454 39.3299 74.7922 39.2696 75.1265 39.1659C76.0462 38.8826 76.8315 38.2869 77.3405 37.4868C77.8494 36.6867 78.0483 35.735 77.9012 34.804C77.754 33.873 77.2705 33.0243 76.5382 32.4114C75.8059 31.7986 74.8732 31.4622 73.9089 31.463V31.4614Z" fill="#78ACEA"/>
<path d="M75.1573 38.9393C75.1574 39.0163 75.147 39.093 75.1266 39.1673C75.0744 39.3532 74.9594 39.5164 74.8004 39.6304C74.6413 39.7444 74.4475 39.8027 74.2504 39.7956C74.0532 39.7885 73.8643 39.7166 73.7142 39.5915C73.5641 39.4664 73.4617 39.2955 73.4235 39.1064C73.3854 38.9173 73.4137 38.7211 73.5039 38.5498C73.5942 38.3784 73.741 38.2418 73.9207 38.1621C74.1003 38.0825 74.3022 38.0645 74.4937 38.111C74.6851 38.1575 74.8549 38.2658 74.9754 38.4184C75.0938 38.5674 75.1579 38.7507 75.1573 38.9393Z" fill="#78ACEA"/>
<path d="M88.3827 31.4614C87.3124 31.4623 86.2862 31.8779 85.5293 32.6171C84.7724 33.3562 84.3465 34.3586 84.3452 35.4041H85.1201C85.1201 34.559 85.4638 33.7485 86.0755 33.151C86.6872 32.5534 87.5168 32.2177 88.3818 32.2177C89.2469 32.2177 90.0765 32.5534 90.6882 33.151C91.2999 33.7485 91.6435 34.559 91.6435 35.4041C91.6449 35.7469 91.5888 36.0876 91.4774 36.4127C91.2708 37.0174 90.8834 37.5477 90.3652 37.935C89.847 38.3224 89.2218 38.5491 88.5704 38.5857V39.3452C88.9208 39.33 89.2676 39.2697 89.6019 39.1659C90.5214 38.8826 91.3067 38.2871 91.8157 37.4871C92.3246 36.6872 92.5236 35.7357 92.3767 34.8048C92.2297 33.8739 91.7465 33.0252 91.0145 32.4122C90.2825 31.7993 89.3501 31.4626 88.386 31.463L88.3827 31.4614Z" fill="#78ACEA"/>
<path d="M89.6302 38.9395C89.63 39.0165 89.6193 39.0931 89.5986 39.1675C89.5395 39.3767 89.4013 39.5562 89.2119 39.6696C89.0224 39.7831 88.796 39.822 88.5783 39.7784C88.3606 39.7349 88.168 39.6123 88.0394 39.4353C87.9108 39.2583 87.8558 39.0402 87.8856 38.8251C87.9154 38.61 88.0277 38.4139 88.1998 38.2767C88.3719 38.1394 88.5909 38.0711 88.8126 38.0857C89.0343 38.1002 89.2421 38.1965 89.3938 38.355C89.5456 38.5135 89.6301 38.7224 89.6302 38.9395Z" fill="#78ACEA"/>
<path d="M102.855 31.4614C101.785 31.4623 100.759 31.8779 100.002 32.6171C99.2456 33.3563 98.8199 34.3586 98.8188 35.4041H99.5938C99.5938 34.7816 99.7805 34.1728 100.131 33.6528C100.481 33.1328 100.98 32.7244 101.565 32.478C102.15 32.2317 102.796 32.1582 103.424 32.2667C104.051 32.3751 104.632 32.6607 105.095 33.0882C105.559 33.5158 105.883 34.0664 106.03 34.6723C106.176 35.2781 106.138 35.9126 105.919 36.4974C105.701 37.0821 105.312 37.5915 104.8 37.9626C104.288 38.3338 103.677 38.5504 103.041 38.5857V39.3452C103.391 39.3298 103.738 39.2695 104.072 39.1659C104.992 38.8826 105.777 38.287 106.286 37.487C106.795 36.687 106.994 35.7353 106.847 34.8044C106.7 33.8735 106.217 33.0248 105.484 32.4118C104.752 31.7989 103.82 31.4624 102.855 31.463V31.4614Z" fill="#78ACEA"/>
<path d="M104.104 38.9395C104.104 39.0165 104.093 39.0931 104.072 39.1675C104.013 39.3767 103.875 39.5562 103.685 39.6696C103.496 39.7831 103.27 39.822 103.052 39.7784C102.834 39.7349 102.642 39.6123 102.513 39.4353C102.384 39.2583 102.329 39.0402 102.359 38.8251C102.389 38.61 102.501 38.4139 102.673 38.2767C102.846 38.1394 103.065 38.0711 103.286 38.0857C103.508 38.1002 103.716 38.1965 103.867 38.355C104.019 38.5135 104.104 38.7224 104.104 38.9395Z" fill="#78ACEA"/>
<path d="M117.328 31.4614C116.258 31.4621 115.232 31.8776 114.475 32.6168C113.718 33.356 113.292 34.3585 113.291 35.4041H114.065C114.065 34.7821 114.252 34.1739 114.602 33.6544C114.953 33.1349 115.451 32.727 116.036 32.481C116.62 32.235 117.266 32.1617 117.893 32.2701C118.52 32.3784 119.101 32.6638 119.563 33.0909C120.026 33.518 120.351 34.0682 120.497 34.6735C120.644 35.2789 120.606 35.9128 120.388 36.4972C120.17 37.0816 119.781 37.5907 119.27 37.9619C118.759 38.333 118.148 38.5499 117.513 38.5857V39.3452C117.863 39.3298 118.21 39.2695 118.544 39.1659C119.463 38.8816 120.247 38.2856 120.755 37.4858C121.263 36.686 121.461 35.735 121.314 34.8047C121.167 33.8744 120.684 33.0262 119.953 32.4134C119.222 31.8005 118.29 31.4634 117.327 31.463L117.328 31.4614Z" fill="#78ACEA"/>
<path d="M118.577 38.9393C118.576 39.0163 118.566 39.0929 118.546 39.1673C118.494 39.3532 118.379 39.5164 118.22 39.6304C118.061 39.7444 117.867 39.8027 117.67 39.7956C117.472 39.7885 117.283 39.7166 117.133 39.5915C116.983 39.4664 116.881 39.2955 116.843 39.1064C116.805 38.9173 116.833 38.7211 116.923 38.5498C117.013 38.3784 117.16 38.2418 117.34 38.1621C117.52 38.0825 117.721 38.0645 117.913 38.111C118.104 38.1575 118.274 38.2658 118.395 38.4184C118.513 38.5674 118.577 38.7507 118.577 38.9393Z" fill="#78ACEA"/>
<path d="M131.802 31.4614C130.732 31.4623 129.705 31.8779 128.949 32.6171C128.192 33.3562 127.766 34.3586 127.764 35.4041H128.539C128.54 34.7819 128.726 34.1733 129.077 33.6535C129.427 33.1338 129.925 32.7256 130.51 32.4795C131.095 32.2333 131.741 32.1599 132.368 32.2684C132.996 32.3768 133.577 32.6623 134.04 33.0897C134.503 33.517 134.827 34.0675 134.974 34.6731C135.12 35.2787 135.082 35.913 134.863 36.4975C134.645 37.0821 134.256 37.5913 133.745 37.9624C133.234 38.3335 132.622 38.5502 131.986 38.5857V39.3452C132.337 39.33 132.684 39.2697 133.018 39.1659C133.937 38.8826 134.723 38.2871 135.232 37.4871C135.74 36.6872 135.94 35.7357 135.793 34.8048C135.646 33.8739 135.162 33.0252 134.43 32.4122C133.698 31.7993 132.766 31.4626 131.802 31.463V31.4614Z" fill="#78ACEA"/>
<path d="M133.05 38.9395C133.049 39.0165 133.039 39.0932 133.018 39.1675C132.966 39.3531 132.85 39.5159 132.691 39.6296C132.532 39.7433 132.339 39.8012 132.142 39.794C131.945 39.7867 131.756 39.7146 131.606 39.5895C131.457 39.4644 131.355 39.2935 131.317 39.1046C131.279 38.9156 131.307 38.7197 131.398 38.5486C131.488 38.3775 131.635 38.2412 131.814 38.1618C131.994 38.0823 132.195 38.0645 132.387 38.1111C132.578 38.1577 132.747 38.266 132.868 38.4185C132.986 38.5675 133.05 38.7509 133.05 38.9395Z" fill="#78ACEA"/>
<path d="M146.275 31.4614C145.204 31.4623 144.178 31.8779 143.422 32.6171C142.665 33.3563 142.239 34.3586 142.238 35.4041H143.012C143.013 34.7821 143.199 34.1739 143.55 33.6544C143.9 33.1349 144.398 32.727 144.983 32.481C145.568 32.235 146.213 32.1617 146.84 32.2701C147.467 32.3784 148.048 32.6638 148.511 33.0909C148.974 33.518 149.298 34.0682 149.445 34.6735C149.591 35.2789 149.553 35.9128 149.335 36.4972C149.117 37.0816 148.728 37.5907 148.217 37.9619C147.706 38.333 147.095 38.5499 146.46 38.5857V39.3452C146.81 39.3299 147.157 39.2696 147.491 39.1659C148.41 38.8816 149.194 38.2857 149.702 37.486C150.21 36.6862 150.409 35.7353 150.262 34.8051C150.115 33.8749 149.632 33.0267 148.901 32.4138C148.17 31.8008 147.238 31.4636 146.275 31.463V31.4614Z" fill="#78ACEA"/>
<path d="M147.522 38.9393C147.522 39.0163 147.512 39.093 147.491 39.1673C147.439 39.3532 147.324 39.5164 147.165 39.6304C147.006 39.7444 146.812 39.8027 146.615 39.7956C146.418 39.7885 146.229 39.7166 146.079 39.5915C145.929 39.4664 145.826 39.2955 145.788 39.1064C145.75 38.9173 145.778 38.7211 145.869 38.5498C145.959 38.3784 146.106 38.2418 146.285 38.1621C146.465 38.0825 146.667 38.0645 146.858 38.111C147.05 38.1575 147.22 38.2658 147.34 38.4184C147.459 38.5674 147.523 38.7507 147.522 38.9393Z" fill="#78ACEA"/>
<path d="M160.748 31.4614C159.677 31.4623 158.651 31.8779 157.895 32.6171C157.138 33.3563 156.712 34.3586 156.711 35.4041H157.486C157.486 34.559 157.83 33.7485 158.441 33.151C159.053 32.5534 159.882 32.2177 160.748 32.2177C161.613 32.2177 162.442 32.5534 163.054 33.151C163.666 33.7485 164.009 34.559 164.009 35.4041C164.011 35.7469 163.954 36.0876 163.843 36.4127C163.636 37.0173 163.249 37.5474 162.731 37.9348C162.213 38.3221 161.587 38.5488 160.936 38.5857V39.3452C161.287 39.33 161.633 39.2697 161.968 39.1659C162.887 38.8826 163.673 38.287 164.181 37.487C164.69 36.687 164.889 35.7353 164.742 34.8044C164.595 33.8735 164.112 33.0248 163.38 32.4118C162.648 31.7989 161.715 31.4624 160.751 31.463L160.748 31.4614Z" fill="#78ACEA"/>
<path d="M161.996 38.9395C161.996 39.0165 161.985 39.0932 161.964 39.1675C161.912 39.3531 161.797 39.5159 161.638 39.6296C161.479 39.7433 161.285 39.8012 161.088 39.794C160.891 39.7867 160.703 39.7146 160.553 39.5895C160.403 39.4644 160.301 39.2935 160.263 39.1046C160.225 38.9156 160.254 38.7197 160.344 38.5486C160.434 38.3775 160.581 38.2412 160.76 38.1618C160.94 38.0823 161.142 38.0645 161.333 38.1111C161.524 38.1577 161.694 38.266 161.814 38.4185C161.932 38.5675 161.996 38.7509 161.996 38.9395Z" fill="#78ACEA"/>
<path d="M125.578 74.4911H120.871C120.327 74.4911 119.791 74.0562 119.69 73.5247L118.783 68.9264C118.677 68.3949 119.037 67.96 119.581 67.96H124.288C124.832 67.96 125.363 68.3949 125.468 68.9264L126.376 73.5247C126.481 74.0562 126.122 74.4911 125.578 74.4911Z" fill="#AFCDFB"/>
<path d="M137.455 74.4911H132.748C132.204 74.4911 131.668 74.0562 131.568 73.5247L130.66 68.9264C130.555 68.3949 130.914 67.96 131.458 67.96H136.165C136.709 67.96 137.24 68.3949 137.345 68.9264L138.253 73.5247C138.358 74.0562 137.999 74.4911 137.455 74.4911Z" fill="#AFCDFB"/>
<path d="M149.332 74.4911H144.625C144.081 74.4911 143.55 74.0562 143.445 73.5247L142.537 68.9264C142.433 68.3949 142.791 67.96 143.335 67.96H148.042C148.587 67.96 149.118 68.3949 149.223 68.9264L150.131 73.5247C150.236 74.0562 149.876 74.4911 149.332 74.4911Z" fill="#78ACEA"/>
<path d="M89.9449 74.4911H85.2381C84.694 74.4911 84.1633 74.0562 84.0578 73.5247L83.15 68.9264C83.0453 68.3949 83.4041 67.96 83.949 67.96H88.6559C89.1999 67.96 89.7306 68.3949 89.8361 68.9264L90.744 73.5247C90.8486 74.0562 90.489 74.4911 89.9449 74.4911Z" fill="#AFCDFB"/>
<path d="M84.7862 60.6856H82.7638C82.6441 60.6808 82.5294 60.6375 82.4376 60.5623C82.3458 60.4871 82.282 60.3844 82.2563 60.2701L81.8667 58.2943C81.8537 58.2441 81.8527 58.1916 81.8641 58.141C81.8754 58.0904 81.8986 58.0431 81.9319 58.0028C81.9652 57.9625 82.0076 57.9303 82.0558 57.9088C82.1041 57.8873 82.1568 57.877 82.2098 57.8789H84.2322C84.3518 57.8838 84.4665 57.9272 84.5582 58.0023C84.65 58.0775 84.7138 58.1801 84.7397 58.2943L85.1292 60.2701C85.1423 60.3203 85.1432 60.3728 85.1319 60.4234C85.1206 60.474 85.0974 60.5214 85.0641 60.5617C85.0308 60.602 84.9884 60.6342 84.9401 60.6557C84.8919 60.6772 84.8392 60.6874 84.7862 60.6856Z" fill="#F99746"/>
<path d="M101.822 74.4911H97.1152C96.5712 74.4911 96.0405 74.0562 95.9358 73.5247L95.0271 68.9264C94.9225 68.3949 95.2821 67.96 95.8262 67.96H100.533C101.077 67.96 101.608 68.3949 101.713 68.9264L102.621 73.5247C102.726 74.0562 102.367 74.4911 101.822 74.4911Z" fill="#AFCDFB"/>
<path d="M113.7 74.4911H108.993C108.449 74.4911 107.914 74.0562 107.813 73.5247L106.905 68.9264C106.8 68.3949 107.159 67.96 107.704 67.96H112.41C112.954 67.96 113.485 68.3949 113.591 68.9264L114.498 73.5247C114.603 74.0562 114.244 74.4911 113.7 74.4911Z" fill="#AFCDFB"/>
<path d="M161.209 74.4911H156.502C155.958 74.4911 155.428 74.0562 155.322 73.5247L154.414 68.9264C154.31 68.3949 154.669 67.96 155.213 67.96H159.92C160.464 67.96 160.995 68.3949 161.101 68.9264L162.008 73.5247C162.113 74.0562 161.753 74.4911 161.209 74.4911Z" fill="#78ACEA"/>
<path d="M123.606 64.5041H118.899C118.354 64.5041 117.819 64.0692 117.719 63.5377L116.811 58.9394C116.705 58.4071 117.065 57.9722 117.609 57.9722H122.316C122.86 57.9722 123.391 58.4071 123.496 58.9394L124.404 63.5377C124.509 64.0692 124.15 64.5041 123.606 64.5041Z" fill="#AFCDFB"/>
<path d="M135.483 64.5041H130.776C130.232 64.5041 129.696 64.0692 129.596 63.5377L128.688 58.9394C128.583 58.4071 128.942 57.9722 129.486 57.9722H134.193C134.737 57.9722 135.269 58.4071 135.373 58.9394L136.281 63.5377C136.386 64.0692 136.027 64.5041 135.483 64.5041Z" fill="#AFCDFB"/>
<path d="M147.36 64.5041H142.653C142.109 64.5041 141.574 64.0692 141.473 63.5377L140.565 58.9394C140.46 58.4071 140.819 57.9722 141.363 57.9722H146.07C146.614 57.9722 147.146 58.4071 147.251 58.9394L148.158 63.5377C148.264 64.0692 147.904 64.5041 147.36 64.5041Z" fill="#78ACEA"/>
<path d="M159.237 64.5041H154.531C153.987 64.5041 153.456 64.0692 153.35 63.5377L152.442 58.9394C152.338 58.4071 152.697 57.9722 153.241 57.9722H157.948C158.492 57.9722 159.023 58.4071 159.128 58.9394L160.036 63.5377C160.141 64.0692 159.781 64.5041 159.237 64.5041Z" fill="#78ACEA"/>
<path d="M127.667 85.0761H122.96C122.416 85.0761 121.886 84.6412 121.78 84.1097L120.872 79.5106C120.768 78.9791 121.127 78.5442 121.671 78.5442H126.378C126.922 78.5442 127.453 78.9791 127.558 79.5106L128.466 84.1089C128.574 84.6412 128.211 85.0761 127.667 85.0761Z" fill="#AFCDFB"/>
<path d="M139.545 85.0761H134.838C134.294 85.0761 133.763 84.6412 133.657 84.1097L132.75 79.5106C132.645 78.9791 133.005 78.5442 133.549 78.5442H138.255C138.799 78.5442 139.33 78.9791 139.436 79.5106L140.344 84.1089C140.451 84.6412 140.089 85.0761 139.545 85.0761Z" fill="#AFCDFB"/>
<path d="M151.422 85.0761H146.716C146.172 85.0761 145.636 84.6412 145.535 84.1097L144.628 79.5106C144.522 78.9791 144.882 78.5442 145.426 78.5442H150.133C150.677 78.5442 151.207 78.9791 151.313 79.5106L152.221 84.1089C152.328 84.6412 151.966 85.0761 151.422 85.0761Z" fill="#78ACEA"/>
<path d="M92.0355 85.0761H87.3286C86.7846 85.0761 86.2489 84.6412 86.1484 84.1097L85.2405 79.5106C85.1351 78.9791 85.4947 78.5442 86.0387 78.5442H90.7456C91.2896 78.5442 91.8254 78.9791 91.9259 79.5106L92.8337 84.1089C92.9417 84.6412 92.5795 85.0761 92.0355 85.0761Z" fill="#AFCDFB"/>
<path d="M103.913 85.0761H99.2058C98.6618 85.0761 98.1261 84.6412 98.0256 84.1097L97.1177 79.5106C97.0123 78.9791 97.3719 78.5442 97.9159 78.5442H102.623C103.167 78.5442 103.703 78.9791 103.803 79.5106L104.711 84.1089C104.819 84.6412 104.457 85.0761 103.913 85.0761Z" fill="#AFCDFB"/>
<path d="M115.79 85.0761H111.083C110.539 85.0761 110.008 84.6412 109.903 84.1097L108.995 79.5106C108.89 78.9791 109.249 78.5442 109.793 78.5442H114.5C115.045 78.5442 115.58 78.9791 115.68 79.5106L116.589 84.1089C116.696 84.6412 116.334 85.0761 115.79 85.0761Z" fill="#AFCDFB"/>
<path d="M163.3 85.0761H158.593C158.049 85.0761 157.513 84.6412 157.413 84.1097L156.505 79.5106C156.399 78.9791 156.759 78.5442 157.303 78.5442H162.01C162.554 78.5442 163.09 78.9791 163.19 79.5106L164.098 84.1089C164.205 84.6412 163.844 85.0761 163.3 85.0761Z" fill="#78ACEA"/>
<path d="M129.758 95.662H125.051C124.507 95.662 123.975 95.2271 123.871 94.6956L122.963 90.0973C122.857 89.5658 123.217 89.1309 123.761 89.1309H128.468C129.012 89.1309 129.548 89.5658 129.648 90.0973L130.556 94.6956C130.661 95.2271 130.302 95.662 129.758 95.662Z" fill="#AFCDFB"/>
<path d="M141.635 95.662H136.928C136.384 95.662 135.853 95.2271 135.748 94.6956L134.84 90.0973C134.735 89.5658 135.094 89.1309 135.638 89.1309H140.345C140.889 89.1309 141.425 89.5658 141.525 90.0973L142.433 94.6956C142.539 95.2271 142.179 95.662 141.635 95.662Z" fill="#AFCDFB"/>
<path d="M153.512 95.662H148.805C148.261 95.662 147.73 95.2271 147.625 94.6956L146.717 90.0973C146.613 89.5658 146.972 89.1309 147.516 89.1309H152.222C152.767 89.1309 153.302 89.5658 153.403 90.0973L154.311 94.6956C154.416 95.2271 154.056 95.662 153.512 95.662Z" fill="#78ACEA"/>
<path d="M94.1251 95.662H89.4182C88.8742 95.662 88.3435 95.2271 88.238 94.6956L87.3302 90.0973C87.2255 89.5658 87.5843 89.1309 88.1284 89.1309H92.8361C93.3801 89.1309 93.9108 89.5658 94.0155 90.0973L94.9241 94.6956C95.0288 95.2271 94.6691 95.662 94.1251 95.662Z" fill="#AFCDFB"/>
<path d="M106.003 95.662H101.296C100.752 95.662 100.221 95.2271 100.115 94.6956L99.2076 90.0973C99.1029 89.5658 99.4618 89.1309 100.007 89.1309H104.714C105.258 89.1309 105.788 89.5658 105.894 90.0973L106.802 94.6956C106.906 95.2271 106.547 95.662 106.003 95.662Z" fill="#F99746"/>
<path d="M117.88 95.662H113.174C112.629 95.662 112.098 95.2271 111.993 94.6956L111.085 90.0973C110.98 89.5658 111.34 89.1309 111.884 89.1309H116.591C117.135 89.1309 117.665 89.5658 117.771 90.0973L118.679 94.6956C118.783 95.2271 118.425 95.662 117.88 95.662Z" fill="#AFCDFB"/>
<path d="M165.39 95.662H160.683C160.139 95.662 159.608 95.2271 159.503 94.6956L158.595 90.0973C158.49 89.5658 158.849 89.1309 159.393 89.1309H164.101C164.645 89.1309 165.175 89.5658 165.28 90.0973L166.189 94.6956C166.293 95.2271 165.934 95.662 165.39 95.662Z" fill="#78ACEA"/>
<path d="M131.73 105.649H127.023C126.479 105.649 125.947 105.214 125.842 104.683L124.935 100.084C124.829 99.5528 125.189 99.1179 125.733 99.1179H130.44C130.984 99.1179 131.519 99.5528 131.62 100.084L132.528 104.683C132.633 105.214 132.274 105.649 131.73 105.649Z" fill="#AFCDFB"/>
<path d="M143.607 105.649H138.9C138.356 105.649 137.825 105.214 137.72 104.683L136.812 100.084C136.707 99.5528 137.066 99.1179 137.61 99.1179H142.317C142.862 99.1179 143.397 99.5528 143.497 100.084L144.405 104.683C144.51 105.214 144.151 105.649 143.607 105.649Z" fill="#AFCDFB"/>
<path d="M155.484 105.649H150.777C150.233 105.649 149.702 105.214 149.597 104.683L148.689 100.084C148.584 99.5528 148.943 99.1179 149.488 99.1179H154.195C154.739 99.1179 155.27 99.5528 155.375 100.084L156.283 104.683C156.388 105.214 156.028 105.649 155.484 105.649Z" fill="#78ACEA"/>
<path d="M96.0977 105.649H91.3909C90.8468 105.649 90.3161 105.214 90.2114 104.683L89.3028 100.084C89.1981 99.5528 89.5578 99.1179 90.1018 99.1179H94.8087C95.3527 99.1179 95.8834 99.5528 95.9889 100.084L96.8968 104.683C97.0006 105.214 96.6418 105.649 96.0977 105.649Z" fill="#AFCDFB"/>
<path d="M107.975 105.649H103.268C102.723 105.649 102.193 105.214 102.088 104.683L101.18 100.084C101.075 99.5528 101.434 99.1179 101.978 99.1179H106.685C107.229 99.1179 107.76 99.5528 107.866 100.084L108.773 104.683C108.878 105.214 108.519 105.649 107.975 105.649Z" fill="#AFCDFB"/>
<path d="M119.852 105.649H115.146C114.601 105.649 114.07 105.214 113.965 104.683L113.057 100.084C112.952 99.5528 113.312 99.1179 113.856 99.1179H118.563C119.107 99.1179 119.642 99.5528 119.743 100.084L120.651 104.683C120.756 105.214 120.396 105.649 119.852 105.649Z" fill="#AFCDFB"/>
<path d="M99.0522 58.8713H86.5827C86.4946 58.8713 86.4101 58.8371 86.3478 58.7762C86.2855 58.7154 86.2505 58.6328 86.2505 58.5467C86.2505 58.4607 86.2855 58.3781 86.3478 58.3172C86.4101 58.2564 86.4946 58.2222 86.5827 58.2222H99.0522C99.1403 58.2222 99.2248 58.2564 99.2871 58.3172C99.3494 58.3781 99.3844 58.4607 99.3844 58.5467C99.3844 58.5894 99.3758 58.6316 99.3591 58.6709C99.3424 58.7103 99.3179 58.7461 99.2871 58.7762C99.2562 58.8064 99.2196 58.8303 99.1793 58.8466C99.139 58.8629 99.0958 58.8713 99.0522 58.8713Z" fill="#AFCDFB"/>
<path d="M99.4319 60.3464H86.9616C86.8735 60.3464 86.789 60.3122 86.7267 60.2514C86.6644 60.1905 86.6294 60.1079 86.6294 60.0218C86.6294 59.9358 86.6644 59.8532 86.7267 59.7923C86.789 59.7315 86.8735 59.6973 86.9616 59.6973H99.4311C99.5192 59.6973 99.6037 59.7315 99.666 59.7923C99.7283 59.8532 99.7633 59.9358 99.7633 60.0218C99.7633 60.1078 99.7284 60.1902 99.6663 60.2511C99.6042 60.3119 99.5199 60.3462 99.4319 60.3464Z" fill="#AFCDFB"/>
<path d="M85.6791 47.8846H81.3967C81.2278 47.8842 81.0659 47.8185 80.9464 47.7019C80.8269 47.5853 80.7594 47.4273 80.7588 47.2623C80.7594 47.0973 80.8269 46.9392 80.9464 46.8226C81.0659 46.706 81.2278 46.6403 81.3967 46.6399H85.6758C85.8446 46.6403 86.0064 46.706 86.1258 46.8227C86.2452 46.9393 86.3124 47.0973 86.3129 47.2623C86.3124 47.4266 86.2456 47.5842 86.127 47.7007C86.0083 47.8173 85.8474 47.8833 85.6791 47.8846Z" fill="white"/>
<path d="M97.4201 47.8846H93.141C92.9721 47.8842 92.8104 47.8185 92.691 47.7019C92.5716 47.5852 92.5043 47.4272 92.5039 47.2623C92.5043 47.0973 92.5716 46.9393 92.691 46.8227C92.8104 46.706 92.9721 46.6403 93.141 46.6399H97.4201C97.589 46.6403 97.7509 46.706 97.8704 46.8226C97.9899 46.9392 98.0573 47.0973 98.058 47.2623C98.0573 47.4273 97.9899 47.5853 97.8704 47.7019C97.7509 47.8185 97.589 47.8842 97.4201 47.8846Z" fill="white"/>
<path d="M109.162 47.8846H104.883C104.714 47.8842 104.552 47.8185 104.433 47.7019C104.314 47.5852 104.246 47.4272 104.246 47.2623C104.246 47.0973 104.314 46.9393 104.433 46.8227C104.552 46.706 104.714 46.6403 104.883 46.6399H109.162C109.331 46.6403 109.493 46.706 109.612 46.8227C109.731 46.9393 109.799 47.0973 109.799 47.2623C109.799 47.4272 109.731 47.5852 109.612 47.7019C109.493 47.8185 109.331 47.8842 109.162 47.8846Z" fill="white"/>
<path d="M120.904 47.8846H116.625C116.456 47.8842 116.294 47.8185 116.174 47.7019C116.055 47.5853 115.987 47.4273 115.987 47.2623C115.987 47.0973 116.055 46.9392 116.174 46.8226C116.294 46.706 116.456 46.6403 116.625 46.6399H120.904C121.073 46.6403 121.234 46.706 121.354 46.8227C121.473 46.9393 121.54 47.0973 121.541 47.2623C121.54 47.4272 121.473 47.5852 121.354 47.7019C121.234 47.8185 121.073 47.8842 120.904 47.8846Z" fill="white"/>
<path d="M132.643 47.8846H128.364C128.195 47.8842 128.033 47.8185 127.914 47.7019C127.794 47.5853 127.727 47.4273 127.726 47.2623C127.727 47.0973 127.794 46.9392 127.914 46.8226C128.033 46.706 128.195 46.6403 128.364 46.6399H132.643C132.812 46.6403 132.974 46.706 133.093 46.8227C133.213 46.9393 133.28 47.0973 133.28 47.2623C133.28 47.4272 133.213 47.5852 133.093 47.7019C132.974 47.8185 132.812 47.8842 132.643 47.8846Z" fill="white"/>
<path d="M144.387 47.8846H140.108C139.939 47.8842 139.777 47.8185 139.658 47.7019C139.538 47.5852 139.471 47.4272 139.471 47.2623C139.471 47.0973 139.538 46.9393 139.658 46.8227C139.777 46.706 139.939 46.6403 140.108 46.6399H144.387C144.556 46.6403 144.718 46.706 144.837 46.8226C144.957 46.9392 145.024 47.0973 145.025 47.2623C145.024 47.4273 144.957 47.5853 144.837 47.7019C144.718 47.8185 144.556 47.8842 144.387 47.8846Z" fill="white"/>
<path d="M156.129 47.8846H151.849C151.681 47.8842 151.519 47.8185 151.399 47.7019C151.28 47.5852 151.213 47.4272 151.212 47.2623C151.213 47.0973 151.28 46.9393 151.399 46.8227C151.519 46.706 151.681 46.6403 151.849 46.6399H156.129C156.297 46.6403 156.459 46.706 156.579 46.8227C156.698 46.9393 156.765 47.0973 156.766 47.2623C156.765 47.4272 156.698 47.5852 156.579 47.7019C156.459 47.8185 156.297 47.8842 156.129 47.8846Z" fill="white"/>
<path d="M129.065 64.5942C128.12 64.5942 127.432 64.3013 127.057 63.7325C126.338 62.6419 126.891 61.114 128.707 59.1885C129.595 58.2672 130.561 57.4209 131.594 56.6585C131.609 56.6467 131.625 56.6379 131.643 56.6327C131.661 56.6274 131.68 56.6259 131.699 56.6281C131.718 56.6303 131.736 56.6363 131.752 56.6455C131.768 56.6548 131.782 56.6673 131.793 56.6821C131.804 56.6969 131.812 56.7138 131.816 56.7317C131.82 56.7496 131.821 56.7682 131.817 56.7862C131.813 56.8042 131.806 56.8214 131.796 56.8365C131.785 56.8517 131.771 56.8645 131.755 56.8743C131.696 56.9173 125.732 61.2308 127.287 63.5872C127.779 64.3337 128.833 64.3832 129.632 64.2932C131.109 64.126 133.037 63.3487 134.781 62.2143C136.592 61.0394 137.867 59.7151 138.28 58.5815C138.551 57.8375 138.467 57.3109 138.031 57.0155C137.467 56.6341 136.287 56.6341 134.875 57.0155C133.525 57.3798 132.167 58.0371 131.329 58.7292C131.315 58.7405 131.299 58.7491 131.282 58.7544C131.265 58.7597 131.247 58.7617 131.229 58.7602C131.211 58.7588 131.194 58.7539 131.178 58.7458C131.162 58.7378 131.148 58.7268 131.136 58.7134C131.125 58.7 131.116 58.6846 131.11 58.6679C131.105 58.6512 131.103 58.6336 131.105 58.6162C131.106 58.5988 131.111 58.5818 131.119 58.5662C131.127 58.5507 131.139 58.5369 131.152 58.5256C132.018 57.8099 133.417 57.1323 134.803 56.7583C136.311 56.3526 137.544 56.3647 138.183 56.7972C138.562 57.0528 138.931 57.5859 138.534 58.6716C138.102 59.8587 136.79 61.2308 134.929 62.4374C133.146 63.5945 131.175 64.3848 129.657 64.5593C129.46 64.5818 129.263 64.5935 129.065 64.5942Z" fill="#C65447"/>
<path d="M153.772 57.0139L153.287 56.1213C153.287 56.1213 153.528 54.5261 151.482 53.5167C151.482 53.5167 150.734 53.2197 150.311 53.8153C149.923 54.3638 151.053 54.2648 150.992 55.2036C150.932 56.1424 151.388 56.6934 152.023 56.9993L152.547 57.5933L153.772 57.0139Z" fill="#FFB27D"/>
<path d="M173.111 54.8742C173.111 54.8742 171.353 63.3 161.684 66.0524C158.664 66.9117 151.807 57.203 151.807 57.203C151.807 57.203 152.048 56.3104 153.558 56.5141C153.558 56.5141 160.236 60.8325 161.076 61.3015C161.824 61.7177 166.724 55.9461 168.967 55.0202C171.209 54.0944 173.111 54.8742 173.111 54.8742Z" fill="#233862"/>
<path d="M144.844 54.7239L145.231 56.7681L155.757 54.8641L155.37 52.82L144.844 54.7239Z" fill="#C65447"/>
<path d="M142.582 56.1878L145.222 56.7672L144.835 54.7224L142.582 56.1878Z" fill="#FFB27D"/>
<path d="M156.713 53.2756L156.835 53.9248C156.854 54.0194 156.853 54.1166 156.832 54.2107C156.812 54.3049 156.773 54.3943 156.717 54.4736C156.661 54.5529 156.59 54.6207 156.507 54.673C156.424 54.7253 156.332 54.7611 156.235 54.7784L155.748 54.866L155.36 52.822L155.89 52.7263C156.074 52.6928 156.264 52.7319 156.418 52.8348C156.572 52.9378 156.678 53.0964 156.713 53.2756Z" fill="#FFB27D"/>
<path d="M184.655 107.841C184.655 107.841 185.855 108.911 185.621 109.67C185.387 110.43 184.304 110.937 184.158 111.866C184.012 112.795 183.426 113.301 182.9 113.301H180.389C180.389 113.301 180.001 112.652 180.937 112.451C181.873 112.25 182.227 111.163 182.168 110.149C182.109 109.136 182.256 107.785 182.256 107.785L184.25 107.334L184.655 107.841Z" fill="#233862"/>
<path d="M169.936 110.608C169.936 110.608 170.151 113.042 169.625 113.295L162.885 113.281C162.885 113.281 162.885 112.522 163.964 112.353C165.044 112.184 166.949 111.564 167.27 110.186C167.591 108.807 169.936 110.608 169.936 110.608Z" fill="#233862"/>
<path d="M164.248 76.2244C164.248 76.2244 164.603 80.4908 165.021 85.6198C165.589 92.5867 166.272 101.145 166.339 102.766C166.456 105.581 166.92 110.084 166.92 110.084C166.92 110.084 168.032 111.154 170.256 110.703C170.256 110.703 172.238 104.274 172.804 97.4764C172.813 97.3652 172.822 97.2524 172.831 97.1404C173.357 90.2165 174.176 75.6377 174.176 75.6377L164.248 76.2244Z" fill="#F99746"/>
<path d="M164.248 76.2242C164.248 76.2242 164.603 80.4907 165.021 85.6197L172.808 97.473C172.817 97.3618 172.826 97.249 172.835 97.137C173.361 90.2131 174.18 75.6343 174.18 75.6343L164.248 76.2242Z" fill="#ED7D2B"/>
<path d="M165.871 76.7305C165.871 76.7305 172.279 92.1833 176.492 99.4447C180.706 106.706 182.022 108.733 182.022 108.733C182.022 108.733 184.436 107.804 184.655 107.171C184.655 107.171 183.044 93.1521 180.223 89.7344C178.628 87.8032 176.755 82.008 176.667 79.9819C176.579 77.9558 176.097 73.9441 176.097 73.9441L165.871 76.7305Z" fill="#F99746"/>
<path d="M174.302 52.9187C174.302 52.9187 169.966 54.9619 167.467 54.204C167.942 53.6646 168.516 53.2161 169.159 52.8814C169.076 52.3945 169.005 51.9661 168.966 51.605C168.906 51.1726 168.871 50.7373 168.861 50.3011L170.533 49.0158L172.12 47.7856C171.994 51.2447 174.302 52.9187 174.302 52.9187Z" fill="#FFB27D"/>
<path d="M163.973 76.5764C164.044 76.6406 164.137 76.6767 164.234 76.6779C165.175 76.6592 167.915 77.1647 170.232 76.9367C172.193 76.7517 173.923 76.1967 175.778 75.4023C176.028 75.2911 176.597 74.9966 176.587 74.7369C176.577 74.4408 176.548 74.0245 176.509 73.4873C176.432 72.4325 176.322 70.9305 176.288 69.1527C176.262 67.8341 176.277 66.3622 176.375 64.8043C176.381 64.6996 176.386 64.5941 176.391 64.4878C176.419 63.9198 176.432 63.3413 176.432 62.779C176.451 61.0757 176.319 59.3741 176.038 57.693C175.567 55.0153 174.682 52.9129 173.376 51.9781C173.202 51.8483 172.13 52.357 171.126 52.8285C170.213 53.2634 169.299 53.3096 168.434 53.1433L167.57 53.8833C166.521 54.8165 165.367 56.1018 164.858 58.0443C164.435 59.6907 164.185 62.6694 164.05 65.7528C163.984 67.1582 163.935 68.5636 163.916 69.9041V69.9503C163.906 70.0891 163.906 70.2287 163.906 70.3674C163.859 73.8022 163.906 76.5302 163.973 76.5764Z" fill="#2B478B"/>
<path d="M172.148 49.1081C172.148 49.1081 171.052 51.0556 168.966 51.6049C168.906 51.1725 168.871 50.7372 168.861 50.3009L170.533 49.0156L172.148 49.1081Z" fill="#ED985F"/>
<path d="M168.098 50.2449C168.098 50.2449 172.234 50.9054 172.622 48.4217C173.011 45.9379 173.806 44.3499 171.181 43.8233C168.557 43.2967 167.895 44.1698 167.556 44.9683C167.217 45.7667 167.029 50.0088 168.098 50.2449Z" fill="#FFB27D"/>
<path d="M174.126 43.5256C174.163 43.4835 174.249 43.4502 174.442 43.4396C174.332 43.3786 174.209 43.3446 174.082 43.3406C174.042 43.0785 173.899 42.6152 173.438 42.5024C173.513 42.5453 173.577 42.604 173.625 42.6742C173.674 42.7444 173.706 42.8243 173.719 42.9081C173.184 42.3726 172.039 41.9823 168.87 42.2266C164.692 42.5511 166.069 45.1615 166.61 45.4723C167.15 45.783 168.512 44.9302 169.517 45.0081C170.522 45.086 170.716 46.5084 171.058 46.704C171.401 46.8995 171.266 46.5539 171.728 46.3494C172.19 46.1449 172.234 46.8939 172.101 47.3807C171.967 47.8676 172.599 48.5102 172.599 48.5102L173.241 47.8343C173.883 47.1584 174.487 44.2965 174.196 43.6863C174.175 43.6344 174.151 43.5808 174.126 43.5256Z" fill="#2C3A64"/>
<path d="M153.278 56.0766C153.278 56.0766 153.42 55.5273 153.029 55.2806C152.638 55.034 152.281 54.3621 152.115 54.453C151.775 54.6412 152.302 55.2271 152.206 55.9582C152.173 56.2138 152.783 56.884 153.278 56.0766Z" fill="#FFB27D"/>
<path d="M176.288 69.1526C176.262 67.8341 176.277 66.3622 176.375 64.8042C176.381 64.6995 176.386 64.5941 176.391 64.4878C175.997 62.585 175.402 60.8972 174.527 60.842C174.527 60.842 171.919 64.8456 176.288 69.1526Z" fill="#233862"/>
<path d="M179.737 76.0572C179.737 76.0572 179.519 78.1215 179.281 78.5118C179.043 78.9021 178.027 80.1508 177.594 80.3951C177.161 80.6393 177.858 78.7511 177.77 78.3836C177.682 78.016 177.414 79.0546 177.224 79.079C177.033 79.1033 177.082 78.1685 177.075 77.8285C177.068 77.4886 178.003 76.6487 178.332 75.9241C178.662 75.1995 179.737 76.0572 179.737 76.0572Z" fill="#FFB27D"/>
<path d="M173.374 51.958C173.374 51.958 175.99 53.1687 177.245 55.0292C179.191 57.9163 181.447 68.4372 181.489 69.4117C181.532 70.3863 179.842 77.2647 179.842 77.2647C179.842 77.2647 178.131 77.1543 177.689 76.3105C177.689 76.3105 178.031 69.243 177.814 68.7886C177.597 68.3342 170.675 59.3063 171.454 57.3824C172.232 55.4585 173.374 51.958 173.374 51.958Z" fill="#2B478B"/>
<path d="M143.935 55.3083L144.073 56.5149L142.582 56.1879L143.935 55.3083Z" fill="#C65447"/>
<path d="M200.561 113.266H193.021C192.616 112.931 193.3 112.17 194.017 112.119C194.328 112.096 194.721 112.16 195.168 112.252C195.272 110.906 195.865 104.852 198.099 105.096C200.61 105.367 198.099 107.761 197.389 109.179C196.863 110.228 196.309 111.733 196.055 112.444C196.258 112.487 196.47 112.529 196.685 112.568C197.017 111.569 198.257 108.211 199.831 108.406C201.681 108.636 200.938 109.982 199.627 110.781C198.665 111.369 197.484 112.204 196.923 112.609C197.41 112.691 197.904 112.73 198.399 112.724C199.687 112.69 200.317 113.063 200.561 113.266Z" fill="#82B378"/>
<path d="M28.4058 112.913C28.0055 112.299 26.8028 110.707 25.2006 110.918C23.4564 111.148 27.1284 112.272 28.253 112.917C28.043 112.928 27.8326 112.904 27.6309 112.846C26.8792 112.584 25.5918 113.09 25.1799 113.263H32.3378C32.256 112.994 32.0732 112.766 31.8261 112.623C31.7082 112.553 31.4723 112.542 31.1675 112.566C31.5927 112.079 31.8884 110.51 30.7032 110.913C29.8377 111.207 29.8402 112.164 29.9249 112.73C29.7414 112.758 29.5545 112.786 29.3701 112.811C29.0138 111.038 27.753 105.833 25.1981 105.698C22.6109 105.557 27.3975 111.093 28.9872 112.86C28.7862 112.886 28.5902 112.904 28.4058 112.913Z" fill="#82B378"/>
<path d="M224.302 113.189H0.254157C0.11379 113.189 0 113.3 0 113.437V113.522C0 113.659 0.11379 113.77 0.254157 113.77H224.302C224.442 113.77 224.556 113.659 224.556 113.522V113.437C224.556 113.3 224.442 113.189 224.302 113.189Z" fill="#2E3552"/>
</svg>
