<svg width="25" height="25" viewBox="0 0 25 25" fill="none" xmlns="http://www.w3.org/2000/svg">
<path d="M23.4375 2.34094L17.182 2.34097V0.783936C17.182 0.352295 16.8324 0.00268555 16.4008 0.00268555C15.9691 0.00268555 15.6195 0.352295 15.6195 0.783936V2.34058H9.36953V0.783936C9.36953 0.352295 9.01992 0.00268555 8.58828 0.00268555C8.15664 0.00268555 7.80703 0.352295 7.80703 0.783936V2.34058H1.5625C0.699609 2.34058 0 3.04019 0 3.90308V23.4343C0 24.2972 0.699609 24.9968 1.5625 24.9968H23.4375C24.3004 24.9968 25 24.2972 25 23.4343V3.90308C25 3.04055 24.3004 2.34094 23.4375 2.34094ZM23.4375 23.4343H1.5625V3.90308H7.80703V4.69019C7.80703 5.1218 8.15664 5.47144 8.58828 5.47144C9.01992 5.47144 9.36953 5.1218 9.36953 4.69019V3.90347H15.6195V4.69058C15.6195 5.12222 15.9691 5.47183 16.4008 5.47183C16.8324 5.47183 17.182 5.12222 17.182 4.69058V3.90347H23.4375V23.4343ZM17.9688 12.4972H19.5312C19.9625 12.4972 20.3125 12.1472 20.3125 11.7159V10.1534C20.3125 9.72219 19.9625 9.37219 19.5312 9.37219H17.9688C17.5375 9.37219 17.1875 9.72219 17.1875 10.1534V11.7159C17.1875 12.1472 17.5375 12.4972 17.9688 12.4972ZM17.9688 18.7468H19.5312C19.9625 18.7468 20.3125 18.3972 20.3125 17.9656V16.4031C20.3125 15.9718 19.9625 15.6218 19.5312 15.6218H17.9688C17.5375 15.6218 17.1875 15.9718 17.1875 16.4031V17.9656C17.1875 18.3976 17.5375 18.7468 17.9688 18.7468ZM13.2812 15.6218H11.7188C11.2875 15.6218 10.9375 15.9718 10.9375 16.4031V17.9656C10.9375 18.3972 11.2875 18.7468 11.7188 18.7468H13.2812C13.7125 18.7468 14.0625 18.3972 14.0625 17.9656V16.4031C14.0625 15.9722 13.7125 15.6218 13.2812 15.6218ZM13.2812 9.37219H11.7188C11.2875 9.37219 10.9375 9.72219 10.9375 10.1534V11.7159C10.9375 12.1472 11.2875 12.4972 11.7188 12.4972H13.2812C13.7125 12.4972 14.0625 12.1472 14.0625 11.7159V10.1534C14.0625 9.7218 13.7125 9.37219 13.2812 9.37219ZM7.03125 9.37219H5.46875C5.0375 9.37219 4.6875 9.72219 4.6875 10.1534V11.7159C4.6875 12.1472 5.0375 12.4972 5.46875 12.4972H7.03125C7.4625 12.4972 7.8125 12.1472 7.8125 11.7159V10.1534C7.8125 9.7218 7.4625 9.37219 7.03125 9.37219ZM7.03125 15.6218H5.46875C5.0375 15.6218 4.6875 15.9718 4.6875 16.4031V17.9656C4.6875 18.3972 5.0375 18.7468 5.46875 18.7468H7.03125C7.4625 18.7468 7.8125 18.3972 7.8125 17.9656V16.4031C7.8125 15.9722 7.4625 15.6218 7.03125 15.6218Z" fill="#0E0B8B"/>
</svg>
