<svg width="215" height="105" viewBox="0 0 215 105" fill="none" xmlns="http://www.w3.org/2000/svg">
<g filter="url(#filter0_d_226_137)">
<path d="M139 102.45C139 103.45 118 104.21 92 104.21C66 104.21 45 103.42 45 102.45C45 101.48 66 100.69 92 100.69C118 100.69 139 101.48 139 102.45Z" fill="#E5E5E5"/>
<path d="M207.7 102.45C207.7 103.45 186.7 104.21 160.7 104.21C134.7 104.21 113.7 103.42 113.7 102.45C113.7 101.48 134.7 100.69 160.7 100.69C186.7 100.69 207.7 101.48 207.7 102.45Z" fill="#E5E5E5"/>
<path d="M88.1201 92.1299H134.14V49.3999L88.1201 49.3999V92.1299Z" fill="#564B42"/>
<path d="M85.8402 49.4099L136.2 49.4099V46.6099L85.8402 46.6099V49.4099Z" fill="#716558"/>
<path d="M108.98 92.1299H132.16V58.1299H108.98V92.1299Z" fill="#716558"/>
<path d="M108.98 57.51H132.16V50.37H108.98V57.51Z" fill="#716558"/>
<path d="M117.11 53.5999H124C124.077 53.5999 124.153 53.5846 124.224 53.5548C124.295 53.5251 124.36 53.4815 124.414 53.4265C124.468 53.3716 124.51 53.3065 124.539 53.235C124.567 53.1634 124.581 53.0869 124.58 53.0099C124.58 52.8561 124.519 52.7086 124.41 52.5998C124.301 52.491 124.154 52.4299 124 52.4299H117.09C116.935 52.4299 116.787 52.4907 116.676 52.5992C116.566 52.7077 116.503 52.8552 116.5 53.0099C116.5 53.0891 116.516 53.1675 116.547 53.2404C116.578 53.3134 116.623 53.3793 116.68 53.4344C116.737 53.4894 116.804 53.5324 116.878 53.5609C116.952 53.5893 117.031 53.6026 117.11 53.5999Z" fill="#564B42"/>
<path d="M111.91 62.0601V69.0001C111.91 69.0775 111.925 69.1543 111.955 69.2259C111.985 69.2974 112.028 69.3625 112.083 69.4173C112.138 69.472 112.203 69.5155 112.274 69.5452C112.346 69.5748 112.423 69.5901 112.5 69.5901C112.655 69.5874 112.802 69.5241 112.911 69.4138C113.019 69.3034 113.08 69.1548 113.08 69.0001V62.0601C113.08 61.9062 113.019 61.7587 112.91 61.6499C112.802 61.5412 112.654 61.4801 112.5 61.4801C112.423 61.4787 112.347 61.4928 112.275 61.5213C112.204 61.5499 112.138 61.5924 112.084 61.6464C112.029 61.7004 111.985 61.7647 111.955 61.8358C111.925 61.9068 111.91 61.9831 111.91 62.0601Z" fill="#564B42"/>
<path d="M89.9298 62.4299H108.3V50.3699H89.9298V62.4299Z" fill="#716558"/>
<path d="M89.9298 75.72H108.3V63.04H89.9298V75.72Z" fill="#716558"/>
<path d="M89.9298 92.1399H108.3V76.4099H89.9298V92.1399Z" fill="#716558"/>
<path d="M97 53.6001H101.24C101.544 53.6001 101.79 53.3539 101.79 53.0501V52.9801C101.79 52.6763 101.544 52.4301 101.24 52.4301H97C96.6963 52.4301 96.45 52.6763 96.45 52.9801V53.0501C96.45 53.3539 96.6963 53.6001 97 53.6001Z" fill="#564B42"/>
<path d="M97 66.8301H101.24C101.544 66.8301 101.79 66.5838 101.79 66.2801V66.2101C101.79 65.9063 101.544 65.6601 101.24 65.6601H97C96.6963 65.6601 96.45 65.9063 96.45 66.2101V66.2801C96.45 66.5838 96.6963 66.8301 97 66.8301Z" fill="#564B42"/>
<path d="M97 80.04H101.24C101.544 80.04 101.79 79.7938 101.79 79.49V79.42C101.79 79.1163 101.544 78.87 101.24 78.87H97C96.6963 78.87 96.45 79.1163 96.45 79.42V79.49C96.45 79.7938 96.6963 80.04 97 80.04Z" fill="#564B42"/>
<path d="M133.52 92.1399H88.7402V94.9999H133.52V92.1399Z" fill="#716558"/>
<path d="M109.86 21.5299C109.853 21.6285 109.866 21.7274 109.898 21.821C109.929 21.9146 109.979 22.001 110.044 22.0754C110.109 22.1497 110.188 22.2105 110.277 22.2541C110.365 22.2978 110.462 22.3236 110.56 22.3299H114.78C114.879 22.3236 114.975 22.2978 115.064 22.2541C115.152 22.2105 115.231 22.1497 115.296 22.0754C115.361 22.001 115.411 21.9146 115.443 21.821C115.474 21.7274 115.487 21.6285 115.48 21.5299V1.73994C115.487 1.6414 115.474 1.54249 115.443 1.44889C115.411 1.35529 115.361 1.26884 115.296 1.19451C115.231 1.12018 115.152 1.05942 115.064 1.01574C114.975 0.972051 114.879 0.946293 114.78 0.939941H110.56C110.462 0.946293 110.365 0.972051 110.277 1.01574C110.188 1.05942 110.109 1.12018 110.044 1.19451C109.979 1.26884 109.929 1.35529 109.898 1.44889C109.866 1.54249 109.853 1.6414 109.86 1.73994V21.5299Z" fill="#005263"/>
<path d="M115.49 4.47998H109.86V18.79H115.49V4.47998Z" fill="#FBF9DE"/>
<path d="M104.23 21.49C104.216 21.6933 104.281 21.8941 104.411 22.0507C104.542 22.2072 104.727 22.3073 104.93 22.33H109.15C109.354 22.3097 109.543 22.2106 109.675 22.0538C109.808 21.8971 109.874 21.6948 109.86 21.49V0.84C109.874 0.635176 109.808 0.432947 109.675 0.276152C109.543 0.119356 109.354 0.0203121 109.15 0L104.93 0C104.727 0.0227198 104.542 0.122797 104.411 0.279328C104.281 0.435859 104.216 0.636736 104.23 0.84V21.49Z" fill="#FA4136"/>
<path d="M105.52 3.61006H108.52C108.553 3.60753 108.585 3.59854 108.614 3.58358C108.644 3.56862 108.67 3.548 108.691 3.52291C108.713 3.49781 108.729 3.46874 108.739 3.43736C108.749 3.40598 108.753 3.37291 108.75 3.34006V3.08006C108.753 3.04721 108.749 3.01414 108.739 2.98276C108.729 2.95138 108.713 2.9223 108.691 2.89721C108.67 2.87211 108.644 2.8515 108.614 2.83654C108.585 2.82158 108.553 2.81258 108.52 2.81006H105.52C105.453 2.81518 105.39 2.8462 105.345 2.89657C105.301 2.94694 105.277 3.01272 105.28 3.08006V3.34006C105.277 3.40739 105.301 3.47318 105.345 3.52355C105.39 3.57392 105.453 3.60493 105.52 3.61006Z" fill="#F2F0EE"/>
<path d="M105.52 5.47998H108.52C108.553 5.47746 108.585 5.46846 108.614 5.4535C108.644 5.43854 108.67 5.41793 108.691 5.39283C108.713 5.36774 108.729 5.33866 108.739 5.30728C108.749 5.2759 108.753 5.24283 108.75 5.20998V4.99998C108.753 4.96713 108.749 4.93406 108.739 4.90268C108.729 4.8713 108.713 4.84222 108.691 4.81713C108.67 4.79204 108.644 4.77142 108.614 4.75646C108.585 4.7415 108.553 4.7325 108.52 4.72998H105.52C105.453 4.73511 105.39 4.76612 105.345 4.81649C105.301 4.86686 105.277 4.93265 105.28 4.99998V5.25998C105.289 5.3185 105.318 5.37219 105.361 5.4122C105.405 5.4522 105.461 5.47611 105.52 5.47998Z" fill="#F2F0EE"/>
<path d="M105.52 7.35005H108.52C108.585 7.34493 108.645 7.31497 108.687 7.26647C108.73 7.21798 108.753 7.15473 108.75 7.09005V6.82005C108.753 6.7872 108.749 6.75413 108.739 6.72275C108.729 6.69137 108.713 6.66229 108.691 6.6372C108.67 6.6121 108.644 6.59148 108.614 6.57653C108.585 6.56157 108.553 6.55257 108.52 6.55005H105.52C105.453 6.55518 105.39 6.58619 105.345 6.63656C105.301 6.68693 105.277 6.75272 105.28 6.82005V7.09005C105.279 7.12289 105.284 7.15566 105.295 7.18651C105.307 7.21736 105.324 7.24566 105.346 7.26981C105.368 7.29396 105.395 7.31348 105.425 7.32724C105.455 7.34101 105.487 7.34876 105.52 7.35005Z" fill="#F2F0EE"/>
<path d="M105.52 9.22992H108.52C108.553 9.23408 108.588 9.23135 108.62 9.22191C108.653 9.21247 108.683 9.1965 108.709 9.17499C108.735 9.15348 108.757 9.12687 108.772 9.09677C108.788 9.06667 108.797 9.03372 108.8 8.99992V8.68992C108.803 8.65707 108.799 8.624 108.789 8.59262C108.779 8.56124 108.762 8.53217 108.741 8.50707C108.72 8.48198 108.693 8.46136 108.664 8.4464C108.635 8.43144 108.603 8.42245 108.57 8.41992H105.57C105.503 8.42505 105.44 8.45606 105.395 8.50643C105.35 8.5568 105.327 8.62259 105.33 8.68992V8.99992C105.334 9.05313 105.355 9.10374 105.389 9.14488C105.423 9.18603 105.468 9.21572 105.52 9.22992Z" fill="#F2F0EE"/>
<path d="M105.52 11.1H108.52C108.553 11.0975 108.585 11.0885 108.614 11.0736C108.644 11.0586 108.67 11.038 108.691 11.0129C108.713 10.9878 108.729 10.9587 108.739 10.9273C108.749 10.896 108.753 10.8629 108.75 10.83V10.56C108.753 10.4954 108.73 10.4321 108.687 10.3836C108.645 10.3351 108.585 10.3052 108.52 10.3H105.52C105.487 10.3013 105.455 10.3091 105.425 10.3229C105.395 10.3366 105.368 10.3561 105.346 10.3803C105.324 10.4044 105.307 10.4327 105.295 10.4636C105.284 10.4944 105.279 10.5272 105.28 10.56V10.83C105.277 10.8974 105.301 10.9632 105.345 11.0135C105.39 11.0639 105.453 11.0949 105.52 11.1Z" fill="#F2F0EE"/>
<path d="M123.79 21.64C123.796 21.7378 123.822 21.8333 123.866 21.9209C123.91 22.0085 123.971 22.0863 124.046 22.1498C124.12 22.2132 124.207 22.261 124.301 22.2903C124.394 22.3195 124.493 22.3296 124.59 22.32L128.76 21.61C128.958 21.5645 129.13 21.4445 129.242 21.2751C129.354 21.1057 129.396 20.8998 129.36 20.7L126.81 1.13004C126.804 1.03227 126.778 0.936746 126.734 0.849174C126.69 0.761602 126.629 0.683771 126.554 0.620318C126.48 0.556864 126.393 0.509087 126.3 0.479833C126.206 0.45058 126.108 0.440448 126.01 0.450041L121.84 1.16004C121.642 1.20563 121.47 1.32557 121.358 1.49499C121.246 1.66441 121.204 1.87033 121.24 2.07004L123.79 21.64Z" fill="#7ACDD5"/>
<path d="M128.56 14.6201L123 15.5601L121.5 4.05011L127.07 3.11011L128.56 14.6201Z" fill="#FBF9DE"/>
<path d="M115.53 21.5299C115.519 21.7283 115.586 21.9232 115.717 22.0727C115.848 22.2222 116.032 22.3146 116.23 22.3299H120.45C120.65 22.3171 120.837 22.2258 120.97 22.076C121.103 21.9262 121.171 21.7299 121.16 21.5299V1.73994C121.171 1.53994 121.103 1.3437 120.97 1.19389C120.837 1.04408 120.65 0.952819 120.45 0.939941H116.23C116.032 0.95532 115.848 1.04767 115.717 1.1972C115.586 1.34673 115.519 1.54156 115.53 1.73994V21.5299Z" fill="#FF7639"/>
<path d="M119.87 13.81H116.82C116.753 13.8049 116.69 13.7739 116.645 13.7235C116.6 13.6731 116.577 13.6073 116.58 13.54V13.27C116.577 13.2027 116.6 13.1369 116.645 13.0865C116.69 13.0361 116.753 13.0051 116.82 13H119.87C119.903 13.0025 119.935 13.0115 119.964 13.0265C119.993 13.0414 120.02 13.0621 120.041 13.0871C120.062 13.1122 120.079 13.1413 120.089 13.1727C120.099 13.2041 120.103 13.2371 120.1 13.27V13.54C120.103 13.5729 120.099 13.6059 120.089 13.6373C120.079 13.6687 120.062 13.6978 120.041 13.7228C120.02 13.7479 119.993 13.7686 119.964 13.7835C119.935 13.7985 119.903 13.8075 119.87 13.81Z" fill="#F2F0EE"/>
<path d="M119.87 15.6799H116.82C116.753 15.6748 116.69 15.6437 116.645 15.5934C116.6 15.543 116.577 15.4772 116.58 15.4099V15.1399C116.578 15.107 116.584 15.0743 116.595 15.0434C116.606 15.0126 116.624 14.9843 116.646 14.9601C116.668 14.936 116.695 14.9165 116.725 14.9027C116.755 14.8889 116.787 14.8812 116.82 14.8799H119.87C119.902 14.8811 119.934 14.8889 119.963 14.9028C119.993 14.9167 120.019 14.9364 120.04 14.9607C120.062 14.985 120.078 15.0134 120.088 15.0442C120.099 15.075 120.103 15.1076 120.1 15.1399V15.4099C120.103 15.4427 120.099 15.4758 120.089 15.5072C120.079 15.5386 120.062 15.5676 120.041 15.5927C120.02 15.6178 119.993 15.6384 119.964 15.6534C119.935 15.6684 119.903 15.6774 119.87 15.6799Z" fill="#F2F0EE"/>
<path d="M119.87 17.55H116.82C116.753 17.5449 116.69 17.5138 116.645 17.4635C116.6 17.4131 116.577 17.3473 116.58 17.28V17C116.578 16.9672 116.584 16.9344 116.595 16.9035C116.606 16.8727 116.624 16.8444 116.646 16.8202C116.668 16.7961 116.695 16.7766 116.725 16.7628C116.755 16.749 116.787 16.7413 116.82 16.74H119.87C119.934 16.7451 119.994 16.7751 120.037 16.8236C120.08 16.8721 120.103 16.9353 120.1 17V17.27C120.104 17.3036 120.101 17.3378 120.092 17.3703C120.082 17.4029 120.066 17.4331 120.045 17.4593C120.023 17.4855 119.997 17.5071 119.967 17.5226C119.937 17.5382 119.904 17.5475 119.87 17.55Z" fill="#F2F0EE"/>
<path d="M119.87 19.4201H116.82C116.753 19.415 116.69 19.384 116.645 19.3336C116.6 19.2832 116.577 19.2174 116.58 19.1501V18.8901C116.577 18.8228 116.6 18.757 116.645 18.7066C116.69 18.6563 116.753 18.6252 116.82 18.6201H119.87C119.903 18.6226 119.935 18.6316 119.964 18.6466C119.993 18.6616 120.02 18.6822 120.041 18.7073C120.062 18.7324 120.079 18.7614 120.089 18.7928C120.099 18.8242 120.103 18.8573 120.1 18.8901V19.1501C120.103 19.183 120.099 19.216 120.089 19.2474C120.079 19.2788 120.062 19.3079 120.041 19.333C120.02 19.3581 119.993 19.3787 119.964 19.3936C119.935 19.4086 119.903 19.4176 119.87 19.4201Z" fill="#F2F0EE"/>
<path d="M135.61 24.3499C135.61 25.0299 135.23 25.5799 134.76 25.5799H86.6798C86.2098 25.5799 85.8398 25.0299 85.8398 24.3499V23.6299C85.8398 22.9499 86.2098 22.3999 86.6798 22.3999H134.76C135.23 22.3999 135.61 22.9499 135.61 23.6299V24.3499Z" fill="#564B42"/>
<path d="M113.95 45.9199H130.82V42.3599H113.95V45.9199Z" fill="#FBF9DE"/>
<path d="M130.23 45.9201C130.329 45.9175 130.423 45.8763 130.492 45.8053C130.562 45.7343 130.6 45.6392 130.6 45.5401V42.7201C130.598 42.6228 130.558 42.5301 130.489 42.4613C130.42 42.3924 130.328 42.3526 130.23 42.3501H114C114.053 42.2015 114.151 42.073 114.28 41.9817C114.409 41.8905 114.562 41.8411 114.72 41.8401H130.3C130.505 41.8401 130.702 41.9209 130.848 42.065C130.994 42.2091 131.078 42.405 131.08 42.6101V45.6101C131.078 45.8152 130.994 46.0111 130.848 46.1552C130.702 46.2993 130.505 46.3801 130.3 46.3801H114.67C114.513 46.3777 114.36 46.3277 114.231 46.2367C114.103 46.1456 114.005 46.0178 113.95 45.8701L130.23 45.9201Z" fill="#CA5F38"/>
<path d="M116.15 44.26H114.51V46.28L115.33 45.66L116.15 46.26V44.26Z" fill="#F09638"/>
<path d="M133.11 38.1599H117.78V41.3999H133.11V38.1599Z" fill="#FBF9DE"/>
<path d="M118.31 41.3999C118.222 41.3973 118.138 41.3604 118.076 41.2969C118.014 41.2334 117.98 41.1484 117.98 41.0599V38.4999C117.98 38.4115 118.014 38.3265 118.076 38.263C118.138 38.1995 118.222 38.1625 118.31 38.1599H133.11C133.061 38.0236 132.972 37.9056 132.854 37.8216C132.736 37.7375 132.595 37.6916 132.45 37.6899H118.24C118.053 37.6926 117.875 37.7685 117.744 37.9014C117.613 38.0343 117.54 38.2134 117.54 38.3999V41.1599C117.54 41.3456 117.614 41.5236 117.745 41.6549C117.876 41.7862 118.054 41.8599 118.24 41.8599H132.45C132.594 41.859 132.734 41.8146 132.851 41.7324C132.969 41.6503 133.059 41.5344 133.11 41.3999H118.31Z" fill="#002650"/>
<path d="M129.6 39.76H131.09V41.59L130.35 41.02L129.6 41.57V39.76Z" fill="#CA5F38"/>
<path d="M114.5 37.22H131.95V33.98H114.5V37.22Z" fill="#FBF9DE"/>
<path d="M131.41 37.23C131.5 37.23 131.587 37.1942 131.651 37.1304C131.714 37.0667 131.75 36.9802 131.75 36.89V34.32C131.748 34.2316 131.711 34.1477 131.647 34.086C131.584 34.0244 131.499 33.99 131.41 33.99H114.49C114.539 33.8537 114.629 33.7356 114.747 33.6516C114.865 33.5676 115.005 33.5217 115.15 33.52H131.48C131.667 33.52 131.846 33.5934 131.979 33.7244C132.112 33.8554 132.188 34.0335 132.19 34.22V37C132.19 37.0928 132.172 37.1846 132.136 37.2702C132.1 37.3558 132.048 37.4334 131.982 37.4986C131.916 37.5637 131.837 37.615 131.751 37.6496C131.665 37.6842 131.573 37.7013 131.48 37.7H115.15C115.007 37.6991 114.867 37.6546 114.749 37.5725C114.631 37.4904 114.541 37.3745 114.49 37.24L131.41 37.23Z" fill="#71593B"/>
<path d="M118 35.5801H116.51V37.4101L117.26 36.8501L118 37.4001V35.5801Z" fill="#CA5F38"/>
<path d="M86.0201 13.52L101.35 13.52V10.28L86.0201 10.28V13.52Z" fill="#FBF9DE"/>
<path d="M100.82 13.5199C100.91 13.5199 100.997 13.4841 101.06 13.4203C101.124 13.3565 101.16 13.2701 101.16 13.1799V10.6199C101.16 10.5297 101.124 10.4432 101.06 10.3795C100.997 10.3157 100.91 10.2799 100.82 10.2799H86C86.0481 10.1438 86.1376 10.0263 86.256 9.94375C86.3744 9.86123 86.5157 9.81791 86.66 9.81989H100.86C101.046 9.81989 101.224 9.89364 101.355 10.0249C101.486 10.1562 101.56 10.3342 101.56 10.5199V13.2799C101.561 13.3727 101.544 13.4648 101.51 13.5508C101.475 13.6369 101.424 13.7153 101.359 13.7813C101.293 13.8474 101.216 13.8999 101.13 13.9357C101.045 13.9715 100.953 13.9899 100.86 13.9899H86.69C86.5445 13.9912 86.4023 13.9464 86.2837 13.862C86.1652 13.7776 86.0764 13.6578 86.03 13.5199H100.82Z" fill="#002650"/>
<path d="M89.53 11.8799H88.04V13.7099L88.79 13.1399L89.53 13.6899V11.8799Z" fill="#CA5F38"/>
<path d="M104.2 6.11011H86.75V9.35011H104.2V6.11011Z" fill="#FBF9DE"/>
<path d="M87.2901 9.34989C87.2071 9.33762 87.1315 9.29509 87.078 9.23047C87.0245 9.16586 86.9967 9.08373 87.0001 8.99989V6.44989C87.0001 6.35972 87.0359 6.27324 87.0997 6.20948C87.1634 6.14571 87.2499 6.10989 87.3401 6.10989H104.26C104.211 5.97359 104.122 5.85551 104.004 5.7715C103.886 5.68749 103.745 5.64157 103.6 5.63989H87.2201C87.1273 5.63988 87.0355 5.65832 86.9499 5.69412C86.8643 5.72992 86.7867 5.78238 86.7216 5.84844C86.6564 5.9145 86.6051 5.99286 86.5705 6.07894C86.5359 6.16503 86.5188 6.25713 86.5201 6.34989V9.10989C86.5188 9.20266 86.5359 9.29476 86.5705 9.38084C86.6051 9.46693 86.6564 9.54528 86.7216 9.61134C86.7867 9.67741 86.8643 9.72987 86.9499 9.76567C87.0355 9.80147 87.1273 9.8199 87.2201 9.81989H103.55C103.695 9.81821 103.836 9.77229 103.954 9.68828C104.072 9.60427 104.161 9.4862 104.21 9.34989H87.2901Z" fill="#71593B"/>
<path d="M100.7 7.70996H102.19V9.53996L101.45 8.96996L100.7 9.51996V7.70996Z" fill="#CA5F38"/>
<path d="M104.06 18.6201H88.73V21.8601H104.06V18.6201Z" fill="#FBF9DE"/>
<path d="M89.2702 21.86C89.1818 21.8601 89.0968 21.8256 89.0333 21.764C88.9698 21.7024 88.9328 21.6185 88.9302 21.53V19C88.9302 18.9098 88.9661 18.8234 89.0298 18.7596C89.0936 18.6958 89.1801 18.66 89.2702 18.66H104.06C104.011 18.5248 103.921 18.4081 103.803 18.3257C103.685 18.2434 103.544 18.1995 103.4 18.2H89.2002C89.1075 18.1987 89.0154 18.2158 88.9293 18.2504C88.8432 18.285 88.7648 18.3363 88.6988 18.4015C88.6327 18.4666 88.5803 18.5442 88.5445 18.6298C88.5087 18.7154 88.4902 18.8072 88.4902 18.9V21.67C88.4929 21.8566 88.5688 22.0346 88.7017 22.1656C88.8346 22.2966 89.0136 22.37 89.2002 22.37H103.4C103.545 22.3698 103.687 22.3244 103.805 22.2402C103.923 22.156 104.013 22.0371 104.06 21.9L89.2702 21.86Z" fill="#002650"/>
<path d="M100.55 20.22H102.05V22.05L101.3 21.48L100.55 22.04V20.22Z" fill="#CA5F38"/>
<path d="M85.4499 17.6899L102.9 17.6899V14.4499L85.4499 14.4499V17.6899Z" fill="#FBF9DE"/>
<path d="M102.37 17.69C102.46 17.69 102.547 17.6542 102.611 17.5904C102.674 17.5266 102.71 17.4402 102.71 17.35V14.79C102.71 14.6998 102.674 14.6133 102.611 14.5496C102.547 14.4858 102.46 14.45 102.37 14.45H85.4502C85.4996 14.3148 85.5894 14.198 85.7075 14.1157C85.8256 14.0334 85.9662 13.9895 86.1102 13.99H102.44C102.626 13.99 102.804 14.0637 102.935 14.195C103.066 14.3263 103.14 14.5043 103.14 14.69V17.45C103.142 17.5428 103.124 17.6349 103.09 17.7209C103.055 17.807 103.004 17.8854 102.939 17.9514C102.874 18.0175 102.796 18.07 102.71 18.1058C102.625 18.1416 102.533 18.16 102.44 18.16H86.1102C85.965 18.1598 85.8235 18.1144 85.7053 18.0302C85.587 17.946 85.4979 17.8271 85.4502 17.69H102.37Z" fill="#71593B"/>
<path d="M88.96 16.05H87.46V17.88L88.21 17.31L88.96 17.8601V16.05Z" fill="#CA5F38"/>
<path d="M178.7 100.86H183.91V102.71C183.91 102.8 183.874 102.887 183.811 102.951C183.747 103.014 183.66 103.05 183.57 103.05H179C178.91 103.05 178.823 103.014 178.76 102.951C178.696 102.887 178.66 102.8 178.66 102.71V100.86H178.7Z" fill="#753F3F"/>
<path d="M165.93 100.86H171.14V102.71C171.14 102.8 171.104 102.887 171.04 102.951C170.977 103.014 170.89 103.05 170.8 103.05H166.26C166.17 103.05 166.083 103.014 166.02 102.951C165.956 102.887 165.92 102.8 165.92 102.71V100.86H165.93Z" fill="#753F3F"/>
<path d="M128.6 100.25H133.81V102.1C133.81 102.19 133.774 102.277 133.71 102.34C133.647 102.404 133.56 102.44 133.47 102.44H128.93C128.84 102.44 128.753 102.404 128.689 102.34C128.626 102.277 128.59 102.19 128.59 102.1V100.25H128.6Z" fill="#753F3F"/>
<path d="M165.49 76.8401H133.94V99.4501H165.49V76.8401Z" fill="#FA4136"/>
<path d="M162.98 72.6699H136.54V79.7299H162.98V72.6699Z" fill="#C42D14"/>
<path d="M184.56 101.34H167.89C166.981 101.337 166.11 100.975 165.467 100.333C164.825 99.6898 164.463 98.8189 164.46 97.91L169.33 76.73C169.33 74.84 173.87 73.3 175.76 73.3H184.56C186.46 73.3 186.99 74.84 186.99 76.73V97.91C187 99.8 186.46 101.34 184.56 101.34Z" fill="#D33916"/>
<path d="M143.92 75.1501H129.54V58.0701H150.12L143.92 75.1501Z" fill="#D33916"/>
<path d="M123.61 66.2201C123.61 70.7201 126.34 74.3601 129.71 74.3601C133.08 74.3601 135.81 70.7201 135.81 66.2201C135.81 61.7201 133.08 58.0701 129.71 58.0701C126.34 58.0701 123.61 61.7201 123.61 66.2201Z" fill="#FA4136"/>
<path d="M131.21 101.34C132.429 101.337 133.598 100.852 134.46 99.9897C135.322 99.1276 135.807 97.9591 135.81 96.7399V67.2899C135.807 66.0708 135.322 64.9023 134.46 64.0402C133.598 63.1781 132.429 62.6926 131.21 62.6899C129.991 62.6926 128.822 63.1781 127.96 64.0402C127.098 64.9023 126.613 66.0708 126.61 67.2899V96.7399C126.613 97.9591 127.098 99.1276 127.96 99.9897C128.822 100.852 129.991 101.337 131.21 101.34Z" fill="#FA4136"/>
<path d="M146.14 72.6701H181L185.75 34.1001H154.79C153.739 34.0329 152.702 34.3771 151.9 35.0601C151.097 35.7431 150.592 36.7113 150.49 37.7601L146.14 72.6701Z" fill="#FF6339"/>
<path d="M190.88 38.16L186.88 72.79C186.74 74.17 185.41 74.88 183.88 74.38L182.17 74.54C180.66 74.04 179.92 74.69 180.06 73.3L184.06 35.55C184.2 34.16 185.54 33.45 187.06 33.95L188.38 34.76C189.107 34.9833 189.742 35.4344 190.192 36.0468C190.642 36.6591 190.884 37.4 190.88 38.16Z" fill="#DF4215"/>
<path d="M181.31 75.2201L167.92 75.1501V58.0701H181.73L182.73 60.0701C183.814 62.1131 184.391 64.3872 184.41 66.7001V67.1301C184.353 69.8606 183.486 72.5127 181.92 74.7501L181.31 75.2201Z" fill="#D33916"/>
<path d="M196.77 84.0801H197.54L194.12 57.8701C194.12 57.8701 194.54 49.3001 184.36 47.5901C184.36 47.5901 183.57 59.7801 193.29 58.4001L196.77 84.0801Z" fill="#2AAEAA"/>
<path d="M194.54 60.7701C194.54 60.7701 194.18 52.4001 200.73 51.8601C200.73 51.8601 204.44 60.3801 194.54 60.7701Z" fill="#2AAEAA"/>
<path d="M194 63.33C194 63.33 189.94 56.79 182.83 60.33C182.8 60.31 185.87 69.15 194 63.33Z" fill="#2AAEAA"/>
<path d="M195.14 66.3699C195.14 66.3699 196.96 59.3699 203.6 60.2899C203.6 60.2899 204 68.4399 195.14 66.3699Z" fill="#2AAEAA"/>
<path d="M196.12 72.6901C196.12 72.6901 197.81 66.1901 203.97 67.0501C204 67.0501 204.37 74.6101 196.12 72.6901Z" fill="#2AAEAA"/>
<path d="M194.81 70.0801C194.81 70.0801 190 65.1701 185.61 70.7601C185.61 70.7601 192.48 76.2301 194.81 70.0801Z" fill="#2AAEAA"/>
<path d="M202.52 87.0001H201.89L204.71 65.3401C204.71 65.3401 204.36 58.2501 212.78 56.8401C212.78 56.8401 213.43 66.9101 205.4 65.7701L202.52 87.0001Z" fill="#228586"/>
<path d="M204.36 67.7001C204.36 67.7001 204.66 60.7701 199.24 60.3301C199.24 60.3301 196.18 67.3701 204.36 67.7001Z" fill="#228586"/>
<path d="M204.84 69.82C204.84 69.82 208.2 64.4 214.07 67.32C214.07 67.32 211.53 74.62 204.84 69.82Z" fill="#228586"/>
<path d="M203.87 72.3199C203.87 72.3199 202.36 66.5199 196.87 67.3199C196.88 67.2999 196.51 73.9999 203.87 72.3199Z" fill="#228586"/>
<path d="M203.06 77.5501C203.06 77.5501 201.66 72.17 196.57 72.89C196.57 72.89 196.24 79.1401 203.06 77.5501Z" fill="#228586"/>
<path d="M204.14 75.3899C204.14 75.3899 208.14 71.3899 211.75 75.9499C211.75 75.9999 206.07 80.4799 204.14 75.3899Z" fill="#228586"/>
<path d="M190.21 83.4199H207.95L206.95 102.45H191.21L190.21 83.4199Z" fill="#716558"/>
<path d="M157.72 48.37H157.8C157.7 48.37 157.54 48.27 157.55 48.16L157.82 45.54C157.828 45.4913 157.854 45.4474 157.893 45.4175C157.932 45.3877 157.981 45.3742 158.03 45.38H158.11C158.159 45.385 158.204 45.4086 158.235 45.4459C158.267 45.4831 158.283 45.5312 158.28 45.58L158 48.2C158 48.31 157.82 48.38 157.72 48.37Z" fill="#2D3444"/>
<path d="M130.41 74.3201L122.89 97.4801L125.66 97.7001C126.32 94.2201 134.74 86.7701 133.93 78.7601C133.704 78.1433 133.612 77.4853 133.66 76.8301L131.29 75.3401L130.41 74.3201Z" fill="#E8A55B"/>
<path d="M153.42 75.2099L151.72 66.1399C146.63 67.1399 131.1 73.4199 131.1 73.4199L130.75 73.6199C130.509 73.7659 130.319 73.9821 130.204 74.2396C130.09 74.497 130.057 74.7832 130.11 75.0599L130.88 79.1599C134.58 78.4399 149.47 75.5399 153.42 75.2099Z" fill="#E8A55B"/>
<path d="M138.14 76.0001C137.79 77.1501 131.05 97.6301 131.05 97.6301H133.84C135.99 91.4001 142.68 89.2501 142.46 77.3701C142.46 77.3701 143.46 75.8001 143.75 75.0601L138.54 75.3901C138.435 75.6107 138.3 75.8159 138.14 76.0001Z" fill="#FCBB6E"/>
<path d="M161.74 75.8701L159 66.8201C157.41 67.8201 145.71 71.9501 140 73.9701C139.338 74.2027 138.791 74.6822 138.475 75.3083C138.158 75.9345 138.095 76.6589 138.3 77.3301L138.99 79.6301C139.734 79.4104 140.493 79.2433 141.26 79.1301C142 79.0601 152.63 78.8201 161.74 75.8701Z" fill="#FCBB6E"/>
<path d="M155.34 77.26H159.62C160.463 77.2571 161.294 77.0629 162.051 76.6921C162.809 76.3212 163.472 75.7833 163.991 75.1189C164.509 74.4545 164.871 73.681 165.047 72.8567C165.224 72.0323 165.211 71.1787 165.01 70.36C164.607 68.5349 163.886 66.795 162.88 65.22C162.166 63.722 161.67 62.129 161.41 60.49H151.17C151.17 60.49 146.05 70.31 146.11 77.26H155.34Z" fill="#FCBB6E"/>
<path d="M151.08 59.8501C151.08 59.8501 150.08 60.5001 148.66 64.2001C148.544 64.5214 148.357 64.8124 148.113 65.0513C147.869 65.2902 147.574 65.471 147.25 65.5801C142.776 67.3603 138.475 69.5461 134.4 72.1101L139.72 72.6501C142.08 73.2701 145.18 74.6501 145.84 77.0101L146.37 79.8001C153.75 77.8601 166.14 78.9901 165.53 71.5501C165.19 67.5501 164.83 63.7401 161.32 59.8501H151.08Z" fill="#3B2D3C"/>
<path d="M150.4 39.26C149.105 39.5711 147.961 40.3289 147.17 41.4C145.72 43.26 141.47 53.97 139.17 53.78C134.91 53.43 128.93 56.88 128.17 56.86L128.66 59.2C128.66 59.2 134 58.38 140 58.05C145 57.79 148.6 49.56 149.5 48.36L150.4 39.26Z" fill="#FFC952"/>
<path d="M143.17 56.8599C143.17 56.8599 147.83 52.9299 148.85 49.1199C149 48.5599 149.95 46.3899 149.95 46.3899L148.87 45.3899C148.75 46.6499 145.52 52.1199 144.87 53.2399L143.17 56.8599Z" fill="#F7B64D"/>
<path d="M164.91 39.9999H164.73L159 37.6799C159 37.6799 154.83 43.0099 154.28 42.7799C152.77 42.7799 155.13 38.8499 153.73 38.9299C153.73 38.7399 153.78 38.6299 153.78 38.6299L152.09 39.0399C151.531 39.0635 150.976 39.1371 150.43 39.2599L149.3 46.2599C147.22 49.7099 149.08 51.0599 149.08 51.0599L149.16 51.2299H149.62L149.76 51.6599L151.15 59.8199H161.39L163.8 48.8999C163.8 48.8999 163.88 48.5799 164 48.0699C164.41 45.9999 165.58 40.5599 164.91 39.9999Z" fill="#FFC250"/>
<path d="M160.73 37.1399H159.05L156.86 32.6799L159.95 23.6799L165.84 28.6799C165.84 28.6799 168.56 36.9999 160.73 37.1399Z" fill="#532315"/>
<path d="M149.37 25.3301C149.37 25.3301 145.37 34.7501 149.97 37.7801C149.97 37.7801 152.75 36.6601 154.25 37.7801L159.7 29.2701L149.37 25.3301Z" fill="#742E1D"/>
<path d="M159 38.1299C159.079 38.0424 159.14 37.9396 159.178 37.8278C159.215 37.7159 159.23 37.5975 159.22 37.4799L159.05 34.4799L159 33.3799L154.79 36.1299C154.67 36.2082 154.57 36.3147 154.501 36.4402C154.431 36.5657 154.393 36.7063 154.39 36.8499C154.39 37.4399 154.3 38.4199 153.8 38.6299L153.48 41.3399V41.5299V41.9799C153.495 42.1517 153.561 42.3153 153.668 42.4502C153.776 42.5851 153.921 42.6855 154.085 42.7388C154.249 42.792 154.425 42.7959 154.591 42.7499C154.758 42.7039 154.907 42.61 155.02 42.4799L159 38.1299Z" fill="#E8A55B"/>
<path d="M158.6 34.81C158.6 34.81 156.68 37.81 154.25 37.81C154.25 37.81 154.25 37.01 154.33 36.44C154.41 35.87 158.08 33.28 158.6 34.81Z" fill="#CA5F38"/>
<path d="M149.43 24.4299C149.237 26.6124 149.237 28.8075 149.43 30.9899C149.79 32.7499 151.43 36.1299 152.65 36.3899C154.177 36.5149 155.711 36.2523 157.109 35.6265C158.508 35.0007 159.726 34.0319 160.65 32.8099C160.922 32.3524 161.134 31.8617 161.28 31.3499C161.43 30.6699 161.85 27.3499 161.85 27.3499C161.85 27.3499 164.09 21.2599 160.6 20.1199C157.11 18.9799 149.53 18.6699 149.43 24.4299Z" fill="#E8A55B"/>
<path d="M153.2 31.1401C153.227 31.1401 153.252 31.1296 153.271 31.1108C153.289 31.0921 153.3 31.0666 153.3 31.0401C153.3 31.0136 153.289 30.9882 153.271 30.9694C153.252 30.9506 153.227 30.9401 153.2 30.9401C152.98 30.9401 152.2 30.6601 152.09 30.2601C152.03 30.0901 152.09 29.9101 152.29 29.7101C152.826 29.0832 153.173 28.3167 153.29 27.5001C153.29 27.4401 153.29 27.3901 153.2 27.3901C153.175 27.3871 153.15 27.3937 153.129 27.4085C153.109 27.4234 153.095 27.4454 153.09 27.4701C152.981 28.2466 152.651 28.9754 152.14 29.5701C152.031 29.6603 151.952 29.7804 151.911 29.9155C151.87 30.0507 151.87 30.1948 151.91 30.3301C152.09 30.8401 152.96 31.1101 153.18 31.1401H153.2Z" fill="#A87C4F"/>
<path d="M161.35 30.9999C161.35 30.9999 162.29 31.9299 163.26 30.5699C164.23 29.2099 164.32 27.7999 163.61 27.1799C163.46 27.0467 163.28 26.9513 163.085 26.9016C162.891 26.852 162.687 26.8496 162.492 26.8946C162.296 26.9396 162.114 27.0307 161.96 27.1604C161.807 27.29 161.687 27.4544 161.61 27.6399C161.351 28.7399 161.264 29.8732 161.35 30.9999Z" fill="#E8A55B"/>
<path d="M156.07 27.5801C156.05 27.6722 156.05 27.7677 156.072 27.8596C156.093 27.9514 156.135 28.0373 156.194 28.1109C156.253 28.1845 156.328 28.2439 156.413 28.2847C156.498 28.3255 156.591 28.3467 156.685 28.3467C156.78 28.3467 156.873 28.3255 156.958 28.2847C157.043 28.2439 157.118 28.1845 157.177 28.1109C157.236 28.0373 157.277 27.9514 157.299 27.8596C157.32 27.7677 157.321 27.6722 157.3 27.5801C157.302 27.3661 157.223 27.1593 157.08 27.0001C157.029 26.9442 156.968 26.8994 156.899 26.8685C156.83 26.8375 156.756 26.821 156.68 26.8201C156.5 26.8427 156.335 26.9346 156.221 27.0765C156.107 27.2183 156.053 27.399 156.07 27.5801Z" fill="#532315"/>
<path d="M156.68 26.8199C156.68 26.8199 156.05 26.8199 155.88 26.4499C155.78 26.2499 155.56 27.2699 156.67 27.1799L156.68 26.8199Z" fill="#532315"/>
<path d="M150.47 27.6399C150.453 27.821 150.507 28.0016 150.621 28.1435C150.735 28.2853 150.899 28.3773 151.08 28.3999C151.262 28.3797 151.429 28.2888 151.545 28.1466C151.661 28.0045 151.717 27.8225 151.7 27.6399C151.701 27.4259 151.623 27.2191 151.48 27.0599C151.428 27.005 151.367 26.9608 151.298 26.9299C151.229 26.899 151.155 26.882 151.08 26.8799C150.899 26.9025 150.735 26.9944 150.621 27.1363C150.507 27.2782 150.453 27.4588 150.47 27.6399Z" fill="#532315"/>
<path d="M151.08 26.88C151.08 26.88 150.45 26.88 150.27 26.51C150.09 26.14 149.96 27.33 151.06 27.24L151.08 26.88Z" fill="#532315"/>
<path d="M163.42 28C163.42 28 162.22 27.31 161.9 28.43C161.58 29.55 161.8 29.96 162.15 30.15C162.5 30.34 162.82 29.85 162.53 29.52C162.401 29.4021 162.293 29.2635 162.21 29.11C162.07 28.77 162.53 28.29 162.81 28.11C162.92 28.06 163.3 27.9 163.42 28Z" fill="#F28D50"/>
<path d="M149.37 25.33C149.37 25.33 147.53 23.78 148.88 20.51C150.23 17.24 153.58 17.07 155.96 18.01C155.96 18.01 164.37 14.85 164.85 22.73L163.61 27.22C163.61 27.22 156.76 24.72 156.04 20.66C156 20.66 151.31 21.13 149.37 25.33Z" fill="#8C3827"/>
<path d="M159.7 24.8799C161.83 26.1999 160.7 29.1199 161.32 28.6399C161.32 28.6399 162.1 26.3199 162.88 26.2399C163.66 26.1599 159.7 24.8799 159.7 24.8799Z" fill="#742E1D"/>
<path d="M156 19.2801C156 19.2801 153.45 17.4801 151.12 18.5101C149.12 19.4001 148.89 20.4201 148.69 21.1601C148.514 21.6023 148.426 22.0743 148.43 22.5501C148.43 22.5501 151.96 17.7201 155.96 19.7201L156 19.2801Z" fill="#A35233"/>
<path d="M167.1 36.46C169.01 32.97 167.1 19.46 162.7 18.46C169.7 31.07 163.93 38.17 163.9 38.2C164.548 38.2726 165.202 38.1447 165.774 37.8335C166.346 37.5223 166.809 37.0428 167.1 36.46Z" fill="#742E1D"/>
<path d="M162.7 18.4499C158.27 17.4499 160.53 25.8499 160.53 25.8499C160.53 25.8499 167.29 33.9699 160.73 37.1399C161.702 37.6989 162.783 38.0401 163.9 38.1399C163.9 38.1399 169.71 31.0599 162.7 18.4499Z" fill="#8C3827"/>
<path d="M160.14 51.6501C160.14 51.6501 160.07 51.7001 159.97 51.7301C159.87 51.7601 159.52 51.8001 159.31 51.8301C158.436 51.9435 157.566 52.0001 156.7 52.0001C155.521 52.0431 154.343 51.898 153.21 51.5701C152.804 51.4366 152.366 51.4366 151.96 51.5701C151.552 51.7454 151.113 51.8372 150.67 51.8401C150.322 51.843 149.978 51.7606 149.67 51.6001C149.248 51.3658 148.895 51.0242 148.647 50.6097C148.4 50.1953 148.266 49.7228 148.26 49.2401C149.239 49.3549 150.177 49.6974 151 50.2401C151.541 50.4706 152.065 50.7379 152.57 51.0401C152.837 50.8887 153.092 50.7147 153.33 50.5201C153.866 50.148 154.427 49.8139 155.01 49.5201C155.439 49.3064 155.897 49.1549 156.37 49.0701C157.942 48.9 159.44 48.3131 160.71 47.3701C160.56 48.3701 160.4 49.4601 160.24 50.5101C160.24 50.7901 160.18 51.0701 160.15 51.3601C160.176 51.4555 160.173 51.5568 160.14 51.6501Z" fill="#F7B64D"/>
<path d="M161 47.3601C161 47.3601 160 57.7901 159.56 58.2801C159.12 58.7701 149.65 68.2801 149.65 68.2801C150.078 69.0776 150.573 69.837 151.13 70.5501C151.13 70.5501 159.55 66.7201 163.13 61.4301C163.13 61.4301 165.37 59.2501 166.22 52.0201C167.07 44.7901 167.34 43.8801 167.06 42.8601C165.77 38.1501 161.63 38.5801 161 47.3601Z" fill="#FFC952"/>
<path d="M156 19.05C156 19.05 157.46 23.5701 161.36 24.8701C161.32 24.8701 160.17 19.51 156 19.05Z" fill="#A35233"/>
<path d="M158.69 26.24C158.156 25.9076 157.572 25.6644 156.96 25.52C156.243 25.463 155.521 25.517 154.82 25.68C154.52 25.83 154.67 25.44 155.1 25.16C155.457 24.9475 155.862 24.8304 156.277 24.8199C156.692 24.8094 157.103 24.9058 157.47 25.1C157.88 25.3423 158.277 25.606 158.66 25.89C159 26.19 158.69 26.24 158.69 26.24Z" fill="#A35233"/>
<path d="M152.49 25.33C152.49 25.33 152.81 25.74 152.6 25.79C152.39 25.84 151.04 25.15 150.16 25.46C149.28 25.77 149.33 26.02 149.33 26.02V25.76C149.491 25.5173 149.704 25.3127 149.953 25.1607C150.201 25.0087 150.48 24.9129 150.77 24.88C152.11 24.72 152.49 25.33 152.49 25.33Z" fill="#A35233"/>
<path d="M155 32.74C155 32.74 151.06 32.02 151.58 32.9C152.3 34.05 154.14 33.63 155 32.74Z" fill="#CA5F38"/>
<path d="M148.48 69.42C148.136 69.5458 147.776 69.62 147.41 69.64C146.705 69.7381 145.992 69.7715 145.28 69.74C145.16 69.74 145.42 70.14 145.46 70.16C145.63 70.2787 145.833 70.3415 146.04 70.34C145.58 70.34 145.04 71.21 144.83 71.53C144.628 71.8578 144.501 72.2269 144.46 72.61C144.46 72.85 144.29 73.61 144.64 73.61C144.61 73.7225 144.617 73.8417 144.661 73.9498C144.704 74.058 144.781 74.1492 144.88 74.21C144.855 74.3118 144.855 74.4182 144.88 74.52C144.95 74.8 145.37 74.87 145.59 74.74C145.731 74.6532 145.848 74.5329 145.93 74.39C146.08 74.19 146.21 73.99 146.34 73.79C146.47 73.59 146.77 72.94 146.95 72.87C147.296 72.823 147.633 72.7253 147.95 72.58C147.95 72.58 149.24 71.89 149.86 71.44C150.48 70.99 150.33 70.99 150.45 70.5C150.45 70.27 150.86 70.25 150.86 70.12L149.81 68.48L148.48 69.42Z" fill="#FBBA6F"/>
<path d="M126.47 58.0901C126.47 58.0901 125.64 58.2901 124.53 59.9701C123.974 60.659 123.559 61.4508 123.31 62.3001C123.288 63.0328 123.454 63.7589 123.79 64.4101C123.79 64.4101 124.5 65.2001 124.56 63.8001C124.583 63.5406 124.583 63.2796 124.56 63.0201C124.525 62.7777 124.539 62.5308 124.601 62.2938C124.663 62.0568 124.771 61.8346 124.92 61.6401C125.024 61.5193 125.106 61.3803 125.16 61.2301C125.534 60.9537 125.949 60.7377 126.39 60.5901C127.125 60.3521 127.825 60.0157 128.47 59.5901C129.05 59.1001 129.04 58.7301 129.04 58.7301L129.31 58.5501L128.69 57.3501C128.35 57.6501 127.6 57.6501 126.55 58.0701L126.47 58.0901Z" fill="#FBBA6F"/>
<path d="M128.21 59.6699C128.21 59.6699 128.41 60.4899 126.79 62.5799C126.18 63.3599 125.79 62.7899 126.62 60.3299C127.45 57.8699 128.21 59.6699 128.21 59.6699Z" fill="#FBBA6F"/>
<path d="M169.08 74.3701C172.449 74.3701 175.18 70.7212 175.18 66.2201C175.18 61.7189 172.449 58.0701 169.08 58.0701C165.711 58.0701 162.98 61.7189 162.98 66.2201C162.98 70.7212 165.711 74.3701 169.08 74.3701Z" fill="#FA4136"/>
<path d="M167.58 101.34C166.361 101.337 165.192 100.852 164.33 99.9897C163.468 99.1276 162.983 97.9591 162.98 96.7399V67.2899C162.983 66.0708 163.468 64.9023 164.33 64.0402C165.192 63.1781 166.361 62.6926 167.58 62.6899C168.799 62.6926 169.968 63.1781 170.83 64.0402C171.692 64.9023 172.177 66.0708 172.18 67.2899V96.7399C172.177 97.9591 171.692 99.1276 170.83 99.9897C169.968 100.852 168.799 101.337 167.58 101.34Z" fill="#FA4136"/>
<path d="M109.19 46.5999H102.19C102.028 46.5999 101.873 46.5356 101.759 46.4212C101.644 46.3068 101.58 46.1517 101.58 45.9899C101.58 45.8281 101.644 45.6729 101.759 45.5585C101.873 45.4442 102.028 45.3799 102.19 45.3799H109.19C109.352 45.3799 109.507 45.4442 109.621 45.5585C109.736 45.6729 109.8 45.8281 109.8 45.9899C109.8 46.1517 109.736 46.3068 109.621 46.4212C109.507 46.5356 109.352 46.5999 109.19 46.5999Z" fill="#03848B"/>
<path d="M105.7 44.7101C108.71 44.7101 111.15 42.27 111.15 39.2601C111.15 36.2501 108.71 33.8101 105.7 33.8101C102.69 33.8101 100.25 36.2501 100.25 39.2601C100.25 42.27 102.69 44.7101 105.7 44.7101Z" fill="white"/>
<path d="M105.38 35.18C105.38 35.18 105.38 35.25 105.44 35.25H105.55V35.31H105V35.25H105.11C105.127 35.2476 105.142 35.2392 105.153 35.2263C105.164 35.2134 105.17 35.197 105.17 35.18V34.45C105.107 34.4838 105.04 34.5106 104.97 34.53C105.094 34.4664 105.206 34.3819 105.3 34.28H105.39L105.38 35.18Z" fill="#03848B"/>
<path d="M105.73 35.2499L105.81 35.1599C106.09 34.8799 106.21 34.6899 106.18 34.5899C106.15 34.4899 106.12 34.3799 106.01 34.3699C105.959 34.3747 105.912 34.3976 105.878 34.4344C105.843 34.4711 105.822 34.5193 105.82 34.5699H105.75C105.75 34.3499 105.9 34.2499 106.09 34.2399C106.128 34.2385 106.167 34.2451 106.203 34.2591C106.238 34.2732 106.271 34.2945 106.298 34.3218C106.325 34.349 106.347 34.3815 106.361 34.4173C106.375 34.4531 106.381 34.4915 106.38 34.5299C106.38 34.6499 106.31 34.7699 106.15 34.9099C106.069 34.9754 105.995 35.0492 105.93 35.1299H106.24C106.257 35.1313 106.273 35.1292 106.289 35.1238C106.305 35.1184 106.319 35.1098 106.331 35.0985C106.344 35.0872 106.353 35.0735 106.36 35.0583C106.367 35.043 106.37 35.0266 106.37 35.0099V35.3099H105.71L105.73 35.2499Z" fill="#03848B"/>
<path d="M108.07 35.82C108.07 35.82 108.07 35.89 108.13 35.89H108.24V36H107.7V35.94H107.81C107.827 35.9375 107.842 35.9291 107.853 35.9162C107.864 35.9034 107.87 35.8869 107.87 35.87V35.14C107.808 35.1777 107.741 35.2048 107.67 35.22C107.797 35.1565 107.912 35.072 108.01 34.97H108.1L108.07 35.82Z" fill="#03848B"/>
<path d="M109.13 37.4601C109.151 37.4253 109.178 37.3948 109.21 37.3701C109.48 37.0901 109.61 36.9001 109.58 36.8001C109.55 36.7001 109.52 36.5901 109.41 36.5801C109.36 36.5825 109.313 36.6033 109.278 36.6385C109.243 36.6736 109.222 36.7205 109.22 36.7701H109.15C109.152 36.6834 109.188 36.6009 109.249 36.5396C109.311 36.4782 109.393 36.4426 109.48 36.4401C109.52 36.4387 109.559 36.4455 109.596 36.4601C109.633 36.4747 109.667 36.4967 109.695 36.5249C109.723 36.553 109.745 36.5867 109.76 36.6237C109.774 36.6607 109.781 36.7004 109.78 36.7401C109.78 36.8501 109.71 36.9801 109.55 37.1101C109.471 37.1813 109.397 37.2581 109.33 37.3401H109.64C109.72 37.3401 109.76 37.3401 109.77 37.2101V37.5101H109.11L109.13 37.4601Z" fill="#03848B"/>
<path d="M105.94 43.2099C105.847 43.2427 105.764 43.2999 105.701 43.3756C105.638 43.4512 105.596 43.5425 105.58 43.6399C105.628 43.601 105.688 43.5798 105.75 43.5799C105.791 43.5797 105.831 43.5881 105.868 43.6045C105.906 43.6209 105.939 43.645 105.966 43.6752C105.994 43.7054 106.014 43.741 106.027 43.7797C106.04 43.8184 106.044 43.8594 106.04 43.8999C106.041 43.9449 106.033 43.9898 106.017 44.0316C106 44.0735 105.975 44.1116 105.943 44.1434C105.912 44.1753 105.873 44.2003 105.832 44.2169C105.79 44.2335 105.745 44.2413 105.7 44.2399C105.467 44.2399 105.347 44.0999 105.34 43.8199C105.338 43.6594 105.395 43.5038 105.5 43.3824C105.605 43.2609 105.751 43.1818 105.91 43.1599L105.94 43.2099ZM105.7 43.6599C105.648 43.6626 105.598 43.6839 105.56 43.7199V43.8699C105.56 44.0899 105.56 44.1899 105.69 44.1899C105.82 44.1899 105.83 44.0999 105.82 43.9199C105.81 43.7399 105.79 43.6499 105.7 43.6599Z" fill="#03848B"/>
<path d="M103.69 42.71H103.35C103.321 42.7001 103.289 42.7001 103.26 42.71C103.253 42.724 103.25 42.7394 103.25 42.755C103.25 42.7706 103.253 42.7861 103.26 42.8H103.2V42.51H103.88V42.58L103.5 43.58H103.33L103.69 42.71Z" fill="#03848B"/>
<path d="M102 41.5601C102.062 41.5838 102.117 41.6245 102.157 41.6774C102.198 41.7304 102.223 41.7936 102.23 41.8601C102.222 41.9458 102.181 42.0252 102.116 42.0813C102.051 42.1374 101.966 42.1656 101.88 42.1601C101.67 42.1601 101.56 42.0601 101.54 41.8901C101.52 41.7201 101.61 41.7001 101.75 41.6401C101.697 41.614 101.651 41.5745 101.618 41.5254C101.584 41.4762 101.564 41.4193 101.56 41.3601C101.56 41.1801 101.68 41.0901 101.88 41.0701C102.08 41.0501 102.18 41.1701 102.2 41.3201C102.22 41.4701 102.18 41.5001 102 41.5601ZM101.81 41.6801C101.778 41.7019 101.753 41.7321 101.737 41.7674C101.721 41.8027 101.715 41.8417 101.72 41.8801C101.72 42.0301 101.78 42.1001 101.89 42.1101C101.913 42.1115 101.935 42.1081 101.957 42.1001C101.978 42.0921 101.997 42.0796 102.013 42.0635C102.029 42.0474 102.042 42.0281 102.05 42.0068C102.058 41.9855 102.061 41.9628 102.06 41.9401C102.12 41.8501 102 41.7701 101.85 41.6801H101.81ZM101.87 41.1301C101.851 41.13 101.832 41.1339 101.814 41.1416C101.796 41.1492 101.78 41.1605 101.767 41.1745C101.754 41.1886 101.744 41.2052 101.738 41.2234C101.731 41.2416 101.729 41.2608 101.73 41.2801C101.73 41.3701 101.8 41.4501 101.95 41.5201C101.98 41.4984 102.003 41.4697 102.019 41.4365C102.035 41.4033 102.042 41.3667 102.04 41.3301C102.07 41.2001 102 41.1401 101.91 41.1301H101.87Z" fill="#03848B"/>
<path d="M110.16 39.3601C110.28 39.2601 110.33 39.1801 110.33 39.1001C110.33 39.0201 110.33 38.9801 110.21 38.9801C110.175 38.9821 110.14 38.9945 110.112 39.0159C110.084 39.0372 110.062 39.0665 110.05 39.1001C110.068 39.0341 110.107 38.9757 110.161 38.9341C110.215 38.8925 110.282 38.87 110.35 38.8701C110.49 38.8701 110.56 38.9401 110.58 39.0501C110.6 39.1601 110.52 39.2201 110.4 39.2901C110.436 39.29 110.472 39.2973 110.505 39.3116C110.537 39.3259 110.567 39.3469 110.591 39.3732C110.616 39.3995 110.635 39.4306 110.646 39.4645C110.658 39.4984 110.663 39.5343 110.66 39.5701C110.66 39.6236 110.65 39.6765 110.628 39.7254C110.606 39.7743 110.575 39.8182 110.535 39.854C110.496 39.8899 110.449 39.917 110.398 39.9335C110.347 39.9501 110.293 39.9557 110.24 39.9501C110.09 39.9501 110.01 39.9501 110 39.8201C109.99 39.6901 110 39.7401 110.09 39.7301C110.112 39.7345 110.132 39.7441 110.15 39.758C110.167 39.7719 110.181 39.7898 110.19 39.8101C110.203 39.8314 110.221 39.8497 110.241 39.8635C110.262 39.8773 110.286 39.8864 110.31 39.8901C110.4 39.8901 110.45 39.8001 110.46 39.6601C110.47 39.5201 110.4 39.4201 110.29 39.4101H110.23L110.16 39.3601Z" fill="#03848B"/>
<path d="M109.44 41.84H109.07V41.76L109.55 41.03H109.64V41.72H109.78V41.84H109.64V42.11H109.44V41.84ZM109.44 41.32L109.18 41.72H109.45L109.44 41.32Z" fill="#03848B"/>
<path d="M107.6 42.5801H108H108.06H108.12V42.7701H107.72V43.0001C107.775 42.9818 107.834 42.9762 107.892 42.9837C107.95 42.9911 108.005 43.0114 108.054 43.043C108.103 43.0747 108.144 43.1169 108.175 43.1666C108.205 43.2163 108.224 43.2721 108.23 43.3301C108.23 43.5501 108.09 43.6701 107.81 43.6901C107.67 43.6901 107.59 43.6901 107.58 43.5601C107.58 43.5487 107.582 43.5374 107.587 43.527C107.592 43.5165 107.598 43.5072 107.607 43.4997C107.615 43.4921 107.625 43.4864 107.636 43.483C107.647 43.4797 107.659 43.4787 107.67 43.4801C107.67 43.4801 107.74 43.4801 107.78 43.5601C107.82 43.6401 107.84 43.6301 107.87 43.6301C107.9 43.6301 108.02 43.5401 108.03 43.4001C108.04 43.2601 107.96 43.1601 107.83 43.1501C107.787 43.1399 107.743 43.1399 107.7 43.1501L107.6 42.5801Z" fill="#03848B"/>
<path d="M100.8 39.89C100.893 39.8582 100.977 39.8012 101.04 39.7254C101.104 39.6496 101.145 39.5578 101.16 39.46C101.112 39.4989 101.052 39.5201 100.99 39.52C100.81 39.52 100.72 39.4 100.7 39.2C100.698 39.1537 100.707 39.1075 100.724 39.0644C100.741 39.0214 100.767 38.9822 100.799 38.9494C100.832 38.9167 100.871 38.8909 100.914 38.8738C100.957 38.8567 101.004 38.8486 101.05 38.85C101.28 38.85 101.4 39.01 101.41 39.29C101.409 39.4477 101.35 39.5995 101.245 39.7173C101.14 39.835 100.996 39.9106 100.84 39.93L100.8 39.89ZM101.04 39.44C101.086 39.451 101.134 39.451 101.18 39.44C101.184 39.3801 101.184 39.3199 101.18 39.26C101.18 39.06 101.18 38.96 101.04 38.96C100.9 38.96 100.91 39.04 100.91 39.22C100.91 39.4 101 39.44 101 39.44H101.04Z" fill="#03848B"/>
<path d="M101.65 37.61C101.65 37.61 101.65 37.68 101.71 37.68H101.82V37.74H101.28V37.68H101.38C101.38 37.68 101.44 37.68 101.44 37.61V36.88C101.382 36.9174 101.317 36.9445 101.25 36.96C101.375 36.894 101.49 36.8098 101.59 36.71H101.68L101.65 37.61Z" fill="#03848B"/>
<path d="M102.36 36.6699C102.59 36.6699 102.7 36.8699 102.71 37.2099C102.72 37.5499 102.59 37.7299 102.36 37.7499C102.13 37.7699 102.02 37.5599 102.02 37.2099C102.02 36.8599 102.14 36.6899 102.36 36.6699ZM102.23 37.4199C102.23 37.6199 102.23 37.7099 102.36 37.6999C102.49 37.6899 102.5 37.6099 102.5 37.3999V36.9999C102.5 36.7999 102.5 36.6999 102.36 36.7099C102.22 36.7199 102.23 36.7799 102.23 36.9599V37.4199Z" fill="#03848B"/>
<path d="M103.15 35.89V35.96H103.27V36H102.73H102.83C102.838 36.002 102.847 36.0017 102.855 35.9994C102.863 35.9971 102.871 35.9927 102.877 35.9867C102.883 35.9807 102.887 35.9733 102.889 35.9651C102.892 35.9569 102.892 35.9483 102.89 35.94V35.2C102.827 35.2383 102.76 35.2685 102.69 35.29C102.816 35.2306 102.929 35.1455 103.02 35.04H103.12L103.15 35.89Z" fill="#03848B"/>
<path d="M104 35.89C104 35.89 104 35.96 104.06 35.96H104.17V36H103.63H103.73C103.738 36.002 103.747 36.0017 103.755 35.9994C103.763 35.9971 103.771 35.9927 103.777 35.9867C103.783 35.9807 103.787 35.9733 103.789 35.9651C103.792 35.9569 103.792 35.9483 103.79 35.94V35.2L103.6 35.29C103.726 35.2306 103.839 35.1455 103.93 35.04H104.03L104 35.89Z" fill="#03848B"/>
<path d="M105.8 40.61L105.6 40.6L105.66 35.73H105.75L105.8 40.61Z" fill="#005263"/>
<path d="M106.22 38.78L106.41 39.06L103.74 40.75L103.66 40.63L106.22 38.78Z" fill="#005263"/>
<path d="M105.7 39.5701C105.827 39.5701 105.93 39.4671 105.93 39.3401C105.93 39.2131 105.827 39.1101 105.7 39.1101C105.573 39.1101 105.47 39.2131 105.47 39.3401C105.47 39.4671 105.573 39.5701 105.7 39.5701Z" fill="white"/>
<path d="M105.7 39.6199C105.633 39.6074 105.573 39.5721 105.53 39.5201C105.487 39.468 105.463 39.4025 105.463 39.3349C105.463 39.2673 105.487 39.2018 105.53 39.1498C105.573 39.0977 105.633 39.0624 105.7 39.0499C105.742 39.042 105.785 39.0435 105.826 39.0542C105.867 39.0649 105.906 39.0845 105.939 39.1117C105.971 39.1389 105.998 39.173 106.016 39.2116C106.034 39.2502 106.043 39.2923 106.043 39.3349C106.043 39.3775 106.034 39.4197 106.016 39.4582C105.998 39.4968 105.971 39.5309 105.939 39.5581C105.906 39.5854 105.867 39.605 105.826 39.6157C105.785 39.6264 105.742 39.6278 105.7 39.6199ZM105.7 39.1599C105.677 39.1599 105.654 39.1646 105.632 39.1738C105.611 39.1829 105.592 39.1963 105.576 39.2132C105.56 39.2301 105.548 39.25 105.54 39.2718C105.532 39.2936 105.528 39.3168 105.53 39.3399C105.53 39.385 105.548 39.4282 105.58 39.4601C105.611 39.492 105.655 39.5099 105.7 39.5099C105.746 39.51 105.79 39.4924 105.824 39.4608C105.857 39.4292 105.877 39.3859 105.88 39.3399C105.88 39.2922 105.861 39.2464 105.827 39.2126C105.793 39.1789 105.747 39.1599 105.7 39.1599Z" fill="#005263"/>
<path d="M105.7 46.1099C104.345 46.1099 103.021 45.7082 101.894 44.9555C100.768 44.2028 99.89 43.133 99.3715 41.8813C98.8531 40.6296 98.7174 39.2523 98.9817 37.9235C99.246 36.5948 99.8984 35.3742 100.856 34.4162C101.814 33.4582 103.035 32.8058 104.364 32.5415C105.693 32.2772 107.07 32.4129 108.321 32.9313C109.573 33.4498 110.643 34.3278 111.396 35.4543C112.148 36.5807 112.55 37.9051 112.55 39.2599C112.547 41.0758 111.825 42.8166 110.541 44.1007C109.257 45.3847 107.516 46.1073 105.7 46.1099ZM105.7 33.6599C104.593 33.6599 103.51 33.9883 102.589 34.6037C101.668 35.219 100.95 36.0936 100.526 37.1169C100.103 38.1402 99.9916 39.2661 100.208 40.3524C100.424 41.4387 100.957 42.4365 101.74 43.2197C102.523 44.0029 103.521 44.5362 104.608 44.7523C105.694 44.9684 106.82 44.8575 107.843 44.4336C108.866 44.0098 109.741 43.292 110.356 42.3711C110.972 41.4502 111.3 40.3675 111.3 39.2599C111.3 37.7747 110.71 36.3503 109.66 35.3001C108.61 34.2499 107.185 33.6599 105.7 33.6599Z" fill="#FA4136"/>
<path d="M61.8299 73.7301H60.9998C61.1698 73.7301 77.7198 73.7301 77.8798 73.6601C78.3408 73.5329 78.7458 73.255 79.0304 72.8708C79.3149 72.4865 79.4626 72.0181 79.4498 71.5401C79.4498 70.5401 79.9698 47.9201 72.2698 30.6401C72.0733 30.1923 71.728 29.8262 71.2924 29.6039C70.8569 29.3815 70.3578 29.3166 69.8798 29.4201C69.7398 29.4201 51.9298 29.5001 51.7998 29.5601C51.5449 29.6728 51.3147 29.8347 51.1224 30.0365C50.9301 30.2383 50.7795 30.476 50.6791 30.7361C50.5788 30.9962 50.5308 31.2735 50.5378 31.5522C50.5448 31.8308 50.6066 32.1054 50.7199 32.3601C58.0699 48.8701 60.1498 71.4401 60.1598 71.6701C60.1898 72.8201 60.6899 73.7301 61.8299 73.7301Z" fill="#564B42"/>
<path d="M61.4602 73.59H61.5202C61.8001 73.5734 62.074 73.5018 62.3261 73.3791C62.5783 73.2565 62.8037 73.0853 62.9895 72.8753C63.1753 72.6653 63.3179 72.4207 63.4089 72.1556C63.5 71.8904 63.5378 71.6098 63.5202 71.33C63.4502 70.38 61.8702 47.75 53.5202 30.77C53.276 30.261 52.8397 29.8697 52.3072 29.6822C51.7747 29.4947 51.1895 29.5263 50.6802 29.77C49.6302 30.3 49.0002 32.94 49.5002 34C57.5002 50.22 59.7002 71.39 59.7102 71.61C59.7902 72.75 60.3202 73.63 61.4602 73.59Z" fill="#716558"/>
<path d="M64.7701 72.8899H90.6301C91.2188 72.8899 91.7835 73.1238 92.1998 73.5401C92.6162 73.9564 92.8501 74.5211 92.8501 75.1099V76.3999C92.8501 76.9887 92.6162 77.5533 92.1998 77.9697C91.7835 78.386 91.2188 78.6199 90.6301 78.6199H64.7701C64.1839 78.6199 63.6218 78.3871 63.2074 77.9726C62.7929 77.5581 62.5601 76.996 62.5601 76.4099V75.0999C62.5627 74.5146 62.7964 73.954 63.2103 73.5401C63.6241 73.1262 64.1847 72.8925 64.7701 72.8899Z" fill="#716558"/>
<path d="M64.3798 101.76H67.2598V98.0699C67.2598 97.863 67.342 97.6646 67.4883 97.5184C67.6346 97.3721 67.833 97.2899 68.0398 97.2899H86.1498C86.2518 97.2899 86.3528 97.3101 86.4468 97.3495C86.5409 97.3888 86.6262 97.4464 86.6979 97.519C86.7695 97.5915 86.826 97.6776 86.8641 97.7722C86.9022 97.8667 86.9212 97.968 86.9198 98.0699V101.76H89.8098V98.0699C89.8098 97.0992 89.4242 96.1683 88.7379 95.4819C88.0515 94.7955 87.1205 94.4099 86.1498 94.4099H67.9998C67.0292 94.4099 66.0982 94.7955 65.4118 95.4819C64.7255 96.1683 64.3398 97.0992 64.3398 98.0699L64.3798 101.76Z" fill="#525E5A"/>
<path d="M78.5399 81.48H75.6499V101.02H78.5399V81.48Z" fill="#525E5A"/>
<path d="M80.5102 78.2H73.6802V82.08H80.5102V78.2Z" fill="#4A5659"/>
<path d="M63.52 101.76C63.52 102.217 63.6558 102.664 63.9101 103.044C64.1643 103.424 64.5257 103.721 64.9484 103.895C65.371 104.07 65.836 104.115 66.2844 104.025C66.7328 103.935 67.1443 103.714 67.467 103.39C67.7897 103.066 68.0089 102.653 68.0969 102.204C68.1849 101.756 68.1377 101.291 67.9613 100.869C67.7849 100.447 67.4873 100.087 67.1061 99.8344C66.7249 99.5818 66.2773 99.448 65.82 99.45C65.5172 99.45 65.2173 99.5098 64.9376 99.626C64.6579 99.7422 64.4039 99.9125 64.1902 100.127C63.9764 100.342 63.8072 100.597 63.6922 100.877C63.5772 101.157 63.5187 101.457 63.52 101.76Z" fill="#4A5659"/>
<path d="M74.7798 101.76C74.7798 102.217 74.9153 102.663 75.1691 103.043C75.4229 103.423 75.7837 103.719 76.2058 103.894C76.6279 104.069 77.0924 104.115 77.5405 104.026C77.9886 103.936 78.4002 103.716 78.7232 103.393C79.0463 103.07 79.2663 102.659 79.3554 102.211C79.4446 101.763 79.3988 101.298 79.224 100.876C79.0491 100.454 78.7531 100.093 78.3732 99.8393C77.9933 99.5855 77.5467 99.45 77.0898 99.45C76.7861 99.4486 76.4851 99.5075 76.2042 99.6231C75.9234 99.7387 75.6682 99.9088 75.4534 100.124C75.2387 100.338 75.0686 100.594 74.9529 100.874C74.8373 101.155 74.7785 101.456 74.7798 101.76Z" fill="#4A5659"/>
<path d="M86.0498 101.76C86.0498 102.217 86.1853 102.663 86.4391 103.043C86.6929 103.423 87.0537 103.719 87.4758 103.894C87.8979 104.069 88.3624 104.115 88.8105 104.026C89.2586 103.936 89.6702 103.716 89.9932 103.393C90.3163 103.07 90.5363 102.659 90.6254 102.211C90.7145 101.763 90.6688 101.298 90.494 100.876C90.3191 100.454 90.023 100.093 89.6432 99.8393C89.2633 99.5854 88.8167 99.45 88.3598 99.45C87.7472 99.45 87.1596 99.6933 86.7264 100.127C86.2932 100.56 86.0498 101.147 86.0498 101.76Z" fill="#4A5659"/>
<path d="M72.3101 28.3999V32.5099C72.3101 32.5099 77.6201 36.5099 78.9801 32.9699L78.6301 30.4799L72.3101 28.3999Z" fill="#FBBA6F"/>
<path d="M78.2402 31.9299C78.2402 31.9299 76.3702 33.0899 72.2402 31.0799V28.3999L78.5102 30.4799L78.6702 31.6099L78.2402 31.9299Z" fill="#F28D50"/>
<path d="M82.9998 14.9199L74.9998 13.9199L73.3598 14.1099C72.5823 14.4884 71.9527 15.1146 71.5698 15.8899C70.7098 17.6099 71.6898 20.7899 71.6898 20.7899L71.5698 21.8599C71.3406 21.3458 70.9439 20.9246 70.4445 20.6649C69.945 20.4052 69.3724 20.3223 68.8198 20.4299V20.5299L70.8198 25.2199C71.1912 26.9812 72.1927 28.5463 73.6362 29.6215C75.0797 30.6968 76.866 31.2083 78.6598 31.0599C77.5998 31.0599 78.9398 31.0599 78.9398 31.0599H78.6598H80.0298C83.2498 31.0099 84.0298 25.7599 84.0298 25.7599V16.7599C83.8661 15.9511 83.6042 15.1652 83.2498 14.4199L82.9998 14.9199Z" fill="#FBBA6F"/>
<path d="M70.9998 21.7899C70.9147 21.4987 70.7367 21.2434 70.493 21.0628C70.2492 20.8823 69.9531 20.7864 69.6498 20.7899C68.5498 20.7899 67.7198 20.9999 68.0898 22.5099C68.4598 24.0199 69.9598 26.9299 71.6698 24.4399C73.3798 21.9499 70.9998 21.7899 70.9998 21.7899Z" fill="#FBBA6F"/>
<path d="M78.15 18.5099L78.03 19.5099C78.03 19.5099 75.4 18.4499 74.16 19.5099L73.73 19.1599C74.0926 18.7771 74.5232 18.4651 75 18.2399C76.0574 18.1845 77.1174 18.2753 78.15 18.5099Z" fill="#352C20"/>
<path d="M80.21 18.6201V19.5401C81.0515 19.2225 81.9605 19.1261 82.85 19.26C83.1725 19.3668 83.4527 19.5734 83.65 19.85V19.21L83.35 18.9501C82.848 18.5302 82.2144 18.3001 81.56 18.3L80.21 18.6201Z" fill="#352C20"/>
<path d="M79.7801 24.82C79.7543 24.8178 79.7302 24.8065 79.7119 24.7883C79.6936 24.77 79.6824 24.7458 79.6801 24.72C79.6801 24.6935 79.6906 24.6681 79.7094 24.6493C79.7281 24.6306 79.7536 24.6201 79.7801 24.6201C80.185 24.5988 80.5686 24.4319 80.8601 24.15C80.9317 24.05 80.9789 23.9346 80.998 23.8131C81.0171 23.6915 81.0075 23.5672 80.9701 23.4501C80.8797 23.0446 80.6407 22.6878 80.3001 22.4501C79.9992 22.2201 79.7483 21.9312 79.5626 21.6012C79.3769 21.2711 79.2604 20.9066 79.2201 20.5301C79.2172 20.5175 79.217 20.5044 79.2196 20.4918C79.2221 20.4792 79.2274 20.4672 79.235 20.4568C79.2426 20.4464 79.2523 20.4377 79.2636 20.4313C79.2748 20.425 79.2873 20.4211 79.3001 20.4201C79.3127 20.4171 79.3257 20.417 79.3383 20.4195C79.351 20.4221 79.3629 20.4274 79.3734 20.4349C79.3838 20.4425 79.3925 20.4523 79.3988 20.4635C79.4052 20.4747 79.409 20.4872 79.4101 20.5001C79.4483 20.8516 79.5564 21.192 79.7281 21.5012C79.8999 21.8103 80.1317 22.0819 80.4101 22.3C80.7815 22.5565 81.0451 22.9411 81.1501 23.38C81.1917 23.5254 81.1999 23.6783 81.1739 23.8273C81.1479 23.9762 81.0885 24.1174 81.0001 24.24C80.6744 24.5723 80.2349 24.7688 79.7701 24.7901L79.7801 24.82Z" fill="#A87C4F"/>
<path d="M77.0499 21.25C77.0499 21.81 76.7299 22.25 76.3399 22.25C75.9499 22.25 75.6299 21.79 75.6299 21.25C75.6299 20.71 75.9399 20.25 76.3399 20.25C76.7399 20.25 77.0499 20.68 77.0499 21.25Z" fill="#281D10"/>
<path d="M82.8502 21.25C82.8502 21.81 82.5302 22.25 82.1402 22.25C81.7502 22.25 81.4302 21.79 81.4302 21.25C81.4302 20.71 81.7502 20.25 82.1402 20.25C82.5302 20.25 82.8502 20.68 82.8502 21.25Z" fill="#281D10"/>
<path d="M68.4702 22.1C68.4702 22.1 69.2102 20.9 70.4702 22.1C70.4702 22.1 70.5902 22.73 70.4702 22.92C70.3502 23.11 70.0702 21.52 68.4702 22.1Z" fill="#F28D50"/>
<path d="M70.5499 23.11C70.5499 23.11 70.1398 24.55 69.8198 24.11C69.6698 23.8628 69.5904 23.5792 69.5904 23.29C69.5904 23.0008 69.6698 22.7172 69.8198 22.47C70.1298 21.84 69.5898 21.95 69.5898 21.95C69.5898 21.95 70.8099 21.49 70.5499 23.11Z" fill="#F28D50"/>
<path d="M71.5898 21.8699L72.1698 22.6299C72.1698 22.6299 71.9898 18.8099 72.8398 17.0999C72.8398 17.0999 74.0498 12.3199 76.3498 12.0999C76.3498 12.0999 71.7198 14.3999 70.5498 13.4199C70.3935 13.3126 70.2608 13.1745 70.1599 13.0141C70.059 12.8536 69.9919 12.6742 69.9629 12.4869C69.9339 12.2995 69.9434 12.1083 69.9911 11.9248C70.0387 11.7413 70.1233 11.5695 70.2398 11.4199C69.8477 11.8158 69.5112 12.2633 69.2398 12.7499C68.3934 14.1103 67.9624 15.6882 67.9998 17.2899L68.8198 20.8599C69.323 20.6411 69.891 20.6238 70.4065 20.8118C70.922 20.9997 71.3456 21.3786 71.5898 21.8699Z" fill="#281D10"/>
<path d="M75.1401 13.7199C76.1764 14.3073 77.33 14.6577 78.5179 14.7458C79.7058 14.834 80.8985 14.6578 82.0101 14.2299C82.0101 14.2299 83.2301 14.5099 84.0101 16.7499C84.0101 16.7499 84.6301 14.0999 81.3301 11.7499C80.1401 10.9199 82.0801 14.8899 75.1401 13.7199Z" fill="#231F20"/>
<path d="M80.2101 11C80.2101 11 81.1501 12.84 75.1401 13.46C75.1401 13.46 80.1401 14.46 82.0101 12.51C81.5057 11.9026 80.896 11.3911 80.2101 11Z" fill="#231F20"/>
<path d="M83.0001 14.92L83.7201 14.53C83.0001 13 82.8101 11.29 79.0501 9.99996C74.7401 8.48996 70.3501 11.3 70.2401 11.41C70.1236 11.5595 70.039 11.7313 69.9913 11.9148C69.9437 12.0983 69.9341 12.2896 69.9632 12.4769C69.9922 12.6642 70.0593 12.8436 70.1602 13.0041C70.2611 13.1646 70.3938 13.3027 70.5501 13.41C71.7201 14.41 73.7301 13.03 73.7301 13.03C73.2201 13.08 73.7301 13.95 73.3801 14.12L75.0001 13.93L83.0001 14.92Z" fill="#352C20"/>
<path d="M72.2602 21.57C72.2602 21.57 71.5102 19.48 72.2602 18.44C73.0102 17.4 73.4902 14.1 73.4902 14.1C73.4902 14.1 69.7702 12.6 69.9402 16.1C69.9827 18.1536 70.8134 20.1121 72.2602 21.57Z" fill="#281D10"/>
<path d="M73.1501 14.2299C73.1501 14.2299 79.2401 16.8199 82.0101 16.6299C81.363 16.2511 80.7622 15.798 80.2201 15.2799C80.1401 15.0199 82.8501 16.3999 82.8501 16.3999C82.8501 16.3999 83.7301 15.7999 82.4101 13.6799C81.0901 11.5599 72.0001 12.3899 73.1501 14.2299Z" fill="#281D10"/>
<path d="M73.0501 13.4499C75.448 14.5993 77.9448 15.5298 80.5101 16.2299C80.1514 15.8073 79.8489 15.3401 79.6101 14.8399C79.6101 14.5699 82.7001 15.8399 82.7001 15.8399C82.8411 15.4082 82.8955 14.9528 82.8601 14.4999C82.8601 13.6099 82.6401 13.1299 80.2101 11.6399C77.7801 10.1499 71.6601 12.1499 73.0501 13.4499Z" fill="#352C20"/>
<path d="M71.5901 21.8701C71.3366 23.2822 71.1663 24.708 71.0801 26.1401C71.0801 27.7801 73.4101 32.1401 79.2101 31.7701C84.4201 31.4501 83.9601 28.8701 83.9601 28.8701V26.1001C83.9601 26.1001 83.1601 28.9501 81.6001 29.3501C81.0401 29.4901 80.9601 28.8201 79.6001 28.8701C78.7724 28.9826 77.9744 29.2543 77.2501 29.6701C77.2501 29.6701 72.7001 28.6101 73.0401 25.9301C73.1575 25.1861 73.0863 24.4245 72.8329 23.7152C72.5796 23.0058 72.1522 22.3714 71.5901 21.8701Z" fill="#352C20"/>
<path d="M76.0898 26.3401C76.0898 26.3401 79.2098 23.6301 82.5698 25.9701L82.8498 26.9701C82.8498 26.9701 79.0298 24.8501 76.1898 27.0901L76.0898 26.3401Z" fill="#352C20"/>
<path d="M82.8499 29.9399C83.0248 28.8413 83.0011 27.7202 82.7799 26.6299C82.3899 25.3599 82.1499 26.3599 82.1499 26.3599C82.1499 26.3599 82.5399 29.8299 81.1499 30.3599C79.7599 30.8899 82.8499 29.9399 82.8499 29.9399Z" fill="#352C20"/>
<path d="M76.0902 26.34C76.0902 26.34 75.3402 29.14 76.0902 30.25C76.8402 31.36 77.5202 30.69 77.5202 30.69C77.5202 30.69 76.3602 26.53 76.8202 26L76.0902 26.34Z" fill="#352C20"/>
<path d="M69.5 32.52L77.69 52.02L81.09 34.41L76.81 33.22L69.5 32.52Z" fill="#FFFBE7"/>
<path d="M69.5 32.5201L72.31 31.3501L76.72 33.2401L75.3 36.8601L69.5 32.5201Z" fill="#FFFEF8"/>
<path d="M78.6702 32.5601L80.5402 33.9601L78.4502 36.9701L76.9502 33.2601L78.6702 32.5601Z" fill="#FFFEF8"/>
<path d="M76.6302 33.51L75.7002 35.56L76.4002 36.34H77.3802L77.7302 35.67L76.9902 33.51H76.6302Z" fill="#CA5F38"/>
<path d="M76.1699 51.8501L76.3999 36.3401H77.3799L80.6999 51.5901L78.6199 56.8901L76.1699 51.8501Z" fill="#CA5F38"/>
<path d="M83.3899 35.2001L80.2499 34.0701L80.0699 40.2301L78.7499 54.5101L78.4399 63.0901L86.3299 64.2601L84.6199 46.6001L83.3899 35.2001Z" fill="#525E5A"/>
<path d="M78.7601 31.78C79.4298 32.2726 80.0287 32.8547 80.5401 33.51C80.9201 34.18 82.8201 37.77 82.8201 37.77L81.3201 39.15L83.0001 42.43L78.6201 55.27C78.6201 55.27 80.2701 37.58 80.0001 35.89C79.7675 34.7274 79.3271 33.6163 78.7001 32.61L78.7601 31.78Z" fill="#5E6D68"/>
<path d="M69.4998 32.52L65.6398 33.51L63.5098 63.72L79.8198 63.26L78.9098 53.6L70.9698 36.33L69.4998 32.52Z" fill="#525E5A"/>
<path d="M72.29 30.2601C72.29 30.2601 72.29 30.1801 71.8 30.3301C71.2368 30.5514 70.7241 30.8843 70.2928 31.3087C69.8615 31.7332 69.5204 32.2405 69.29 32.8001C69.22 33.0101 69.14 33.2101 69.06 33.4201L67.79 36.7201L69.3 37.7201L68.65 42.1001L78.87 54.6201V53.3601C78.87 53.3601 70.87 33.4301 71.35 32.2201C71.69 31.4001 72.01 31.4801 72.35 31.3501L72.29 30.2601Z" fill="#5E6D68"/>
<path d="M78.4401 53.6L67.0001 52.45C67.0001 52.45 65.5001 50.95 65.8301 44.45C66.1601 37.95 65.8301 39.8 65.8301 38.12C65.8301 36.44 66.4401 44.29 66.4401 44.29L68.0001 48.52L68.5601 50.83L78.4401 53.6Z" fill="#444C49"/>
<path d="M84.9999 65.05L94.6399 67.59C96.7199 68.3 98.1999 69.25 98.4999 71.5L101.33 97.57L95.2699 98.2L91.7499 76.64L80.4299 76.21L74.4299 70.86C74.4299 70.86 72.6499 66.12 84.9999 65.05Z" fill="#444C49"/>
<path d="M75.9998 65.76C75.9998 65.76 86.9998 69.26 86.9998 73.1L87.8098 97.43L81.8098 98.3L79.5898 77L71.4598 75.43C62.6698 74.6 63.8198 71.56 63.5098 68.59L66.3598 67.59C66.3598 67.59 68.9998 64.77 75.9998 65.76Z" fill="#525E5A"/>
<path d="M96.6801 98.0599C96.7342 98.4194 96.6857 98.7868 96.5401 99.1199C96.3001 99.5699 100.77 99.6699 100.77 99.6699L101.37 98.5199L100.65 97.6499L96.6801 98.0599Z" fill="#231F20"/>
<path d="M96.5402 99.12C95.9413 99.8104 95.6362 100.708 95.6902 101.62L95.8202 103.1H99.1502L102.41 103.72H108.53C108.626 103.266 108.544 102.793 108.303 102.397C108.061 102.001 107.677 101.713 107.23 101.59C105.61 101.22 104.1 100.9 104.1 100.9L102.74 99.26C102.395 98.8469 101.905 98.582 101.37 98.52C101.01 98.52 100.85 98.71 100.52 98.96C100.038 99.31 99.456 99.4958 98.8602 99.49C98.0681 99.5633 97.2702 99.4361 96.5402 99.12Z" fill="#805634"/>
<path d="M102.39 104.18H108.53V103.72H102.39L99.4102 103.1V103.42L102.39 104.18Z" fill="#231F20"/>
<path d="M95.8202 104.17H99.4102V103.09H95.8202V104.17Z" fill="#231F20"/>
<path d="M83.0801 98C83.2149 98.3508 83.2149 98.7391 83.0801 99.09C82.8401 99.54 87.3101 99.64 87.3101 99.64L87.9201 98.49L87.1101 97.49L83.0801 98Z" fill="#231F20"/>
<path d="M83.0899 99.12C82.4908 99.8098 82.1889 100.708 82.2499 101.62L82.3699 103.1H85.6999L88.9599 103.72H95.0799C95.1754 103.266 95.094 102.793 94.8524 102.397C94.6108 102.001 94.2272 101.713 93.7799 101.59C92.1599 101.22 90.6499 100.9 90.6499 100.9L89.2899 99.26C88.9474 98.8491 88.461 98.5845 87.9299 98.52C87.5699 98.52 87.3999 98.71 87.0699 98.96C86.5877 99.31 86.0058 99.4958 85.4099 99.49C84.6178 99.5625 83.8202 99.4353 83.0899 99.12Z" fill="#805634"/>
<path d="M88.9402 104.18H95.0802V103.72H88.9402L85.9702 103.1V103.42L88.9402 104.18Z" fill="#231F20"/>
<path d="M82.3802 104.17H85.9702V103.09H82.3802V104.17Z" fill="#231F20"/>
<path d="M63.8602 72.22C63.8602 72.22 68.1302 66.08 77.3102 66.8C79.7502 66.99 86.8502 65.8 89.1502 66.13C89.6302 66.2 86.4602 63.49 86.1502 61.99C86.1502 61.99 63.6302 64.45 63.4302 65.05C63.1234 67.4458 63.2692 69.878 63.8602 72.22Z" fill="#5E6D68"/>
<path d="M85.9198 60.05L63.5098 63.28L63.3198 66.64L86.4598 64.7L85.9198 60.05Z" fill="#5E6D68"/>
<path d="M77.52 27.0601C77.52 27.0601 80.94 27.3001 81.52 26.8301C81.55 26.8301 80.79 28.3601 77.52 27.0601Z" fill="#CA5F38"/>
<path d="M84.4501 19.53C84.6898 20.476 84.6411 21.472 84.3101 22.39C84.3101 22.39 85.2101 21.81 85.0001 19.85C84.9396 19.7576 84.8584 19.6805 84.7629 19.625C84.6674 19.5694 84.5603 19.5369 84.4501 19.53Z" fill="#231F20"/>
<path d="M75.1101 19L73.8101 19.28C73.7036 19.3014 73.607 19.3569 73.5348 19.438C73.4627 19.5192 73.4189 19.6217 73.4102 19.73C73.3842 20.771 73.6179 21.802 74.0901 22.73C74.3738 22.9836 74.7183 23.1593 75.0901 23.24C75.0901 23.24 72.7301 19.69 75.1101 19Z" fill="#231F20"/>
<path d="M80.0001 20.8599C79.793 20.6661 79.5235 20.5526 79.2401 20.5399C79.1469 20.5515 79.0573 20.5835 78.9778 20.6337C78.8983 20.6838 78.8308 20.7508 78.7801 20.8299C78.7801 20.8299 78.5501 20.5699 78.5901 20.4799C78.6301 20.3899 79.0501 20.1999 79.2101 20.1899C79.5189 20.1689 79.8247 20.2614 80.0701 20.4499C80.2001 20.5599 80.0001 20.8599 80.0001 20.8599Z" fill="#564B42"/>
<path d="M80.3099 22.5099C80.0867 22.1887 79.9423 21.8194 79.8885 21.432C79.8346 21.0445 79.8728 20.6499 79.9999 20.2799C80.4299 19.2799 81.8499 18.7599 83.7199 19.0099C84.6599 19.1299 84.9099 19.3799 85.1599 19.7299C85.2348 19.8271 85.2737 19.9473 85.2699 20.0699C85.3508 21.0729 85.0348 22.0676 84.3899 22.8399C84.1852 23.0844 83.925 23.2764 83.631 23.3999C83.337 23.5235 83.0178 23.5749 82.6999 23.5499C82.249 23.5675 81.7999 23.4831 81.3861 23.3031C80.9722 23.123 80.6044 22.8519 80.3099 22.5099ZM80.3099 20.4099C80.2301 20.7355 80.2155 21.0737 80.267 21.4049C80.3185 21.7362 80.435 22.0539 80.6099 22.3399C81.0499 23.1399 82.1399 23.1899 82.6899 23.1899C82.9609 23.2183 83.2348 23.1782 83.4863 23.0734C83.7379 22.9686 83.9592 22.8023 84.1299 22.5899C84.7156 21.8798 84.9961 20.9664 84.9099 20.0499C84.9099 19.9199 84.9899 19.5299 83.6599 19.3599C83.3715 19.3211 83.0809 19.301 82.7899 19.2999C81.5299 19.2899 80.6299 19.6999 80.3199 20.4099H80.3099Z" fill="#564B42"/>
<path d="M76.0999 23.52C75.5132 23.46 74.9655 23.1985 74.5499 22.78C74.2322 22.3954 73.9936 21.9518 73.8478 21.4747C73.7019 20.9977 73.6516 20.4965 73.6999 20C73.6899 19.8735 73.7293 19.748 73.8099 19.65C74.0599 19.31 74.4499 19.08 75.3899 18.96C77.2599 18.74 78.2399 19.27 78.8299 20.26C78.9458 20.6326 78.9763 21.0266 78.9192 21.4126C78.862 21.7987 78.7187 22.1669 78.4999 22.49C78.2229 22.8543 77.8562 23.1407 77.4356 23.3212C77.015 23.5017 76.5548 23.5702 76.0999 23.52ZM75.9999 19.27C75.7952 19.2716 75.591 19.2917 75.3899 19.33C74.0699 19.49 73.9999 19.86 74.0099 19.99C73.962 20.4419 74.0036 20.8988 74.1323 21.3346C74.2609 21.7704 74.4742 22.1766 74.7599 22.53C74.9875 22.7548 75.2597 22.9293 75.5589 23.0425C75.8581 23.1556 76.1777 23.2048 76.497 23.1869C76.8164 23.169 77.1285 23.0844 77.4132 22.9385C77.6979 22.7927 77.9488 22.5888 78.1499 22.34C78.4993 21.7611 78.6105 21.0692 78.4599 20.41C78.2099 19.69 77.3099 19.28 75.9999 19.27Z" fill="#564B42"/>
<path d="M73.4102 20C72.4976 20.1069 71.5925 20.2706 70.7002 20.49L70.9602 20.78H73.5702L73.4102 20Z" fill="#231F20"/>
<path d="M83.3901 35.2C84.7301 35.49 84.3901 35.0499 85.8901 37.0099C89.0601 41.0099 92.0001 51.0099 92.0001 51.0099C92.0001 51.0099 104.3 52.34 104.92 52.5499L105.82 56.3699C105.03 56.3699 93.3101 57.0299 90.8701 57.0299C87.0301 57.0299 85.7201 48.9199 84.6201 47.8899L83.3901 35.2Z" fill="#5E6D68"/>
<path d="M65.6402 33.51C64.6528 33.5531 63.7064 33.9172 62.9448 34.5471C62.1831 35.177 61.6478 36.0382 61.4202 37C60.8049 38.6883 60.4967 40.4731 60.5102 42.27C60.5514 46.4104 60.9529 50.5393 61.7102 54.61C62.0009 55.236 62.4464 55.7775 63.0045 56.1834C63.5627 56.5894 64.2151 56.8463 64.9002 56.93L78.4402 56.87V53.6L67.0002 51.88L66.6702 45C66.6702 45 66.7302 35.2 65.6402 33.51Z" fill="#5E6D68"/>
<path d="M78.4399 54.3599V56.4999L80.0699 56.8699L80.9199 56.9499C81.9505 56.9243 82.9788 56.8409 83.9999 56.6999C84.9074 56.6114 85.8226 56.6484 86.7199 56.8099C87.2053 56.8929 87.6978 56.9264 88.1899 56.9099C88.4799 56.9099 89.0899 56.9099 89.3099 56.7299C89.8499 56.2199 88.5399 55.9299 88.2499 55.8899C87.3214 55.6237 86.354 55.5188 85.3899 55.5799C86.475 55.3899 87.5849 55.3899 88.6699 55.5799C89.1602 55.7206 89.6706 55.7781 90.1799 55.7499C91.0599 55.5499 90.3799 54.9699 89.7199 55.1199C89.8087 55.0963 89.885 55.0396 89.9333 54.9615C89.9817 54.8834 89.9983 54.7899 89.9799 54.6999C89.8699 54.0499 88.4999 54.1299 87.9799 54.0099C87.0058 53.7635 86.0048 53.6392 84.9999 53.6399C83.992 53.6809 82.9889 53.8013 81.9999 53.9999C81.2508 54.1791 80.5281 54.4548 79.8499 54.8199C79.3504 54.7791 78.8674 54.6215 78.4399 54.3599Z" fill="#E8A55B"/>
<path d="M111.05 51.1C111.05 51.16 111.18 51.56 112.05 51.45C112.787 51.3055 113.508 51.0843 114.2 50.79C114.276 50.7673 114.346 50.7259 114.402 50.6696C114.459 50.6132 114.5 50.5437 114.523 50.4673C114.546 50.3908 114.549 50.3099 114.533 50.2318C114.517 50.1538 114.481 50.081 114.43 50.02C114.07 49.44 111.25 50.3 111.25 50.3C111.25 50.3 110.76 50.69 111.05 51.1Z" fill="#E8A55B"/>
<path d="M111.32 52.6599C111.37 52.7199 111.5 53.1099 112.32 52.9199C113.023 52.7187 113.712 52.4681 114.38 52.1699C114.457 52.1263 114.523 52.0662 114.573 51.9941C114.624 51.9219 114.658 51.8394 114.674 51.7525C114.689 51.6656 114.685 51.5764 114.662 51.4913C114.639 51.4062 114.597 51.3272 114.54 51.2599C114.12 50.7199 111.41 51.8499 111.41 51.8499C111.41 51.8499 111 52.2799 111.32 52.6599Z" fill="#E8A55B"/>
<path d="M112.17 53.5301C112.17 53.5301 112.32 53.9101 113.02 53.7501C113.629 53.5777 114.224 53.3604 114.8 53.1001C114.866 53.0612 114.922 53.0086 114.965 52.946C115.008 52.8833 115.038 52.8121 115.051 52.7371C115.064 52.6622 115.061 52.5852 115.042 52.5115C115.023 52.4379 114.988 52.3691 114.94 52.3101C114.58 51.8501 112.23 52.8301 112.23 52.8301C112.23 52.8301 111.89 53.2001 112.17 53.5301Z" fill="#E8A55B"/>
<path d="M111.66 54.5199C111.789 54.6475 111.949 54.7395 112.125 54.7868C112.3 54.8341 112.484 54.8352 112.66 54.7899C113.181 54.6469 113.689 54.463 114.18 54.2399C114.235 54.2071 114.281 54.1629 114.317 54.1103C114.353 54.0577 114.377 53.998 114.387 53.9353C114.398 53.8725 114.395 53.8083 114.378 53.7469C114.361 53.6856 114.331 53.6286 114.29 53.5799C113.99 53.1799 112 54.0099 112 54.0099C112 54.0099 111.42 54.2399 111.66 54.5199Z" fill="#E8A55B"/>
<path d="M113.19 50.62C113.19 50.68 113.3 50.89 114.03 50.79C114.685 50.6738 115.331 50.5066 115.96 50.29C115.96 50.29 116.48 50.17 116.16 49.66C115.84 49.15 113.32 49.91 113.32 49.91C113.32 49.91 112.93 50.26 113.19 50.62Z" fill="#E8A55B"/>
<path d="M113.63 51.8699C113.68 51.9199 113.79 52.2299 114.51 52.0799C115.133 51.9207 115.744 51.7203 116.34 51.4799C116.405 51.4503 116.463 51.4054 116.507 51.349C116.552 51.2927 116.582 51.2265 116.596 51.1561C116.609 51.0856 116.606 51.0129 116.586 50.9439C116.566 50.875 116.53 50.8119 116.48 50.7599C116.11 50.3299 113.7 51.2299 113.7 51.2299C113.7 51.2299 113.34 51.5699 113.63 51.8699Z" fill="#E8A55B"/>
<path d="M114.25 52.8999C114.25 52.8999 114.38 53.2399 115 53.0999C115.543 52.9433 116.074 52.7495 116.59 52.5199C116.648 52.485 116.697 52.4381 116.735 52.3825C116.773 52.3268 116.799 52.2637 116.81 52.1973C116.821 52.1309 116.818 52.0628 116.801 51.9977C116.784 51.9326 116.753 51.872 116.71 51.8199C116.39 51.3999 114.3 52.2799 114.3 52.2799C114.22 52.3605 114.17 52.4671 114.161 52.5807C114.152 52.6943 114.184 52.8074 114.25 52.8999Z" fill="#E8A55B"/>
<path d="M113.56 53.47C113.42 53.55 109.95 55.13 114.69 54.03C115.15 53.8949 115.601 53.7313 116.04 53.54C116.088 53.509 116.129 53.4683 116.161 53.4205C116.193 53.3726 116.214 53.3187 116.223 53.2622C116.233 53.2056 116.23 53.1477 116.216 53.0922C116.201 53.0367 116.176 52.9849 116.14 52.94C115.87 52.59 114.14 53.33 114.14 53.33C113.938 53.3253 113.738 53.3735 113.56 53.47Z" fill="#E8A55B"/>
<path d="M108.75 50.78C109.583 50.718 110.406 50.5568 111.2 50.3C111.72 50.18 114.39 52.75 112.72 54.42C112.058 55 111.267 55.4134 110.413 55.6256C109.559 55.8378 108.667 55.8427 107.81 55.64C107.634 55.6052 107.471 55.5238 107.337 55.4041C107.203 55.2845 107.104 55.1311 107.05 54.96C106.879 54.575 106.787 54.1594 106.78 53.7381C106.773 53.3168 106.852 52.8984 107.01 52.5081C107.169 52.1177 107.405 51.7635 107.704 51.4665C108.003 51.1696 108.359 50.9361 108.75 50.78Z" fill="#E8A55B"/>
<path d="M105.57 52.2701C105.514 52.7387 105.565 53.2141 105.722 53.6596C105.878 54.1051 106.134 54.5089 106.47 54.8401C106.688 55.0948 106.96 55.2978 107.266 55.4345C107.572 55.5711 107.905 55.6379 108.24 55.6301C108.45 55.6301 108.77 55.8301 108.96 55.8101C109.15 55.7901 109.14 55.5701 108.96 55.4301L107.74 54.6801C107.8 54.2901 107.86 53.9001 107.91 53.5101C107.967 53.3115 108.001 53.1067 108.01 52.9001C108.01 52.5001 107.57 52.2001 107.93 51.8201C108.145 51.5578 108.398 51.3286 108.68 51.1401C109.275 50.9307 109.816 50.5887 110.26 50.1401C110.447 49.9312 110.568 49.672 110.609 49.3946C110.65 49.1173 110.609 48.834 110.49 48.5801C110.486 48.5307 110.472 48.4828 110.447 48.4396C110.423 48.3964 110.39 48.3591 110.35 48.3301C110.278 48.2848 110.195 48.2607 110.11 48.2607C110.025 48.2607 109.942 48.2848 109.87 48.3301C109.74 48.435 109.631 48.564 109.55 48.7101C109.29 49.0801 109.17 49.4001 108.69 49.6201C108.4 49.7601 107.14 50.4501 106.79 50.6801C106.471 50.855 106.181 51.0776 105.93 51.3401C105.726 51.6108 105.601 51.9327 105.57 52.2701Z" fill="#E8A55B"/>
<path d="M104.96 52.7501L105.55 52.5701L106.86 55.1601L105.65 55.6801L104.96 52.7501Z" fill="#E8A55B"/>
<path d="M126.35 103.48C126.384 103.205 126.496 102.945 126.673 102.733C126.851 102.52 127.086 102.363 127.35 102.28L128.78 101.88L129.39 102.45C129.495 102.564 129.636 102.637 129.79 102.658C129.944 102.678 130.099 102.643 130.23 102.56C131.288 101.663 132.085 100.5 132.54 99.1899C132.896 98.4214 133.415 97.7391 134.06 97.1899L134.5 97.8999C134.691 98.1951 134.801 98.5354 134.818 98.8865C134.836 99.2376 134.761 99.5872 134.6 99.8999C134.429 100.315 134.348 100.761 134.36 101.21L134.19 104.21H133.83L133.59 100.91L131.44 103.71C131.337 103.865 131.197 103.991 131.033 104.079C130.869 104.166 130.686 104.211 130.5 104.21H126.23L126.35 103.48Z" fill="#3B2D3C"/>
<path d="M132.57 99.1901C132.115 100.5 131.318 101.664 130.26 102.56C130.129 102.643 129.974 102.678 129.82 102.658C129.667 102.638 129.525 102.564 129.42 102.45L128.81 101.88H128.92L129.92 99.8801C130.283 98.8449 130.732 97.8415 131.26 96.8801C131.47 96.6301 131.57 97.4401 131.77 97.1901C132.91 95.7701 133.49 96.1901 134.11 97.1301C133.451 97.6945 132.925 98.398 132.57 99.1901Z" fill="#FCBB6E"/>
<path d="M118.11 103.47C118.146 103.198 118.259 102.942 118.437 102.733C118.614 102.524 118.848 102.37 119.11 102.29L120.55 101.88L121.16 102.45C121.265 102.564 121.406 102.637 121.56 102.658C121.714 102.678 121.869 102.643 122 102.56C123.058 101.663 123.855 100.5 124.31 99.1899C124.667 98.4244 125.182 97.7429 125.82 97.1899C125.97 97.4099 126.11 97.6399 126.27 97.8999C126.459 98.196 126.567 98.5368 126.583 98.8879C126.599 99.239 126.522 99.5881 126.36 99.8999C126.193 100.316 126.114 100.762 126.13 101.21L125.96 104.21H125.59L125.36 100.91L123.21 103.71C123.106 103.863 122.966 103.989 122.802 104.076C122.638 104.164 122.456 104.209 122.27 104.21H118L118.11 103.47Z" fill="#3B2D3C"/>
<path d="M124.34 99.19C123.885 100.5 123.088 101.663 122.03 102.56C121.899 102.643 121.744 102.678 121.59 102.658C121.437 102.637 121.295 102.564 121.19 102.45L120.58 101.88H120.68L121.68 99.88C122.039 98.8432 122.488 97.8394 123.02 96.88C123.22 96.63 123.44 96.53 123.64 96.28C124.77 94.86 125.25 96.21 125.86 97.13C125.211 97.6993 124.693 98.402 124.34 99.19Z" fill="#E8A55B"/>
<path d="M14.27 45.21H13.77L16 28C16 28 15.72 22.37 22.41 21.25C22.41 21.25 22.93 29.25 16.54 28.35L14.27 45.21Z" fill="#2AAEAA"/>
<path d="M15.7301 29.9C15.7301 29.9 16.0001 24.4 11.6601 24C11.6601 24 9.23009 29.64 15.7301 29.9Z" fill="#2AAEAA"/>
<path d="M16.1099 31.58C16.855 30.3818 18.0258 29.5097 19.3872 29.1388C20.7485 28.7678 22.1999 28.9254 23.4499 29.58C23.4499 29.58 21.4299 35.4 16.1099 31.58Z" fill="#2AAEAA"/>
<path d="M15.3402 33.58C15.3402 33.58 14.1402 28.97 9.78019 29.58C9.78019 29.58 9.49019 34.94 15.3402 33.58Z" fill="#2AAEAA"/>
<path d="M14.6898 37.7301C14.6898 37.7301 13.5798 33.4601 9.53981 34.0001C9.53981 34.0001 9.26981 39.0001 14.6898 37.7301Z" fill="#2AAEAA"/>
<path d="M15.5601 35.9999C15.5601 35.9999 18.7201 32.7799 21.5601 36.4499C21.6001 36.4599 17.0901 40.0599 15.5601 35.9999Z" fill="#2AAEAA"/>
<path d="M10.4901 47.11H10.9101L9.05014 32.87C9.05014 32.87 9.28014 28.22 3.75014 27.29C3.75014 27.29 3.32014 33.91 8.60014 33.16L10.4901 47.11Z" fill="#228586"/>
<path d="M9.27987 34.4501C9.27987 34.4501 9.07987 29.9001 12.6399 29.6101C12.6399 29.6101 14.6499 34.2301 9.27987 34.4501Z" fill="#228586"/>
<path d="M8.9999 35.84C8.38133 34.8433 7.40678 34.1193 6.27396 33.8147C5.14114 33.5101 3.93488 33.6479 2.8999 34.2C2.8999 34.2 4.5699 39 8.9999 35.84Z" fill="#228586"/>
<path d="M9.6001 37.4901C9.6001 37.4901 10.6001 33.6801 14.2001 34.1901C14.2001 34.1901 14.4401 38.6201 9.6001 37.4901Z" fill="#228586"/>
<path d="M10.1401 40.92C10.1401 40.92 11.0601 37.39 14.4001 37.86C14.4001 37.86 14.6201 42 10.1401 40.92Z" fill="#228586"/>
<path d="M9.41992 39.5C9.09624 39.1401 8.69446 38.8592 8.24538 38.6787C7.7963 38.4982 7.31185 38.4229 6.82917 38.4586C6.34649 38.4943 5.8784 38.6401 5.46078 38.8847C5.04316 39.1294 4.68711 39.4664 4.41992 39.87C4.41992 39.87 8.15992 42.85 9.41992 39.5Z" fill="#228586"/>
<path d="M18.5799 44.78H6.91992L7.57992 57.28H17.9199L18.5799 44.78Z" fill="#716558"/>
<path d="M12.7402 61.47L7.27022 103.95H5.97021L8.97022 62.28L12.7402 61.47Z" fill="#824B0F"/>
<path d="M52.2998 61.47L57.7798 103.95H59.0798L56.0798 62.28L52.2998 61.47Z" fill="#824B0F"/>
<path d="M-0.000213623 61.46L64.7798 61.46V57.15L-0.000213623 57.15V61.46Z" fill="#D18325"/>
<path d="M5.5702 63.5701L59.2002 63.5701V61.0301L5.5702 61.0301V63.5701Z" fill="#824B0F"/>
<path d="M47.2799 57.1901H24.8099L21.1499 37.5901H43.6199L47.2799 57.1901Z" fill="#808184"/>
<path d="M47.0501 56.1599H24.6201L24.8101 57.1899H47.3801L47.0501 56.1599Z" fill="#808184"/>
<path d="M46.0999 50.7001C46.0999 50.7001 34.3999 39.0001 21.1499 37.5901L24.5999 56.0001H46.9999L46.0999 50.7001Z" fill="#929497"/>
<path d="M62.42 55.95H47.02V57.18H62.42V55.95Z" fill="#929497"/>
</g>
<defs>
<filter id="filter0_d_226_137" x="-4" y="0" width="222.07" height="112.21" filterUnits="userSpaceOnUse" color-interpolation-filters="sRGB">
<feFlood flood-opacity="0" result="BackgroundImageFix"/>
<feColorMatrix in="SourceAlpha" type="matrix" values="0 0 0 0 0 0 0 0 0 0 0 0 0 0 0 0 0 0 127 0" result="hardAlpha"/>
<feOffset dy="4"/>
<feGaussianBlur stdDeviation="2"/>
<feComposite in2="hardAlpha" operator="out"/>
<feColorMatrix type="matrix" values="0 0 0 0 0 0 0 0 0 0 0 0 0 0 0 0 0 0 0.25 0"/>
<feBlend mode="normal" in2="BackgroundImageFix" result="effect1_dropShadow_226_137"/>
<feBlend mode="normal" in="SourceGraphic" in2="effect1_dropShadow_226_137" result="shape"/>
</filter>
</defs>
</svg>
