<svg width="182" height="149" viewBox="0 0 182 149" fill="none" xmlns="http://www.w3.org/2000/svg">
<g clip-path="url(#clip0_226_380)">
<path d="M129.606 22.8253H156.08C156.08 22.8253 156.08 16.7645 152.956 16.7645C151.837 16.7273 150.74 17.0814 149.853 17.766C148.967 18.4505 148.346 19.4226 148.099 20.515C148.099 20.515 148.099 9.2035 142.41 10.8612C137.02 12.4327 136.409 19.6749 136.409 19.6749C136.409 19.6749 135.441 16.0331 132.52 18.0847C129.598 20.1362 129.606 22.8253 129.606 22.8253Z" fill="#EBEBEB"/>
<path d="M41.1843 43.8992H57.3114C57.3114 43.8992 57.3114 40.205 55.4062 40.205C54.7232 40.1824 54.0538 40.399 53.5136 40.8174C52.9733 41.2358 52.5961 41.8297 52.447 42.4965C52.447 42.4965 52.447 35.5994 48.9778 36.612C45.6962 37.5684 45.3249 41.9827 45.3249 41.9827C45.3249 41.9827 44.736 39.7624 42.9546 41.0151C41.1731 42.2677 41.1843 43.8992 41.1843 43.8992Z" fill="#E0E0E0"/>
<path d="M73.8696 122.416L67.9851 146.359H71.0868L76.5512 122.416H73.8696Z" fill="#E0E0E0"/>
<path d="M84.7085 122.416L89.7679 146.359H92.9671L87.2888 122.416H84.7085Z" fill="#E0E0E0"/>
<path d="M69.8567 103.037L73.2396 120.799H77.0839L73.4722 103.037H69.8567Z" fill="#E0E0E0"/>
<path d="M10.9291 122.416L5.04834 146.359H8.14999L13.6145 122.416H10.9291Z" fill="#E0E0E0"/>
<path d="M21.7715 122.416L26.8271 146.359H30.0301L24.3518 122.416H21.7715Z" fill="#E0E0E0"/>
<path d="M6.91992 103.037L10.3029 120.799H14.1471L10.5354 103.037H6.91992Z" fill="#E0E0E0"/>
<path d="M77.2001 101.424H0V104.653H77.2001V101.424Z" fill="#F0F0F0"/>
<path d="M78.2765 108.036H1.07642V111.266H78.2765V108.036Z" fill="#F0F0F0"/>
<path d="M79.5065 114.187H2.3064V117.416H79.5065V114.187Z" fill="#F0F0F0"/>
<path d="M89.5992 120.799H7.1709V124.028H89.5992V120.799Z" fill="#F0F0F0"/>
<path d="M166.357 121.891C163.848 121.19 161.509 119.986 159.48 118.352C157.452 116.718 155.777 114.689 154.557 112.387C153.338 110.086 152.599 107.561 152.387 104.965C152.174 102.369 152.492 99.7567 153.32 97.2874C154.61 93.4469 157.093 90.0677 158.158 86.1597C159.366 81.7229 158.646 77.016 157.9 72.4779C157.153 67.9398 156.399 63.2517 157.525 58.7924C158.65 54.3331 162.224 50.1663 166.811 49.8362C171.068 49.5437 174.994 52.6941 176.772 56.5871C178.55 60.4801 178.557 64.9132 178.145 69.1588C177.732 73.4043 176.922 77.6424 177.173 81.9104C177.687 90.5365 182.518 98.6414 181.948 107.256C181.655 111.757 179.919 114.615 176.945 117.99C174.383 120.897 170.126 122.81 166.353 121.917" fill="#F0F0F0"/>
<path d="M167.789 80.384C167.917 80.384 167.789 95.176 167.538 113.418C167.287 131.661 166.949 146.449 166.822 146.449C166.694 146.449 166.822 131.657 167.077 113.411C167.332 95.1647 167.666 80.3803 167.789 80.384Z" fill="#E0E0E0"/>
<path d="M176.025 89.3626C176.127 89.4376 174.42 91.8229 172.211 94.6845C170.002 97.5462 168.131 99.8077 168.022 99.729C167.913 99.6502 169.627 97.2686 171.836 94.4033C174.045 91.5379 175.924 89.2838 176.025 89.3626Z" fill="#E0E0E0"/>
<path d="M167.647 98.9864C167.568 99.0877 165.847 97.8613 163.806 96.2861C161.766 94.7109 160.168 93.3232 160.247 93.2219C160.326 93.1206 162.044 94.3471 164.088 95.9223C166.132 97.4975 167.707 98.8889 167.647 98.9864Z" fill="#E0E0E0"/>
<path d="M167.167 116.119C167.077 116.216 165.228 114.589 162.873 112.676C160.517 110.763 158.556 109.274 158.635 109.165C158.713 109.057 160.799 110.388 163.165 112.32C165.532 114.251 167.272 116.033 167.167 116.119Z" fill="#E0E0E0"/>
<path d="M176.742 105.531C176.843 105.61 174.968 108.104 172.556 111.104C170.145 114.105 168.112 116.471 168.014 116.393C167.917 116.314 169.788 113.816 172.2 110.816C174.611 107.815 176.648 105.449 176.742 105.531Z" fill="#E0E0E0"/>
<path d="M128.117 110.407L90.6571 110.234C88.4936 110.223 86.4229 109.354 84.8997 107.818C83.3766 106.281 82.5255 104.203 82.5335 102.039L82.9311 8.12717C82.936 7.05463 83.1521 5.99357 83.5673 5.0046C83.9824 4.01564 84.5882 3.11814 85.3503 2.3634C86.1124 1.60866 87.0156 1.01146 88.0086 0.605914C89.0015 0.20037 90.0646 -0.00557013 91.1371 -0.00013947L128.597 0.172383C130.761 0.1833 132.831 1.05246 134.354 2.58896C135.878 4.12547 136.729 6.2037 136.721 8.3672L136.323 102.283C136.318 103.356 136.102 104.416 135.687 105.405C135.272 106.394 134.666 107.291 133.904 108.046C133.141 108.8 132.238 109.397 131.245 109.802C130.252 110.207 129.189 110.413 128.117 110.407Z" fill="#263238"/>
<path d="M128.338 3.46161L121.077 3.42785C120.84 3.43225 120.606 3.48327 120.389 3.57801C120.172 3.67275 119.976 3.80935 119.811 3.98001C119.647 4.15066 119.518 4.35204 119.431 4.57262C119.345 4.79321 119.302 5.02868 119.307 5.26559V6.58202C119.311 6.81893 119.269 7.0544 119.183 7.27499C119.096 7.49557 118.967 7.69694 118.802 7.8676C118.638 8.03826 118.442 8.17486 118.224 8.2696C118.007 8.36434 117.774 8.41536 117.537 8.41976L103.379 8.35225C102.9 8.33851 102.447 8.13579 102.118 7.78852C101.789 7.44124 101.611 6.97772 101.623 6.4995V5.18308C101.634 4.70451 101.456 4.241 101.126 3.89384C100.796 3.54668 100.343 3.34409 99.8643 3.33034H97.3102L90.9532 3.30034C90.2019 3.29738 89.4575 3.44254 88.7624 3.72752C88.0673 4.0125 87.4352 4.4317 86.9023 4.96117C86.3693 5.49063 85.946 6.11996 85.6565 6.81316C85.3669 7.50636 85.2169 8.24984 85.2149 9.00108L84.8399 100.667C84.8349 102.182 85.4312 103.637 86.4978 104.713C87.5645 105.788 89.0144 106.397 90.5294 106.405L127.914 106.578C129.428 106.581 130.88 105.983 131.954 104.917C133.027 103.85 133.634 102.401 133.641 100.888L134.016 9.22236C134.022 8.47112 133.88 7.72609 133.598 7.02986C133.316 6.33364 132.899 5.69988 132.371 5.16485C131.844 4.62981 131.216 4.20398 130.524 3.91173C129.832 3.61947 129.089 3.46651 128.338 3.46161Z" fill="white"/>
<path d="M115.042 14.7137L105.396 14.6699L105.388 16.4401L115.034 16.4839L115.042 14.7137Z" fill="#455A64"/>
<path d="M94.9063 26.5947C95.1668 26.4799 95.3878 26.2911 95.5419 26.0517C95.6959 25.8123 95.7762 25.5329 95.7726 25.2482C95.7823 25.0632 95.7543 24.8781 95.6901 24.7042C95.626 24.5304 95.5272 24.3714 95.3996 24.237C95.2721 24.1026 95.1185 23.9955 94.9482 23.9224C94.778 23.8492 94.5946 23.8115 94.4093 23.8115C94.224 23.8115 94.0407 23.8492 93.8704 23.9224C93.7002 23.9955 93.5466 24.1026 93.419 24.237C93.2915 24.3714 93.1926 24.5304 93.1285 24.7042C93.0644 24.8781 93.0363 25.0632 93.046 25.2482C93.0406 25.5352 93.1203 25.8174 93.2752 26.059C93.4301 26.3007 93.6531 26.491 93.9161 26.6059C93.4851 26.6566 93.0791 26.8346 92.7497 27.1172C92.4204 27.3998 92.1827 27.7741 92.0671 28.1924C92.5572 28.7467 93.2286 29.1083 93.9611 29.2125H94.8012C95.545 29.115 96.2278 28.7496 96.7215 28.1849C96.6138 27.7681 96.383 27.3934 96.0592 27.1097C95.7354 26.8261 95.3336 26.6466 94.9063 26.5947Z" fill="#455A64"/>
<path d="M94.3924 29.2537C94.3924 29.2312 94.6699 29.2537 95.1425 29.1187C95.8062 28.9392 96.3909 28.5432 96.804 27.9936C97.1079 27.5899 97.3056 27.1163 97.379 26.6163C97.4524 26.1164 97.3991 25.606 97.224 25.132C97.1244 24.8629 96.9854 24.6101 96.8115 24.3819C96.6326 24.138 96.4161 23.924 96.1702 23.748C95.6552 23.3699 95.0331 23.166 94.3943 23.166C93.7555 23.166 93.1333 23.3699 92.6184 23.748C92.3716 23.923 92.155 24.1371 91.9771 24.3819C91.8032 24.6101 91.6641 24.8629 91.5645 25.132C91.3895 25.606 91.3362 26.1164 91.4096 26.6163C91.483 27.1163 91.6807 27.5899 91.9846 27.9936C92.3977 28.5432 92.9824 28.9392 93.6461 29.1187C94.1186 29.2425 94.3962 29.2312 94.3962 29.2537C94.3302 29.2619 94.2634 29.2619 94.1974 29.2537C94.0067 29.2528 93.8167 29.2301 93.6311 29.1862C93.0427 29.048 92.507 28.7426 92.0884 28.3067C91.6698 27.8708 91.3863 27.3231 91.272 26.7297C91.1624 26.1708 91.2064 25.5927 91.3995 25.057C91.5003 24.7662 91.6459 24.4928 91.8308 24.2468C92.0187 23.9864 92.2465 23.7573 92.5059 23.568C93.0522 23.1613 93.7151 22.9417 94.3962 22.9417C95.0772 22.9417 95.7401 23.1613 96.2864 23.568C96.8037 23.9436 97.1958 24.4664 97.4116 25.0682C97.6028 25.6044 97.6469 26.182 97.5391 26.7409C97.4231 27.3336 97.1389 27.8804 96.7206 28.316C96.3023 28.7516 95.7675 29.0576 95.18 29.1975C94.9932 29.2416 94.8019 29.2642 94.6099 29.265C94.5373 29.2708 94.4641 29.2671 94.3924 29.2537Z" fill="#455A64"/>
<path d="M130.686 32.0329C130.686 32.0329 130.78 32.0329 130.964 31.9954C131.233 31.9401 131.481 31.8101 131.68 31.6203C131.839 31.4659 131.962 31.2782 132.04 31.0707C132.117 30.8632 132.148 30.641 132.13 30.4201C132.13 29.8876 132.13 29.2725 132.13 28.5824C132.13 27.1985 132.13 25.5108 132.13 23.5492C132.13 23.0579 132.13 22.5479 132.13 22.0265C132.145 21.7655 132.087 21.5054 131.963 21.275C131.84 21.0447 131.655 20.8531 131.429 20.7214C130.967 20.4288 130.363 20.5564 129.782 20.5264H127.971L89.3406 20.5564C89.1204 20.557 88.9035 20.6101 88.7079 20.7112C88.5122 20.8123 88.3435 20.9585 88.2155 21.1377C88.0866 21.3159 88.0041 21.5234 87.9755 21.7415C87.964 21.9701 87.964 22.1992 87.9755 22.4279V30.6189C87.9801 30.8236 88.0307 31.0245 88.1236 31.2069C88.2164 31.3894 88.3491 31.5486 88.5118 31.6728C88.6779 31.7959 88.8706 31.8781 89.0743 31.9128C89.2859 31.9375 89.4991 31.9451 89.7119 31.9353H97.3254H114.69L126.392 31.9691H129.576H130.401H130.686H130.401H129.576L126.392 31.9879L114.69 32.0179L97.3254 32.0404H89.7157C89.4916 32.05 89.267 32.0412 89.0443 32.0141C88.8137 31.975 88.5953 31.8826 88.4068 31.7441C88.2261 31.6142 88.0751 31.4474 87.9639 31.2547C87.8527 31.062 87.7837 30.8478 87.7617 30.6264C87.7617 28.8487 87.7617 27.0397 87.7617 25.1995V22.4279C87.7487 22.1905 87.7487 21.9526 87.7617 21.7153C87.8142 21.3392 88.0012 20.9948 88.288 20.7459C88.5749 20.497 88.9421 20.3604 89.3219 20.3613L127.952 20.3913H130.634C130.928 20.3799 131.22 20.4542 131.474 20.6051C131.716 20.7498 131.914 20.9581 132.046 21.2074C132.178 21.4566 132.24 21.7373 132.224 22.019C132.224 22.5404 132.224 23.0504 132.224 23.5417C132.224 25.5033 132.224 27.191 132.224 28.5749C132.224 29.265 132.224 29.8801 132.224 30.4126C132.239 30.6407 132.204 30.8695 132.12 31.0822C132.037 31.295 131.907 31.4865 131.74 31.6428C131.531 31.8378 131.271 31.9681 130.99 32.0179C130.89 32.0366 130.788 32.0416 130.686 32.0329Z" fill="#E0E0E0"/>
<path d="M111.288 23.4666H100.378V24.2842H111.288V23.4666Z" fill="#455A64"/>
<path d="M119.491 28.0911H100.378V28.9087H119.491V28.0911Z" fill="#455A64"/>
<path d="M128.076 25.7207H100.378V26.5383H128.076V25.7207Z" fill="#455A64"/>
<path d="M94.9063 55.9272C95.1668 55.8124 95.3878 55.6236 95.5419 55.3842C95.6959 55.1448 95.7762 54.8654 95.7726 54.5808C95.7823 54.3957 95.7543 54.2106 95.6901 54.0368C95.626 53.8629 95.5272 53.7039 95.3996 53.5695C95.2721 53.4351 95.1185 53.3281 94.9482 53.2549C94.778 53.1818 94.5946 53.144 94.4093 53.144C94.224 53.144 94.0407 53.1818 93.8704 53.2549C93.7002 53.3281 93.5466 53.4351 93.419 53.5695C93.2915 53.7039 93.1926 53.8629 93.1285 54.0368C93.0644 54.2106 93.0363 54.3957 93.046 54.5808C93.0406 54.8677 93.1203 55.1499 93.2752 55.3915C93.4301 55.6332 93.6531 55.8235 93.9161 55.9384C93.4851 55.9891 93.0791 56.1671 92.7497 56.4497C92.4204 56.7323 92.1827 57.1066 92.0671 57.5249C92.5572 58.0792 93.2286 58.4409 93.9611 58.545H94.8012C95.545 58.4475 96.2278 58.0821 96.7215 57.5174C96.6138 57.1006 96.383 56.7259 96.0592 56.4422C95.7354 56.1586 95.3336 55.9791 94.9063 55.9272Z" fill="#455A64"/>
<path d="M94.3924 58.5675C94.3924 58.545 94.6699 58.5675 95.1425 58.4325C95.8062 58.2529 96.3909 57.8569 96.804 57.3073C97.1079 56.9036 97.3056 56.43 97.379 55.9301C97.4524 55.4301 97.3991 54.9197 97.224 54.4457C97.1244 54.1766 96.9854 53.9238 96.8115 53.6956C96.6326 53.4517 96.4161 53.2378 96.1702 53.0617C95.6552 52.6836 95.0331 52.4798 94.3943 52.4798C93.7555 52.4798 93.1333 52.6836 92.6184 53.0617C92.3716 53.2368 92.155 53.4508 91.9771 53.6956C91.8032 53.9238 91.6641 54.1766 91.5645 54.4457C91.3895 54.9197 91.3362 55.4301 91.4096 55.9301C91.483 56.43 91.6807 56.9036 91.9846 57.3073C92.3977 57.8569 92.9824 58.2529 93.6461 58.4325C94.1186 58.5562 94.3962 58.545 94.3962 58.5675C94.3302 58.5757 94.2634 58.5757 94.1974 58.5675C94.0067 58.5665 93.8167 58.5438 93.6311 58.5C93.0427 58.3618 92.507 58.0563 92.0884 57.6204C91.6698 57.1845 91.3863 56.6368 91.272 56.0434C91.1624 55.4845 91.2064 54.9064 91.3995 54.3707C91.5003 54.0799 91.6459 53.8066 91.8308 53.5606C92.0187 53.3001 92.2465 53.071 92.5059 52.8817C93.0522 52.475 93.7151 52.2554 94.3962 52.2554C95.0772 52.2554 95.7401 52.475 96.2864 52.8817C96.8037 53.2573 97.1958 53.7801 97.4116 54.3819C97.6028 54.9181 97.6469 55.4957 97.5391 56.0546C97.4231 56.6473 97.1389 57.1941 96.7206 57.6297C96.3023 58.0653 95.7675 58.3713 95.18 58.5112C94.9932 58.5553 94.8019 58.578 94.6099 58.5787C94.5373 58.5846 94.4641 58.5808 94.3924 58.5675Z" fill="#455A64"/>
<path d="M130.686 61.3652C130.686 61.3652 130.78 61.3652 130.963 61.3277C131.233 61.2725 131.481 61.1425 131.68 60.9527C131.839 60.7983 131.962 60.6106 132.039 60.4031C132.117 60.1956 132.148 59.9734 132.13 59.7525C132.13 59.2199 132.13 58.6049 132.13 57.9148C132.13 56.5308 132.13 54.8431 132.13 52.8816C132.13 52.3903 132.13 51.8802 132.13 51.3589C132.145 51.0978 132.087 50.8378 131.963 50.6074C131.84 50.3771 131.654 50.1855 131.429 50.0537C130.967 49.7612 130.363 49.8887 129.782 49.8587H127.971L89.3406 49.8887C89.1204 49.8894 88.9035 49.9425 88.7078 50.0435C88.5122 50.1446 88.3434 50.2908 88.2154 50.47C88.0865 50.6483 88.004 50.8558 87.9754 51.0739C87.9639 51.3025 87.9639 51.5316 87.9754 51.7602V59.9513C87.9843 60.1592 88.0402 60.3624 88.1389 60.5456C88.2377 60.7288 88.3767 60.8872 88.5455 61.0089C88.7126 61.1293 88.905 61.2101 89.108 61.2452C89.3196 61.2699 89.5328 61.2774 89.7456 61.2677H97.3254L114.69 61.2865L126.392 61.3202H129.576H130.401H130.686H130.401H129.576L126.392 61.339L114.69 61.369L97.3254 61.3915H89.7156C89.4915 61.4011 89.267 61.3923 89.0443 61.3652C88.8136 61.3262 88.5953 61.2337 88.4067 61.0952C88.2139 60.957 88.055 60.7768 87.942 60.5682C87.829 60.3597 87.7647 60.1282 87.7541 59.8913C87.7541 58.1135 87.7541 56.3046 87.7541 54.4643V51.7565C87.7411 51.5191 87.7411 51.2812 87.7541 51.0439C87.8067 50.6678 87.9937 50.3234 88.2805 50.0745C88.5673 49.8256 88.9346 49.689 89.3143 49.6899L127.944 49.72H130.626C130.84 49.7123 131.054 49.7494 131.253 49.829C131.452 49.9085 131.632 50.0287 131.782 50.1819C131.932 50.3351 132.049 50.5179 132.124 50.7186C132.199 50.9194 132.232 51.1336 132.22 51.3477C132.22 51.869 132.22 52.379 132.22 52.8704C132.22 54.8319 132.22 56.5196 132.22 57.9035C132.22 58.5936 132.22 59.2087 132.22 59.7413C132.236 59.9693 132.2 60.1981 132.117 60.4108C132.033 60.6236 131.903 60.8151 131.736 60.9714C131.529 61.1679 131.268 61.2984 130.986 61.3465C130.887 61.3661 130.786 61.3724 130.686 61.3652Z" fill="#E0E0E0"/>
<path d="M111.067 52.7993H100.157V53.6169H111.067V52.7993Z" fill="#455A64"/>
<path d="M119.491 57.4236H100.378V58.2412H119.491V57.4236Z" fill="#455A64"/>
<path d="M128.076 55.0532H100.378V55.8708H128.076V55.0532Z" fill="#455A64"/>
<path d="M94.9063 70.5915C95.1674 70.4776 95.389 70.2889 95.5431 70.0493C95.6973 69.8098 95.7772 69.5299 95.7726 69.2451C95.7823 69.06 95.7543 68.8749 95.6901 68.7011C95.626 68.5272 95.5272 68.3683 95.3996 68.2338C95.2721 68.0994 95.1185 67.9924 94.9482 67.9192C94.778 67.8461 94.5946 67.8083 94.4093 67.8083C94.224 67.8083 94.0407 67.8461 93.8704 67.9192C93.7002 67.9924 93.5466 68.0994 93.419 68.2338C93.2915 68.3683 93.1926 68.5272 93.1285 68.7011C93.0644 68.8749 93.0363 69.06 93.046 69.2451C93.0401 69.5321 93.1196 69.8145 93.2745 70.0563C93.4295 70.298 93.6528 70.4882 93.9161 70.6027C93.4853 70.6539 93.0795 70.8321 92.7502 71.1146C92.4209 71.3971 92.1832 71.7712 92.0671 72.1892C92.5561 72.7448 93.2281 73.1068 93.9611 73.2093H94.8012C95.5455 73.1132 96.2286 72.7476 96.7215 72.1817C96.6134 71.7651 96.3824 71.3907 96.0587 71.1071C95.735 70.8236 95.3334 70.6439 94.9063 70.5915Z" fill="#455A64"/>
<path d="M94.3924 73.2319C94.3924 73.2094 94.67 73.2319 95.1425 73.1007C95.8058 72.9203 96.3903 72.5245 96.804 71.9755C97.0869 71.5997 97.2783 71.1631 97.3628 70.7003C97.4574 70.1685 97.4095 69.6212 97.2241 69.1139C97.1248 68.8446 96.9857 68.5918 96.8115 68.3638C96.6336 68.119 96.417 67.905 96.1702 67.7299C95.6553 67.3518 95.0331 67.148 94.3943 67.148C93.7555 67.148 93.1334 67.3518 92.6185 67.7299C92.3715 67.9063 92.1549 68.1216 91.9771 68.3675C91.8029 68.5956 91.6639 68.8484 91.5646 69.1176C91.3791 69.6249 91.3312 70.1723 91.4258 70.7041C91.5103 71.1668 91.7017 71.6035 91.9846 71.9793C92.3983 72.5282 92.9828 72.9241 93.6461 73.1044C94.1187 73.2282 94.3962 73.2132 94.3962 73.2357C94.3303 73.2455 94.2633 73.2455 94.1974 73.2357C94.0066 73.233 93.8166 73.2091 93.6311 73.1644C92.933 73.0049 92.3123 72.607 91.8759 72.0393C91.5512 71.6192 91.3375 71.1242 91.2542 70.5999C91.171 70.0756 91.221 69.5388 91.3995 69.0389C91.5004 68.7481 91.6459 68.4748 91.8309 68.2288C92.0187 67.9683 92.2466 67.7392 92.5059 67.5499C93.0532 67.1455 93.7157 66.9272 94.3962 66.9272C95.0767 66.9272 95.7392 67.1455 96.2864 67.5499C96.8037 67.9255 97.1958 68.4483 97.4116 69.0501C97.6028 69.5876 97.6468 70.1664 97.5391 70.7266C97.4453 71.2124 97.237 71.6688 96.9315 72.058C96.4971 72.6262 95.8774 73.0243 95.18 73.1832C94.9933 73.2281 94.8021 73.252 94.61 73.2544C94.5367 73.2584 94.4633 73.2508 94.3924 73.2319Z" fill="#455A64"/>
<path d="M130.686 76.0297C130.686 76.0297 130.78 76.0297 130.964 75.9922C131.318 75.9191 131.632 75.718 131.848 75.4274C132.063 75.1368 132.163 74.7771 132.13 74.417C132.13 73.8845 132.13 73.2694 132.13 72.5793C132.13 71.1954 132.13 69.5039 132.13 67.5424C132.13 67.0511 132.13 66.5448 132.13 66.0197C132.144 65.7587 132.086 65.499 131.962 65.2688C131.839 65.0386 131.654 64.8469 131.429 64.7145C130.967 64.422 130.363 64.5495 129.782 64.5232H127.971L89.3406 64.5532C89.1202 64.553 88.903 64.6057 88.7072 64.7068C88.5114 64.808 88.3428 64.9547 88.2155 65.1346C88.0865 65.3114 88.004 65.5177 87.9754 65.7347C87.964 65.9633 87.964 66.1924 87.9754 66.421V74.6346C87.9846 74.8419 88.0407 75.0445 88.1394 75.227C88.2381 75.4095 88.377 75.5673 88.5455 75.6885C88.7116 75.8115 88.9043 75.8937 89.1081 75.9285C89.3198 75.9513 89.5329 75.9588 89.7457 75.951H97.3254L114.69 75.9735L126.392 76.0035H129.576H130.401H130.686H130.401H129.576H126.392L114.69 76.0372L97.3254 76.056H89.7157C89.4916 76.0651 89.2672 76.0575 89.0443 76.0335C88.8137 75.9921 88.5956 75.8985 88.4067 75.7597C88.2246 75.6296 88.0727 75.4617 87.9614 75.2675C87.8501 75.0734 87.782 74.8575 87.7616 74.6346C87.7616 72.8568 87.7616 71.0478 87.7616 69.2076V66.4322C87.7487 66.1949 87.7487 65.957 87.7616 65.7196C87.7969 65.4723 87.8908 65.237 88.0354 65.0333C88.1818 64.8283 88.3748 64.6609 88.5984 64.5449C88.822 64.4288 89.0699 64.3674 89.3219 64.3657L127.952 64.3957H130.633C130.928 64.3875 131.22 64.4629 131.474 64.6133C131.716 64.7574 131.913 64.965 132.046 65.2136C132.178 65.4622 132.239 65.7423 132.224 66.0234C132.224 66.5485 132.224 67.0548 132.224 67.5461C132.224 69.5076 132.224 71.1991 132.224 72.583C132.224 73.2731 132.224 73.8882 132.224 74.4208C132.24 74.6483 132.204 74.8766 132.121 75.0888C132.037 75.301 131.907 75.4918 131.74 75.6472C131.532 75.8437 131.271 75.9742 130.99 76.0222C130.89 76.0412 130.787 76.0438 130.686 76.0297Z" fill="#E0E0E0"/>
<path d="M111.288 67.4673H100.378V68.2849H111.288V67.4673Z" fill="#455A64"/>
<path d="M119.491 72.0881H100.378V72.9057H119.491V72.0881Z" fill="#455A64"/>
<path d="M128.076 69.7214H100.378V70.539H128.076V69.7214Z" fill="#455A64"/>
<path d="M94.9063 85.2597C95.1668 85.145 95.3878 84.9562 95.5419 84.7167C95.6959 84.4773 95.7762 84.1979 95.7726 83.9133C95.7823 83.7282 95.7543 83.5431 95.6901 83.3693C95.626 83.1954 95.5272 83.0365 95.3996 82.902C95.2721 82.7676 95.1185 82.6606 94.9482 82.5874C94.778 82.5143 94.5946 82.4766 94.4093 82.4766C94.224 82.4766 94.0407 82.5143 93.8704 82.5874C93.7002 82.6606 93.5466 82.7676 93.419 82.902C93.2915 83.0365 93.1926 83.1954 93.1285 83.3693C93.0644 83.5431 93.0363 83.7282 93.046 83.9133C93.0406 84.2003 93.1203 84.4824 93.2752 84.7241C93.4301 84.9657 93.6531 85.156 93.9161 85.271C93.4851 85.3216 93.0791 85.4996 92.7497 85.7822C92.4204 86.0648 92.1827 86.4391 92.0671 86.8574C92.5572 87.4117 93.2286 87.7734 93.9611 87.8775H94.8012C95.545 87.78 96.2278 87.4147 96.7215 86.8499C96.6138 86.4331 96.383 86.0584 96.0592 85.7748C95.7354 85.4911 95.3336 85.3116 94.9063 85.2597Z" fill="#455A64"/>
<path d="M94.3924 87.9C94.3924 87.8775 94.6699 87.9 95.1425 87.765C95.8062 87.5854 96.3909 87.1894 96.804 86.6398C97.1079 86.2361 97.3056 85.7626 97.379 85.2626C97.4524 84.7626 97.3991 84.2522 97.224 83.7782C97.1244 83.5091 96.9854 83.2563 96.8115 83.0281C96.6326 82.7842 96.4161 82.5703 96.1702 82.3943C95.6552 82.0162 95.0331 81.8123 94.3943 81.8123C93.7555 81.8123 93.1333 82.0162 92.6184 82.3943C92.3716 82.5693 92.155 82.7834 91.9771 83.0281C91.8032 83.2563 91.6641 83.5091 91.5645 83.7782C91.3895 84.2522 91.3362 84.7626 91.4096 85.2626C91.483 85.7626 91.6807 86.2361 91.9846 86.6398C92.3977 87.1894 92.9824 87.5854 93.6461 87.765C94.1186 87.8887 94.3962 87.8775 94.3962 87.9C94.3302 87.9082 94.2634 87.9082 94.1974 87.9C94.0067 87.899 93.8167 87.8764 93.6311 87.8325C93.0427 87.6943 92.507 87.3888 92.0884 86.9529C91.6698 86.517 91.3863 85.9693 91.272 85.3759C91.1624 84.8171 91.2064 84.2389 91.3995 83.7032C91.5003 83.4124 91.6459 83.1391 91.8308 82.8931C92.0187 82.6327 92.2465 82.4036 92.5059 82.2143C93.0522 81.8076 93.7151 81.5879 94.3962 81.5879C95.0772 81.5879 95.7401 81.8076 96.2864 82.2143C96.8037 82.5899 97.1958 83.1127 97.4116 83.7144C97.6028 84.2506 97.6469 84.8282 97.5391 85.3872C97.4231 85.9798 97.1389 86.5266 96.7206 86.9622C96.3023 87.3978 95.7675 87.7038 95.18 87.8437C94.9932 87.8878 94.8019 87.9105 94.6099 87.9112C94.5373 87.9171 94.4641 87.9133 94.3924 87.9Z" fill="#455A64"/>
<path d="M130.686 90.698C130.686 90.698 130.78 90.698 130.963 90.6605C131.233 90.6052 131.481 90.4753 131.68 90.2854C131.839 90.131 131.962 89.9433 132.039 89.7358C132.117 89.5283 132.148 89.3061 132.13 89.0853C132.13 88.5527 132.13 87.9376 132.13 87.2475C132.13 85.8636 132.13 84.1759 132.13 82.2144C132.13 81.7231 132.13 81.213 132.13 80.6917C132.145 80.4306 132.087 80.1705 131.963 79.9402C131.84 79.7098 131.654 79.5182 131.429 79.3865C130.967 79.094 130.363 79.2215 129.782 79.1915H127.971L89.3406 79.2215C89.1204 79.2221 88.9035 79.2752 88.7078 79.3763C88.5122 79.4774 88.3434 79.6236 88.2154 79.8028C88.0865 79.981 88.004 80.1885 87.9754 80.4066C87.9639 80.6353 87.9639 80.8643 87.9754 81.093V89.284C87.9843 89.492 88.0402 89.6952 88.1389 89.8783C88.2377 90.0615 88.3767 90.22 88.5455 90.3417C88.7126 90.4621 88.905 90.5429 89.108 90.578C89.3196 90.6026 89.5328 90.6102 89.7456 90.6005H97.3254H114.69L126.392 90.6342H129.576H130.401H130.686H130.401H129.576L126.392 90.653L114.69 90.683L97.3254 90.7055H89.7156C89.4915 90.7151 89.267 90.7063 89.0443 90.6792C88.8136 90.6402 88.5953 90.5477 88.4067 90.4092C88.2144 90.2713 88.0558 90.0918 87.9428 89.8839C87.8298 89.6761 87.7653 89.4454 87.7541 89.209C87.7541 87.4288 87.7541 85.6186 87.7541 83.7783V81.0067C87.7411 80.7694 87.7411 80.5315 87.7541 80.2941C87.8067 79.918 87.9937 79.5737 88.2805 79.3248C88.5673 79.0759 88.9346 78.9393 89.3143 78.9402L127.944 78.9702H130.626C130.84 78.9625 131.054 78.9997 131.253 79.0792C131.452 79.1588 131.632 79.279 131.782 79.4322C131.932 79.5854 132.049 79.7682 132.124 79.9689C132.199 80.1696 132.232 80.3838 132.22 80.5979C132.22 81.1192 132.22 81.6293 132.22 82.1206C132.22 84.0821 132.22 85.7698 132.22 87.1538C132.22 87.8439 132.22 88.4589 132.22 88.9915C132.236 89.2196 132.2 89.4483 132.117 89.6611C132.033 89.8738 131.903 90.0653 131.736 90.2217C131.529 90.4181 131.268 90.5487 130.986 90.5967C130.891 90.6444 130.79 90.6785 130.686 90.698Z" fill="#E0E0E0"/>
<path d="M111.288 82.1318H100.378V82.9494H111.288V82.1318Z" fill="#455A64"/>
<path d="M119.491 86.7561H100.378V87.5737H119.491V86.7561Z" fill="#455A64"/>
<path d="M128.076 84.3896H100.378V85.2073H128.076V84.3896Z" fill="#455A64"/>
<path d="M107.377 97.8876C107.367 98.0379 107.313 98.1819 107.222 98.302C107.131 98.422 107.006 98.5128 106.865 98.5632C106.723 98.6136 106.569 98.6214 106.423 98.5856C106.276 98.5498 106.144 98.472 106.041 98.3618C105.938 98.2516 105.87 98.1137 105.845 97.9653C105.819 97.8168 105.838 97.6641 105.898 97.526C105.958 97.3879 106.058 97.2705 106.184 97.1881C106.31 97.1058 106.457 97.0621 106.608 97.0625C106.819 97.0703 107.019 97.1616 107.163 97.3162C107.307 97.4709 107.384 97.6763 107.377 97.8876Z" fill="#455A64"/>
<path d="M109.766 97.9065C109.755 98.0566 109.701 98.2002 109.609 98.3197C109.518 98.4392 109.393 98.5294 109.251 98.5793C109.109 98.6291 108.956 98.6364 108.81 98.6002C108.664 98.564 108.531 98.486 108.429 98.3757C108.327 98.2653 108.259 98.1275 108.234 97.9792C108.209 97.8308 108.227 97.6783 108.288 97.5405C108.348 97.4026 108.447 97.2854 108.573 97.2032C108.699 97.1209 108.847 97.0773 108.997 97.0776C109.102 97.0815 109.205 97.106 109.301 97.1498C109.396 97.1935 109.482 97.2557 109.553 97.3327C109.625 97.4097 109.68 97.5 109.717 97.5984C109.753 97.6969 109.77 97.8016 109.766 97.9065Z" fill="#455A64"/>
<path d="M112.14 97.9177C112.129 98.0678 112.074 98.2114 111.983 98.3309C111.891 98.4505 111.767 98.5407 111.625 98.5905C111.483 98.6403 111.33 98.6476 111.184 98.6114C111.038 98.5752 110.905 98.4972 110.803 98.3869C110.701 98.2766 110.633 98.1388 110.608 97.9904C110.582 97.842 110.601 97.6895 110.662 97.5517C110.722 97.4138 110.821 97.2966 110.947 97.2144C111.073 97.1322 111.221 97.0885 111.371 97.0889C111.476 97.0922 111.579 97.1164 111.675 97.16C111.771 97.2036 111.857 97.2658 111.928 97.3428C112 97.4199 112.055 97.5104 112.092 97.6091C112.128 97.7078 112.144 97.8127 112.14 97.9177Z" fill="#455A64"/>
<path d="M114.655 32.2416L73.2906 35.1371C72.4766 35.194 71.8628 35.9001 71.9198 36.7142L72.5237 45.3403C72.5806 46.1543 73.2867 46.7681 74.1008 46.7111L115.465 43.8156C116.279 43.7586 116.893 43.0525 116.836 42.2385L116.232 33.6123C116.175 32.7983 115.469 32.1846 114.655 32.2416Z" fill="#E8505B"/>
<path d="M95.288 36.3402L84.406 37.124L84.4647 37.9395L95.3467 37.1557L95.288 36.3402Z" fill="#FAFAFA"/>
<path d="M103.801 40.3634L84.738 41.7366L84.7968 42.5521L103.86 41.1789L103.801 40.3634Z" fill="#FAFAFA"/>
<path d="M112.414 37.6913L84.7163 39.6301L84.7735 40.4477L112.471 38.5089L112.414 37.6913Z" fill="#FAFAFA"/>
<path d="M79.1766 40.6291C79.4249 40.4931 79.6281 40.2876 79.7613 40.0377C79.8946 39.7879 79.952 39.5047 79.9267 39.2227C79.9291 39.0337 79.8924 38.8462 79.8188 38.6721C79.7452 38.498 79.6363 38.3411 79.4991 38.2111C79.3618 38.0811 79.1992 37.981 79.0213 37.917C78.8434 37.853 78.6543 37.8266 78.4657 37.8393C78.2771 37.852 78.0932 37.9037 77.9255 37.991C77.7579 38.0783 77.6101 38.1994 77.4916 38.3466C77.3731 38.4938 77.2863 38.664 77.2368 38.8464C77.1872 39.0288 77.176 39.2195 77.2038 39.4065C77.2189 39.6932 77.3185 39.969 77.49 40.1992C77.6615 40.4295 77.8973 40.6038 78.1677 40.7004C77.7421 40.7825 77.3505 40.9893 77.0426 41.2945C76.7348 41.5997 76.5246 41.9895 76.4387 42.4144C76.9662 42.9332 77.662 43.2459 78.4002 43.2957L79.2403 43.2395C79.9754 43.0895 80.6304 42.676 81.0818 42.0768C80.9444 41.6733 80.6897 41.3199 80.3503 41.062C80.0108 40.8041 79.6022 40.6534 79.1766 40.6291Z" fill="#FAFAFA"/>
<path d="M78.8541 43.2995C78.8541 43.277 79.1279 43.2695 79.6042 43.112C80.2545 42.8823 80.8099 42.443 81.1832 41.8631C81.4371 41.4658 81.5962 41.0153 81.6482 40.5467C81.7043 40.0107 81.6163 39.4695 81.3932 38.979C81.1472 38.4377 80.7483 37.9801 80.2456 37.6626C79.7047 37.322 79.0692 37.1631 78.4316 37.209C77.7941 37.2549 77.1879 37.5031 76.7013 37.9176C76.2478 38.3025 75.9178 38.8126 75.7525 39.384C75.6036 39.9025 75.5945 40.4511 75.7262 40.9742C75.8426 41.4308 76.0649 41.8535 76.3751 42.2081C76.8251 42.7314 77.438 43.0881 78.1153 43.2208C78.5916 43.3108 78.8654 43.277 78.8654 43.2995C78.8006 43.3167 78.7336 43.3242 78.6666 43.322C78.4762 43.3375 78.2847 43.3287 78.0965 43.2958C77.4996 43.2002 76.9431 42.9341 76.494 42.5295C76.0448 42.1249 75.7222 41.5992 75.5649 41.0155C75.4149 40.4655 75.4149 39.8853 75.5649 39.3353C75.6469 39.0391 75.7733 38.7571 75.94 38.4989C76.1066 38.2231 76.3183 37.9771 76.5663 37.7713C77.0826 37.3281 77.7277 37.0626 78.4064 37.014C79.085 36.9654 79.7614 37.1362 80.3356 37.5013C80.8701 37.8377 81.292 38.3261 81.547 38.904C81.7787 39.4251 81.8643 39.9994 81.7945 40.5654C81.7252 41.1667 81.4827 41.7349 81.0966 42.201C80.7104 42.6671 80.1972 43.0109 79.6192 43.1908C79.4369 43.2507 79.248 43.2885 79.0566 43.3033C78.9893 43.3107 78.9212 43.3094 78.8541 43.2995Z" fill="#FAFAFA"/>
<path d="M63.8593 143.614L63.3118 146.798L68.2137 147.154L68.2324 144.026L63.8593 143.614Z" fill="#E8505B"/>
<path d="M66.0684 143.644C66.088 144.129 66.0591 144.615 65.9822 145.095C65.9524 145.581 65.8733 146.062 65.7459 146.532C65.7266 146.046 65.7567 145.56 65.8359 145.08C65.8629 144.595 65.9409 144.113 66.0684 143.644Z" fill="#263238"/>
<path d="M68.2174 146.809C67.9787 146.816 67.7399 146.799 67.5048 146.757L65.8021 146.569C65.1345 146.49 64.5344 146.408 64.0994 146.337C63.863 146.31 63.6303 146.257 63.4055 146.179C63.6429 146.174 63.8803 146.192 64.1144 146.232L65.8208 146.423C66.4847 146.498 67.0885 146.58 67.5198 146.655C67.7575 146.68 67.9915 146.731 68.2174 146.809Z" fill="#263238"/>
<path d="M84.1083 146.157L84.7346 143.374L79.529 142.166L78.5688 146.228L78.8876 146.325C80.3053 146.738 86.1261 148.321 87.1387 148.253C88.3014 148.174 84.1083 146.157 84.1083 146.157Z" fill="#E8505B"/>
<path d="M80.4665 146.644C80.4926 146.187 80.3468 145.736 80.0577 145.38C79.7788 145.027 79.3772 144.791 78.9325 144.72L78.595 146.175L80.4665 146.644Z" fill="#EBEBEB"/>
<path d="M86.1373 147.218C86.1373 147.218 87.585 148.024 87.3337 148.238C87.0825 148.452 81.1379 147.068 78.5688 146.228L78.6063 146.115L85.511 147.769C85.511 147.769 85.8335 147.162 86.1373 147.218Z" fill="#EBEBEB"/>
<path d="M78.5239 146.093C78.5517 146.106 78.5806 146.116 78.6102 146.123L78.8652 146.198L79.8028 146.461C80.5942 146.674 81.6781 146.956 82.912 147.241C84.1459 147.526 85.2411 147.754 86.0474 147.916L87.0038 148.096L87.2626 148.137C87.2936 148.142 87.3253 148.142 87.3563 148.137L87.2663 148.115L87.0075 148.058L86.0587 147.859C85.2523 147.687 84.1459 147.447 82.927 147.166C81.7081 146.884 80.6092 146.607 79.8141 146.416L78.8727 146.176L78.6139 146.112L78.5239 146.093Z" fill="#263238"/>
<path d="M85.5107 147.863C85.5891 147.717 85.6835 147.58 85.792 147.454C85.9158 147.343 86.0517 147.246 86.1971 147.166C86.0224 147.189 85.8623 147.276 85.747 147.409C85.6139 147.525 85.5295 147.687 85.5107 147.863Z" fill="#263238"/>
<path d="M84.1498 146.727C84.1498 146.727 84.2548 146.667 84.3598 146.565C84.4648 146.464 84.5361 146.37 84.5248 146.359C84.5136 146.348 84.4161 146.419 84.3148 146.52C84.2135 146.622 84.1348 146.715 84.1498 146.727Z" fill="#263238"/>
<path d="M83.7783 146.408C83.7783 146.408 83.8833 146.389 83.9921 146.329C84.1009 146.269 84.1796 146.205 84.1721 146.19C84.1646 146.175 84.0671 146.213 83.9583 146.269C83.8496 146.325 83.7708 146.393 83.7783 146.408Z" fill="#263238"/>
<path d="M83.636 145.853C83.636 145.872 83.7523 145.917 83.9023 145.95C83.9912 145.982 84.0857 145.995 84.1798 145.988C84.1798 145.969 84.0673 145.924 83.9173 145.89C83.8271 145.859 83.7313 145.846 83.636 145.853Z" fill="#263238"/>
<path d="M83.6133 145.485C83.6953 145.558 83.7918 145.613 83.8965 145.646C84.0013 145.679 84.1118 145.69 84.2209 145.677C84.1227 145.636 84.021 145.605 83.9171 145.583C83.8184 145.543 83.7169 145.51 83.6133 145.485Z" fill="#263238"/>
<path d="M84.4309 146.314C84.5368 146.359 84.6498 146.384 84.7647 146.389C84.8895 146.401 85.015 146.401 85.1398 146.389C85.2146 146.387 85.2888 146.375 85.361 146.355C85.407 146.342 85.4459 146.311 85.4698 146.269C85.4834 146.247 85.4906 146.222 85.4906 146.196C85.4906 146.17 85.4834 146.145 85.4698 146.123C85.3563 146.031 85.2146 145.981 85.0685 145.981C84.9224 145.981 84.7807 146.031 84.6672 146.123C84.6024 146.179 84.5479 146.247 84.5059 146.322C84.4797 146.374 84.4759 146.408 84.4797 146.412C84.5346 146.314 84.6085 146.229 84.6972 146.16C84.7934 146.09 84.908 146.048 85.0272 146.04C85.163 146.031 85.2974 146.074 85.4023 146.16C85.4473 146.213 85.4023 146.269 85.346 146.292C85.2772 146.31 85.2069 146.322 85.136 146.329C85.0112 146.339 84.8858 146.339 84.761 146.329C84.5584 146.333 84.4309 146.303 84.4309 146.314Z" fill="#263238"/>
<path d="M84.5136 146.352C84.5701 146.291 84.6033 146.213 84.6074 146.13C84.6161 146.04 84.6033 145.949 84.5699 145.864C84.5286 145.774 84.4761 145.654 84.3336 145.628C84.3158 145.627 84.2982 145.63 84.2816 145.637C84.265 145.643 84.2499 145.652 84.237 145.665C84.2241 145.677 84.2137 145.691 84.2065 145.708C84.1993 145.724 84.1953 145.741 84.1948 145.759C84.1831 145.812 84.1831 145.867 84.1948 145.92C84.2227 146.004 84.2605 146.085 84.3073 146.16C84.3898 146.288 84.4611 146.344 84.4686 146.34C84.4761 146.337 84.4161 146.265 84.3486 146.138C84.3096 146.064 84.2782 145.986 84.2548 145.905C84.2248 145.823 84.2211 145.688 84.3111 145.691C84.4011 145.695 84.4611 145.808 84.4986 145.887C84.5295 145.963 84.5435 146.045 84.5399 146.127C84.5382 146.202 84.5294 146.278 84.5136 146.352Z" fill="#263238"/>
<path d="M78.9626 144.694C78.9626 144.694 79.1127 144.713 79.3377 144.795C79.632 144.904 79.8913 145.091 80.0878 145.335C80.2839 145.584 80.4061 145.883 80.4403 146.198C80.4703 146.442 80.4403 146.592 80.4403 146.595C80.4543 146.562 80.462 146.526 80.4628 146.49C80.4734 146.392 80.4734 146.293 80.4628 146.194C80.441 145.869 80.3221 145.558 80.1215 145.301C79.9209 145.044 79.6478 144.854 79.3377 144.754C79.2442 144.722 79.1472 144.702 79.0489 144.694C79.0204 144.689 78.9912 144.689 78.9626 144.694Z" fill="#263238"/>
<path d="M80.0015 142.654C79.8858 143.001 79.7882 143.354 79.709 143.711C79.6118 144.064 79.5354 144.422 79.4802 144.784C79.596 144.437 79.6936 144.084 79.7728 143.726C79.8722 143.374 79.9486 143.016 80.0015 142.654Z" fill="#455A64"/>
<path d="M81.2393 146.269C81.4771 146.386 81.7293 146.47 81.9894 146.52C82.2415 146.595 82.5028 146.634 82.7657 146.637C82.7657 146.618 82.4244 146.562 82.0156 146.46C81.6068 146.359 81.2468 146.269 81.2393 146.269Z" fill="#263238"/>
<path d="M80.2192 146.033C80.2192 146.033 80.2192 146.112 80.2492 146.198C80.2792 146.284 80.268 146.355 80.2868 146.359C80.3055 146.363 80.3318 146.284 80.313 146.183C80.2942 146.082 80.2342 146.022 80.2192 146.033Z" fill="#263238"/>
<path d="M79.9453 145.463C79.9453 145.463 79.9453 145.534 79.9941 145.601C80.0428 145.669 80.0803 145.718 80.0953 145.707C80.1103 145.695 80.0953 145.635 80.0503 145.568C80.0053 145.5 79.9603 145.455 79.9453 145.463Z" fill="#263238"/>
<path d="M79.4463 145.118C79.4463 145.137 79.5175 145.152 79.5851 145.197C79.6526 145.242 79.7013 145.294 79.7163 145.287C79.7313 145.279 79.7163 145.197 79.6188 145.14C79.5213 145.084 79.4463 145.099 79.4463 145.118Z" fill="#263238"/>
<path d="M79.0791 144.923C79.0791 144.923 79.0791 144.971 79.1316 144.998C79.1841 145.024 79.2104 145.035 79.2216 145.02C79.2329 145.005 79.2216 144.971 79.1691 144.945C79.1166 144.919 79.0904 144.908 79.0791 144.923Z" fill="#263238"/>
<path d="M111.228 41.713C110.853 41.1466 108.404 42.6581 108.186 42.7706C107.969 42.8831 107.811 42.5756 108.003 42.4856C108.288 42.3543 111.277 40.8991 110.898 40.3403C110.692 40.029 110.167 40.4566 110.167 40.4566C110.167 40.4566 107.474 42.0243 107.301 41.7542C107.129 41.4842 108.681 40.5053 109.229 40.2165C109.777 39.9277 109.852 39.5564 109.525 39.4214C109.304 39.3314 107.609 40.1715 107.076 40.4828C106.544 40.7941 105.092 41.6305 105.467 40.6328C105.842 39.6352 105.752 38.7238 105.553 38.4913C105.503 38.4438 105.439 38.4132 105.37 38.4037C105.301 38.3943 105.231 38.4065 105.17 38.4387C105.109 38.4709 105.059 38.5214 105.027 38.5833C104.996 38.6451 104.984 38.7152 104.995 38.7838C104.984 39.1442 104.923 39.5014 104.815 39.8452C104.751 40.1305 104.623 40.3974 104.44 40.6253L104.151 40.9629L103.87 41.3192C103.517 41.7467 103.341 41.9868 103.341 41.9868L89.2351 59.8391L89.9852 67.2538L106.36 45.0059C107.402 44.7448 108.43 44.428 109.439 44.057C110.905 43.4494 110.853 43.3069 110.755 43.1569C110.485 42.7294 108.13 44.132 108.464 43.532C108.798 42.9319 111.528 42.148 111.228 41.713Z" fill="#E5BAAB"/>
<path d="M71.308 54.5023L73.277 42.9883C73.4982 42.7032 73.8245 42.2832 74.1921 41.7694C74.3684 41.5254 74.5853 41.3135 74.8334 41.143C75.1321 40.9169 75.4617 40.735 75.8123 40.603C75.8836 40.5898 75.949 40.5546 75.9991 40.5021C76.0492 40.4497 76.0816 40.3829 76.0916 40.311C76.1015 40.2392 76.0886 40.1661 76.0546 40.102C76.0207 40.0379 75.9674 39.9862 75.9023 39.9541C75.6098 39.8416 74.6909 40.0666 73.8395 40.7755C72.9882 41.4843 73.322 39.7741 73.4307 39.1478C73.5395 38.5214 73.8058 36.5712 73.6258 36.3837C73.3857 36.1099 73.0482 36.3199 72.9507 36.9462C72.8532 37.5726 72.4369 39.4366 72.1106 39.3616C71.7843 39.2865 72.3919 36.1136 72.3919 36.1136C72.3919 36.1136 72.6319 35.4535 72.2568 35.3635C71.578 35.1835 71.1842 38.6115 71.1542 38.9378C71.1317 39.1665 70.7791 39.099 70.8091 38.8552C70.8392 38.6115 71.4842 35.6973 70.8091 35.5098C70.2803 35.3673 70.4566 38.3264 69.9915 38.8552C69.5265 39.3841 70.0853 36.6049 69.5752 36.4812C69.384 36.4362 69.2377 36.4324 69.1439 38.0789C69.1275 39.2658 69.1763 40.4528 69.2902 41.6344C69.2114 42.0619 66.9424 54.4723 66.7886 56.325C66.6349 58.1778 73.0219 69.1367 73.0219 69.1367L77.4138 64.6361L71.308 54.5023Z" fill="#E5BAAB"/>
<path d="M68.4687 61.977C68.3187 62.3146 71.0941 66.2038 72.5118 69.1517L73.7682 77.3615C72.343 79.9869 70.704 83.0285 69.9127 86.3927C75.5572 89.018 81.9818 88.7105 88.1551 87.5179L86.8461 78.4679L89.0027 69.4667L94.3284 63.0084L90.4579 57.8552L86.2198 62.3783L84.2208 62.8734C82.3943 63.3272 79.0264 63.0309 77.3124 62.2621L74.4395 58.5603L68.4687 61.977Z" fill="#E8505B"/>
<path d="M82.1545 76.8513C81.8878 77.0171 81.5985 77.1434 81.2956 77.2264C79.8425 77.7129 78.2799 77.7702 76.795 77.3914C76.4857 77.3282 76.1874 77.2196 75.9099 77.0688C76.9395 77.3223 77.9963 77.4483 79.0566 77.4439C80.1092 77.3712 81.1493 77.1722 82.1545 76.8513Z" fill="#263238"/>
<path d="M90.4315 67.8838C90.4315 67.8838 90.3715 67.9588 90.229 68.045C90.0292 68.1689 89.8135 68.2648 89.5877 68.3301C88.8276 68.5609 88.0076 68.4883 87.2999 68.1274C86.5922 67.7666 86.0518 67.1456 85.7922 66.3948C85.7127 66.1735 85.6623 65.9428 85.6422 65.7085C85.6255 65.623 85.6255 65.5352 85.6422 65.4497C85.6797 65.4497 85.6909 65.8248 85.9122 66.3461C86.1908 67.0408 86.7118 67.611 87.3787 67.951C88.0455 68.291 88.813 68.3777 89.5389 68.1951C89.8424 68.1091 90.1404 68.0051 90.4315 67.8838Z" fill="#263238"/>
<path d="M93.6047 63.8185C93.4093 63.556 93.2385 63.276 93.0946 62.9821C92.7946 62.4608 92.3783 61.737 91.8907 60.9606C91.4031 60.1843 90.9343 59.4904 90.593 58.9916C90.3936 58.7321 90.2167 58.4561 90.0642 58.1665C90.3063 58.3908 90.5216 58.6426 90.7055 58.9166C91.0806 59.3967 91.5644 60.0793 92.0557 60.8631C92.4764 61.5308 92.8632 62.2193 93.2146 62.9259C93.3768 63.2083 93.5076 63.5076 93.6047 63.8185Z" fill="#263238"/>
<path d="M75.0097 59.1865C74.7342 59.3876 74.4404 59.5621 74.1321 59.7078L71.983 60.8967L69.8528 62.1232C69.5679 62.3122 69.2666 62.4754 68.9526 62.6107C69.2061 62.3815 69.4826 62.1791 69.7777 62.0069C70.3066 61.6618 71.0492 61.2005 71.8855 60.728C72.7219 60.2554 73.4982 59.8541 74.0683 59.6028C74.3668 59.4317 74.6823 59.2922 75.0097 59.1865Z" fill="#263238"/>
<path d="M73.5094 66.3838C73.4616 66.709 73.3721 67.0266 73.2431 67.3289C73.1739 67.6498 73.0656 67.9609 72.9205 68.2553C72.8758 67.9203 72.9225 67.5795 73.0555 67.2689C73.1269 66.9393 73.2834 66.6342 73.5094 66.3838Z" fill="#263238"/>
<path d="M83.2344 62.8845C83.1631 62.0481 83.1294 61.0992 83.1294 61.0992C83.1294 61.0992 85.1509 60.6042 85.0046 58.4739C84.8584 56.3436 84.0895 51.468 84.0895 51.468L80.1027 50.0503L76.416 53.8345L78.4263 64.3359L82.2405 64.0846C82.5291 64.0515 82.7936 63.9081 82.9789 63.6844C83.1641 63.4608 83.2557 63.1741 83.2344 62.8845Z" fill="#E5BAAB"/>
<path d="M82.6795 57.2176C82.6795 57.2176 82.6795 57.2551 82.6569 57.3151C82.6329 57.3528 82.6004 57.3844 82.562 57.4072C82.5235 57.43 82.4803 57.4434 82.4357 57.4464C82.1956 57.4689 81.9331 57.2364 81.8056 56.9251C81.7442 56.7756 81.7197 56.6135 81.7343 56.4525C81.7322 56.3844 81.7477 56.3169 81.7792 56.2565C81.8108 56.196 81.8573 56.1447 81.9144 56.1075C81.9399 56.0967 81.9673 56.0911 81.995 56.0911C82.0227 56.0911 82.0501 56.0967 82.0756 56.1075C82.1147 56.1207 82.1479 56.1473 82.1694 56.1825C82.2031 56.2425 82.1694 56.2838 82.1694 56.28C82.1694 56.2763 82.1694 56.2462 82.1206 56.2087C82.0955 56.1873 82.0636 56.1756 82.0306 56.1756C81.9976 56.1756 81.9657 56.1873 81.9406 56.2087C81.8991 56.243 81.8665 56.2869 81.8456 56.3365C81.8247 56.3862 81.8161 56.4401 81.8206 56.4938C81.8136 56.6361 81.838 56.7782 81.8919 56.9101C82.0044 57.1876 82.2369 57.3976 82.4169 57.3976C82.4527 57.3977 82.4882 57.3904 82.5211 57.3762C82.554 57.362 82.5836 57.3412 82.6082 57.3151C82.6607 57.2476 82.6719 57.2139 82.6795 57.2176Z" fill="#D78776"/>
<path d="M83.5383 49.8291L83.6171 49.9416C82.8843 49.4164 81.9796 49.1886 81.0855 49.304C80.152 49.3472 79.2354 49.5687 78.3852 49.9566L77.7026 50.2754C77.8242 50.0816 77.9188 49.8722 77.9838 49.6528C78.0948 49.3171 78.1026 48.9558 78.0064 48.6155C77.9101 48.2753 77.7142 47.9717 77.4438 47.7438C77.1376 47.5466 76.77 47.4675 76.4098 47.5214C76.0496 47.5752 75.7212 47.7582 75.486 48.0363C75.2675 48.3273 75.1494 48.6814 75.1494 49.0452C75.1494 49.4091 75.2675 49.7631 75.486 50.0541C75.6469 50.2603 75.8492 50.4305 76.0797 50.5539C76.3103 50.6772 76.5642 50.751 76.8249 50.7705C76.6749 50.8717 76.5249 50.9767 76.3861 51.0892C75.7999 51.58 75.3591 52.2216 75.1112 52.9448C74.8633 53.668 74.8178 54.4451 74.9797 55.1923C75.0874 55.5978 75.2305 55.9931 75.4073 56.3737C75.4373 56.7105 75.4222 57.0498 75.3623 57.3826C75.2976 57.7914 75.1371 58.1792 74.894 58.5142C74.6509 58.8492 74.332 59.122 73.9633 59.3103C73.6818 59.3944 73.4245 59.5449 73.2132 59.7491C73.1276 59.8912 73.0823 60.0539 73.0823 60.2198C73.0823 60.3857 73.1276 60.5484 73.2132 60.6905C73.3611 60.9423 73.5594 61.1608 73.7955 61.3324C74.0317 61.5041 74.3008 61.6252 74.5859 61.6881C74.6761 61.7098 74.7675 61.7261 74.8597 61.7369C74.7978 62.1887 74.8547 62.6489 75.0247 63.0721C75.3978 63.6673 75.9365 64.1408 76.5747 64.4346C77.2128 64.7284 77.9228 64.8297 78.6177 64.726L78.6739 63.7321L79.049 64.8573C79.049 64.8573 80.3317 65.3411 83.1445 64.0509C84.0821 63.6196 82.7057 60.1992 82.7057 60.1992C82.0044 59.5053 82.2294 58.3502 82.2294 58.3502C81.6368 58.429 81.0593 56.88 81.1793 56.3624C81.2284 56.0997 81.3633 55.8607 81.5629 55.6829C81.7624 55.5051 82.0153 55.3985 82.2819 55.3798C82.5182 55.3798 82.4582 56.5987 83.077 56.4637C83.5983 56.4637 83.3996 55.4923 83.5646 55.0048C83.9209 53.9434 84.641 52.4582 84.3859 51.3705C85.1923 50.3917 84.3859 49.2103 83.5383 49.8291Z" fill="#263238"/>
<path d="M73.9106 53.2571C73.7836 53.0355 73.7486 52.7729 73.8131 52.5257C73.8585 52.254 73.9678 51.9969 74.1319 51.7756C74.3319 51.4952 74.6175 51.2872 74.9458 51.183C75.2663 51.1055 75.5949 51.0665 75.9247 51.0668C76.1741 51.0602 76.4174 50.9877 76.6298 50.8567C76.7269 50.7956 76.8103 50.7151 76.8749 50.6203C76.9394 50.5254 76.9837 50.4182 77.0048 50.3054C77.0048 50.3054 77.0461 50.3729 77.0236 50.5079C76.9787 50.6942 76.8682 50.858 76.7123 50.9693C76.4875 51.1355 76.2188 51.2321 75.9397 51.2468C75.6239 51.2558 75.3099 51.296 75.002 51.3668C74.741 51.4605 74.5079 51.6186 74.3244 51.8265C74.1408 52.0343 74.0127 52.2851 73.9519 52.5557C73.9117 52.7872 73.8979 53.0225 73.9106 53.2571Z" fill="#263238"/>
<path d="M82.8857 63.9158C83.0483 63.6764 83.1937 63.4257 83.3208 63.1657C83.4529 62.847 83.5168 62.5041 83.5084 62.1592C83.5 61.8142 83.4195 61.4749 83.272 61.1629C83.082 60.825 82.8729 60.4982 82.6457 60.1841C82.4569 59.913 82.3173 59.6109 82.2332 59.2915C82.1819 59.1458 82.1634 58.9906 82.1789 58.837C82.1945 58.6833 82.2437 58.535 82.3232 58.4026C82.2751 58.6862 82.2904 58.977 82.3682 59.254C82.4653 59.5514 82.6097 59.8312 82.7957 60.0828C83.0363 60.3984 83.2544 60.7305 83.4483 61.0767C83.6285 61.446 83.7111 61.8553 83.6883 62.2656C83.673 62.5972 83.5914 62.9224 83.4483 63.222C83.3543 63.4228 83.2275 63.6065 83.0733 63.7658C82.9458 63.8746 82.8857 63.9233 82.8857 63.9158Z" fill="#263238"/>
<path d="M70.1076 86.4826L62.1865 143.97L70.0438 144.21C70.0438 144.21 78.0773 93.6085 78.6099 93.9048C79.1425 94.2011 84.5057 115.74 84.2694 117.06C84.1344 117.81 78.0736 143.64 78.5049 143.539C78.9362 143.438 86.1034 144.161 86.1034 144.161C86.1034 144.161 92.2805 117.015 92.1904 116.34C91.9729 114.743 87.9149 85.7812 87.9149 85.7812L70.1076 86.4826Z" fill="#263238"/>
<path d="M81.5769 94.5985C81.2446 94.5849 80.9149 94.5333 80.5943 94.4448C79.8137 94.2739 79.0425 94.0624 78.284 93.8109C77.5194 93.5598 76.7683 93.2694 76.0337 92.9408C75.7241 92.8192 75.4286 92.6646 75.1523 92.4795C75.4731 92.5623 75.7857 92.674 76.0862 92.8133C76.6563 93.0346 77.4476 93.3309 78.3365 93.6234C79.2254 93.9159 80.0317 94.1485 80.6206 94.3097C80.947 94.3784 81.267 94.475 81.5769 94.5985Z" fill="#455A64"/>
<path d="M83.7747 143.929C83.8272 143.929 83.8234 144.154 83.7747 144.405C83.7259 144.657 83.6322 144.855 83.5797 144.844C83.5272 144.833 83.5272 144.619 83.5797 144.364C83.6322 144.109 83.7222 143.918 83.7747 143.929Z" fill="#455A64"/>
<path d="M84.5587 140.31C84.557 140.933 84.4228 141.549 84.1649 142.117C84.1342 141.806 84.1687 141.492 84.2662 141.195C84.3022 140.883 84.4018 140.582 84.5587 140.31Z" fill="#455A64"/>
<path d="M85.3425 136.694C85.3752 137.005 85.3419 137.319 85.2449 137.617C85.2089 137.929 85.1093 138.23 84.9524 138.502C84.9512 137.88 85.0789 137.264 85.3275 136.694H85.3425Z" fill="#455A64"/>
<path d="M86.13 133.075C86.1283 133.699 85.994 134.315 85.7362 134.883C85.7055 134.571 85.74 134.257 85.8375 133.96C85.8735 133.648 85.9731 133.347 86.13 133.075Z" fill="#455A64"/>
<path d="M86.9136 129.459C86.9444 129.771 86.9099 130.085 86.8124 130.382C86.7766 130.694 86.6783 130.995 86.5236 131.267C86.4933 130.955 86.5278 130.639 86.6248 130.341C86.6582 130.03 86.7566 129.73 86.9136 129.459Z" fill="#455A64"/>
<path d="M87.7013 125.84C87.6996 126.464 87.5653 127.08 87.3075 127.648C87.2768 127.337 87.3113 127.022 87.4088 126.725C87.4448 126.413 87.5444 126.112 87.7013 125.84Z" fill="#455A64"/>
<path d="M88.4851 122.225C88.5158 122.536 88.4813 122.85 88.3838 123.147C88.3478 123.459 88.2482 123.761 88.0913 124.033C88.0931 123.409 88.2273 122.793 88.4851 122.225Z" fill="#455A64"/>
<path d="M89.2616 118.605C89.2599 119.229 89.1256 119.845 88.8678 120.413C88.8371 120.102 88.8716 119.788 88.9691 119.491C89.0037 119.178 89.1034 118.877 89.2616 118.605Z" fill="#455A64"/>
<path d="M89.4903 114.968C89.6257 115.25 89.701 115.558 89.7116 115.871C89.7467 116.102 89.768 116.335 89.7753 116.569V116.588C89.7266 116.723 89.6891 116.798 89.6628 116.794C89.6366 116.79 89.6366 116.7 89.6628 116.558V116.58C89.6079 116.354 89.5653 116.125 89.5353 115.894C89.4544 115.592 89.4391 115.276 89.4903 114.968Z" fill="#455A64"/>
<path d="M88.9804 111.3C89.1177 111.582 89.1943 111.89 89.2055 112.203C89.2796 112.508 89.2898 112.825 89.2355 113.134C89.0999 112.851 89.0233 112.543 89.0104 112.23C88.9386 111.925 88.9284 111.609 88.9804 111.3Z" fill="#455A64"/>
<path d="M88.4741 107.639C88.6101 107.921 88.6867 108.227 88.6991 108.539C88.771 108.844 88.7812 109.16 88.7291 109.469C88.5911 109.189 88.5144 108.882 88.5041 108.569C88.4299 108.265 88.4197 107.948 88.4741 107.639Z" fill="#455A64"/>
<path d="M87.9676 103.967C88.103 104.25 88.1784 104.558 88.1889 104.871C88.2653 105.175 88.2755 105.493 88.2189 105.801C88.009 105.214 87.9234 104.589 87.9676 103.967Z" fill="#455A64"/>
<path d="M87.4574 100.299C87.5947 100.582 87.6713 100.889 87.6825 101.203C87.7566 101.508 87.7668 101.825 87.7125 102.133C87.577 101.851 87.5017 101.543 87.4912 101.229C87.4171 100.925 87.4056 100.608 87.4574 100.299Z" fill="#455A64"/>
<path d="M86.9511 96.6353C87.0865 96.9169 87.163 97.2232 87.1762 97.5354C87.2482 97.8403 87.2584 98.1566 87.2062 98.4655C87.0702 98.1841 86.9936 97.8777 86.9812 97.5654C86.9093 97.2604 86.8991 96.9442 86.9511 96.6353Z" fill="#455A64"/>
<path d="M86.445 92.9673C86.5806 93.2502 86.6572 93.5577 86.67 93.8711C86.7419 94.1761 86.7521 94.4923 86.7 94.8013C86.5628 94.519 86.4862 94.2111 86.475 93.8974C86.4009 93.5928 86.3907 93.2761 86.445 92.9673Z" fill="#455A64"/>
<path d="M86.0625 90.2068C86.115 90.2068 86.1862 90.3981 86.2237 90.6568C86.2612 90.9156 86.2237 91.1257 86.19 91.1332C86.1562 91.1407 86.0662 90.9381 86.0287 90.6831C85.9912 90.4281 86.01 90.2143 86.0625 90.2068Z" fill="#455A64"/>
<path d="M77.71 144.608L86.4599 145.121L86.9174 142.616L78.2013 142.267L77.71 144.608Z" fill="#455A64"/>
<path d="M61.6692 143.966L70.4153 144.476L70.8766 141.975L62.1605 141.622L61.6692 143.966Z" fill="#455A64"/>
<path d="M76.9859 94.2012C76.9334 94.2012 76.9334 93.9762 76.9859 93.7249C77.0384 93.4736 77.1247 93.2748 77.1772 93.2861C77.2297 93.2974 77.2297 93.5111 77.1772 93.7624C77.1247 94.0137 77.0422 94.2125 76.9859 94.2012Z" fill="#455A64"/>
<path d="M76.251 97.8129C76.2154 97.5027 76.2448 97.1885 76.3372 96.8902C76.3694 96.5791 76.4651 96.2778 76.6185 96.0051C76.6516 96.3156 76.621 96.6295 76.5285 96.9277C76.4966 97.2385 76.4022 97.5395 76.251 97.8129Z" fill="#455A64"/>
<path d="M75.5274 101.424C75.5261 100.802 75.6538 100.187 75.9024 99.6167C75.9382 99.9266 75.9101 100.241 75.8199 100.539C75.7852 100.852 75.6856 101.153 75.5274 101.424Z" fill="#455A64"/>
<path d="M74.822 105.036C74.7857 104.728 74.8138 104.415 74.9045 104.117C74.9317 103.806 75.0237 103.503 75.1745 103.229C75.2105 103.538 75.1837 103.852 75.0958 104.151C75.0678 104.462 74.9745 104.764 74.822 105.036Z" fill="#455A64"/>
<path d="M74.1358 108.659C74.121 108.038 74.2373 107.421 74.4771 106.848C74.4918 107.469 74.3755 108.086 74.1358 108.659Z" fill="#455A64"/>
<path d="M73.4683 112.282C73.4297 111.972 73.4539 111.657 73.5395 111.356C73.5615 111.045 73.6511 110.743 73.8021 110.471C73.8407 110.78 73.8164 111.094 73.7308 111.393C73.7076 111.705 73.6181 112.008 73.4683 112.282Z" fill="#455A64"/>
<path d="M72.8268 115.89C72.781 115.582 72.8028 115.267 72.8906 114.967C72.9125 114.657 72.9994 114.354 73.1456 114.079C73.1869 114.387 73.1652 114.701 73.0819 115.001C73.0587 115.312 72.9719 115.614 72.8268 115.89Z" fill="#455A64"/>
<path d="M72.2045 119.536C72.1761 118.916 72.281 118.297 72.512 117.72C72.5559 118.03 72.5368 118.345 72.4558 118.647C72.4344 118.957 72.3488 119.26 72.2045 119.536Z" fill="#455A64"/>
<path d="M71.6078 123.17C71.5782 122.551 71.6791 121.932 71.9041 121.355C71.9507 121.663 71.9328 121.977 71.8516 122.277C71.8349 122.589 71.7517 122.893 71.6078 123.17Z" fill="#455A64"/>
<path d="M71.0381 126.808C71.0037 126.188 71.0995 125.569 71.3194 124.989C71.3709 125.297 71.3568 125.613 71.2781 125.915C71.2629 126.226 71.181 126.531 71.0381 126.808Z" fill="#455A64"/>
<path d="M70.5091 130.453C70.4572 130.145 70.4699 129.83 70.5466 129.527C70.5618 129.216 70.6396 128.911 70.7754 128.631C70.8293 128.937 70.8165 129.252 70.7379 129.553C70.725 129.866 70.6471 130.172 70.5091 130.453Z" fill="#455A64"/>
<path d="M69.9841 134.099C69.932 133.791 69.9422 133.476 70.0141 133.172C70.0249 132.861 70.1016 132.555 70.2391 132.276C70.2912 132.582 70.281 132.896 70.2091 133.198C70.1967 133.511 70.1201 133.817 69.9841 134.099Z" fill="#455A64"/>
<path d="M69.5004 137.748C69.4457 137.442 69.4533 137.128 69.5229 136.826C69.5317 136.512 69.6058 136.204 69.7404 135.922C69.7951 136.229 69.7874 136.544 69.7179 136.848C69.708 137.16 69.6339 137.466 69.5004 137.748Z" fill="#455A64"/>
<path d="M69.0465 141.393C68.9842 141.088 68.9842 140.773 69.0465 140.467C69.0509 140.154 69.1226 139.846 69.2565 139.563C69.3122 140.182 69.2355 140.806 69.0315 141.393H69.0465Z" fill="#455A64"/>
<path d="M68.724 144.165C68.6715 144.165 68.6528 143.948 68.679 143.689C68.7053 143.43 68.7765 143.228 68.8328 143.235C68.889 143.243 68.904 143.456 68.874 143.711C68.844 143.966 68.7765 144.173 68.724 144.165Z" fill="#455A64"/>
<path d="M89.4529 116.948C88.6925 116.947 87.9326 116.907 87.1764 116.828C86.4162 116.812 85.6575 116.754 84.9036 116.655C85.6627 116.559 86.4305 116.551 87.1914 116.633C87.955 116.649 88.7141 116.754 89.4529 116.948Z" fill="#455A64"/>
<path d="M89.0252 115.995C88.4015 116.161 87.758 116.242 87.1125 116.235C86.4697 116.292 85.8222 116.259 85.1885 116.138C85.8245 116.064 86.4647 116.031 87.105 116.04C87.7434 115.984 88.3848 115.969 89.0252 115.995Z" fill="#455A64"/>
<path d="M69.1814 118.733C68.4612 117.786 67.8498 116.76 67.3586 115.676C67.7419 116.132 68.0751 116.627 68.3525 117.154C68.6839 117.649 68.9617 118.179 69.1814 118.733Z" fill="#455A64"/>
<path d="M88.1551 87.9491C88.1721 88.0358 88.1721 88.1249 88.1551 88.2116C88.1217 88.449 88.0703 88.6834 88.0013 88.913C87.9035 89.2637 87.722 89.5854 87.4725 89.8506C87.3082 90.0085 87.1133 90.1309 86.8997 90.2103C86.6862 90.2896 86.4586 90.3242 86.2311 90.3119C85.7898 90.2895 85.3563 90.1866 84.9521 90.0081C84.6084 89.8778 84.2898 89.6887 84.0108 89.4493C83.8757 89.3505 83.7619 89.2256 83.6762 89.0819C83.5905 88.9382 83.5347 88.7787 83.512 88.6129C83.6578 88.8934 83.8579 89.142 84.1008 89.3443C84.371 89.5544 84.6721 89.7214 84.9934 89.8393C85.3797 90.0004 85.7907 90.0942 86.2086 90.1169C86.4131 90.1316 86.6184 90.1043 86.8119 90.0365C87.0055 89.9688 87.183 89.8621 87.3337 89.7231C87.5709 89.4812 87.7503 89.1889 87.8588 88.868C88.0576 88.3129 88.1363 87.9416 88.1551 87.9491Z" fill="#455A64"/>
<path d="M77.1775 93.2859C77.1775 93.2859 77.1137 93.2409 77.02 93.1471C76.8691 93.0293 76.7297 92.8974 76.6037 92.7533C76.4038 92.5396 76.2415 92.2936 76.1236 92.0258C76.0613 91.6768 76.0462 91.3211 76.0786 90.9681C76.1199 90.218 76.2061 89.5729 76.2699 89.0929C76.2866 88.838 76.3345 88.586 76.4124 88.3428C76.4762 88.3428 76.3712 89.5354 76.2736 90.9681C76.2437 91.3018 76.2525 91.6378 76.2999 91.9695C76.4044 92.2177 76.5433 92.45 76.7124 92.6596C76.84 92.8584 76.9937 92.9671 77.0875 93.0909C77.1813 93.2147 77.1888 93.2747 77.1775 93.2859Z" fill="#455A64"/>
</g>
<defs>
<clipPath id="clip0_226_380">
<rect width="182" height="148.257" fill="white"/>
</clipPath>
</defs>
</svg>
