<svg width="16" height="21" viewBox="0 0 16 21" fill="none" xmlns="http://www.w3.org/2000/svg">
<path d="M3.09594 0.540467L4.21677 0.182134C5.26781 -0.153282 6.39073 0.389426 6.84073 1.44984L7.73656 3.56234C8.12615 4.48213 7.90948 5.56443 7.20115 6.23734L5.22719 8.11026C5.34906 9.23109 5.72615 10.3342 6.3574 11.4196C6.95684 12.4698 7.76091 13.389 8.72198 14.1228L11.0928 13.3311C11.9907 13.0321 12.9699 13.3769 13.5199 14.1863L14.8043 16.0717C15.4449 17.0134 15.3293 18.3113 14.5345 19.1092L13.6834 19.9644C12.8355 20.8155 11.6241 21.1248 10.5043 20.7748C7.85844 19.9498 5.42823 17.5009 3.20948 13.428C0.987606 9.3488 0.203231 5.8863 0.857398 3.04463C1.1324 1.8488 1.98344 0.895676 3.09594 0.540467Z" fill="white"/>
</svg>
