<svg width="35" height="35" viewBox="0 0 35 35" fill="none" xmlns="http://www.w3.org/2000/svg">
<g clip-path="url(#clip0_187_83)">
<path d="M34.9209 1.50069C35.0005 1.30192 35.02 1.08418 34.977 0.874451C34.9339 0.664721 34.8303 0.47223 34.6789 0.320841C34.5275 0.169452 34.335 0.065822 34.1253 0.0227994C33.9156 -0.0202232 33.6978 -0.000746768 33.4991 0.0788141L1.6775 12.8079H1.67531L0.686562 13.2016C0.499291 13.2763 0.336312 13.4013 0.215627 13.5629C0.0949434 13.7244 0.0212514 13.9161 0.00269142 14.1169C-0.0158685 14.3176 0.021426 14.5196 0.110455 14.7005C0.199485 14.8814 0.336784 15.0342 0.507187 15.1419L1.40406 15.7107L1.40625 15.7151L12.3328 22.667L19.2847 33.5935L19.2891 33.5979L19.8578 34.4948C19.9659 34.6645 20.1188 34.8011 20.2995 34.8896C20.4803 34.9781 20.682 35.0149 20.8824 34.9962C21.0827 34.9774 21.274 34.9037 21.4352 34.7832C21.5964 34.6627 21.7212 34.5001 21.7959 34.3132L34.9209 1.50069ZM30.9113 5.63507L14.5181 22.0282L14.0478 21.2888C13.9616 21.1531 13.8466 21.0381 13.7109 20.9519L12.9716 20.4816L29.3647 4.0885L31.9416 3.05819L30.9134 5.63507H30.9113Z" fill="white"/>
</g>
<defs>
<clipPath id="clip0_187_83">
<rect width="35" height="35" fill="white"/>
</clipPath>
</defs>
</svg>
