<svg width="35" height="19" viewBox="0 0 35 19" fill="none" xmlns="http://www.w3.org/2000/svg">
<path d="M11.4697 0C3.37343 0 0 1.10336 0 1.99364V16.9643C0 17.8342 3.37343 19 11.4697 19C19.5659 19 22.9393 17.8966 22.9393 17.0064V2.03571C22.9393 1.16579 19.5659 0 11.4697 0ZM34.2403 0.0420716C34.0135 0.051163 33.794 0.125073 33.6074 0.255143L24.8365 5.9375C24.4992 6.19264 24.2887 6.61336 24.2887 7.04086V11.9591C24.2887 12.3866 24.4992 12.806 24.8365 13.0625L33.6074 18.7462C33.8449 18.9267 35 19.4926 35 17.6429V1.35714C35 0.289071 34.6343 0.0257859 34.2403 0.0420716Z" fill="white"/>
</svg>
