<svg width="27" height="27" viewBox="0 0 27 27" fill="none" xmlns="http://www.w3.org/2000/svg">
<path d="M6.73499 14.7805C7.63103 14.7805 8.35742 14.0541 8.35742 13.1581C8.35742 12.262 7.63103 11.5356 6.73499 11.5356C5.83894 11.5356 5.11255 12.262 5.11255 13.1581C5.11255 14.0541 5.83894 14.7805 6.73499 14.7805Z" fill="black"/>
<path d="M14.3064 14.7805C15.2024 14.7805 15.9288 14.0541 15.9288 13.1581C15.9288 12.262 15.2024 11.5356 14.3064 11.5356C13.4104 11.5356 12.684 12.262 12.684 13.1581C12.684 14.0541 13.4104 14.7805 14.3064 14.7805Z" fill="black"/>
<path d="M21.8777 14.7805C22.7737 14.7805 23.5001 14.0541 23.5001 13.1581C23.5001 12.262 22.7737 11.5356 21.8777 11.5356C20.9816 11.5356 20.2552 12.262 20.2552 13.1581C20.2552 14.0541 20.9816 14.7805 21.8777 14.7805Z" fill="black"/>
</svg>
