<svg width="108" height="73" viewBox="0 0 108 73" fill="none" xmlns="http://www.w3.org/2000/svg">
<path d="M59.8239 71.7394C59.6009 71.7394 59.3843 71.7776 59.1867 71.7776C56.568 71.7776 53.9428 71.7776 51.3177 71.7776C50.7634 71.7776 50.5658 71.5865 50.4002 71.0704C48.7324 65.5716 46.3775 60.3052 43.3913 55.396C41.7513 52.6724 39.6565 50.25 37.198 48.2342C35.5289 46.8256 33.4978 45.9138 31.336 45.6027C29.3068 45.4001 27.2656 45.8463 25.5059 46.877C22.9845 48.3289 20.786 50.2803 19.045 52.6115C15.5406 57.008 13.0875 61.9971 11.0039 67.1773C10.4623 68.5217 10.0036 69.8916 9.47472 71.2424C9.38552 71.4654 9.11153 71.7776 8.92038 71.784C5.97666 71.784 3.03293 71.784 0 71.784C0.0036128 71.6257 0.0206653 71.4679 0.0509736 71.3125C2.57417 63.5072 5.68993 55.9758 10.4305 49.2282C12.9726 45.4399 16.2538 42.2042 20.0772 39.7152C20.1537 39.6642 20.2238 39.5941 20.3448 39.4922C13.4443 35.4908 9.58304 29.5969 9.27083 21.6196C9.14518 18.8095 9.61943 16.0048 10.662 13.3923C11.7046 10.7797 13.2917 8.41913 15.3176 6.46765C17.3243 4.45676 19.7235 2.88055 22.3659 1.8372C25.0082 0.79384 27.8371 0.305676 30.6763 0.403105C33.5155 0.500535 36.3042 1.18147 38.8689 2.40351C41.4335 3.62555 43.719 5.36251 45.5832 7.50623C54.2742 17.5544 51.4069 33.1332 39.9123 39.3011C40.3902 39.6133 40.849 39.9 41.3014 40.2122C45.5704 43.1432 48.7308 47.0682 51.3942 51.4392C55.2172 57.6898 57.7659 64.4693 59.8112 71.4591C59.8234 71.552 59.8277 71.6458 59.8239 71.7394Z" fill="white"/>
<path d="M107.025 6.78624L102.909 14.7318C97.5507 10.5619 90.8205 8.5587 84.054 9.11978C77.2874 9.68085 70.979 12.7652 66.3805 17.7607C61.782 22.7562 59.2295 29.2979 59.2295 36.0876C59.2294 42.8774 61.7818 49.4191 66.3802 54.4147C74.6635 63.6218 90.4398 67.0753 102.635 57.6006L106.745 65.5397C94.5941 74.7277 74.3831 75.5943 60.5183 61.9716C53.9229 55.5198 50.0627 46.7778 49.7377 37.5572C49.4126 28.3366 52.6477 19.3445 58.7724 12.4443C72.873 -3.37026 94.1354 -2.78406 107.025 6.78624Z" fill="white"/>
</svg>
