<svg width="32" height="47" viewBox="0 0 32 47" fill="none" xmlns="http://www.w3.org/2000/svg">
<g clip-path="url(#clip0_210_185)">
<path d="M16 32C20.82 32 24.7273 28.0927 24.7273 23.2727V8.72727C24.7273 3.90727 20.82 0 16 0C11.18 0 7.27273 3.90727 7.27273 8.72727V23.2727C7.27273 28.0927 11.18 32 16 32ZM30.5455 17.4545H29.0909C28.2873 17.4545 27.6364 18.1055 27.6364 18.9091V23.2727C27.6364 30.0727 21.7736 35.5291 14.8373 34.8527C8.79182 34.2627 4.36364 28.8282 4.36364 22.7545V18.9091C4.36364 18.1055 3.71273 17.4545 2.90909 17.4545H1.45455C0.650909 17.4545 0 18.1055 0 18.9091V22.56C0 30.7091 5.81545 37.9736 13.8182 39.0773V42.1818H8.72727C7.92364 42.1818 7.27273 42.8327 7.27273 43.6364V45.0909C7.27273 45.8945 7.92364 46.5455 8.72727 46.5455H23.2727C24.0764 46.5455 24.7273 45.8945 24.7273 45.0909V43.6364C24.7273 42.8327 24.0764 42.1818 23.2727 42.1818H18.1818V39.1118C25.9736 38.0427 32 31.3545 32 23.2727V18.9091C32 18.1055 31.3491 17.4545 30.5455 17.4545Z" fill="white"/>
</g>
<defs>
<clipPath id="clip0_210_185">
<rect width="32" height="46.5455" fill="white"/>
</clipPath>
</defs>
</svg>
