<svg width="42" height="42" viewBox="0 0 42 42" fill="none" xmlns="http://www.w3.org/2000/svg">
<path d="M5.37504 23.5001H16.625C17.0781 23.5001 17.5159 23.6642 17.8574 23.962C18.1988 24.2598 18.4209 24.6712 18.4825 25.1201L18.5 25.3751V36.6251C18.4999 37.1001 18.3194 37.5574 17.9951 37.9045C17.6708 38.2517 17.2268 38.4627 16.7528 38.4951C16.2789 38.5275 15.8103 38.3788 15.4418 38.079C15.0733 37.7792 14.8323 37.3507 14.7675 36.8801L14.75 36.6251V29.9001L3.57504 41.0751C3.24004 41.4075 2.79202 41.6013 2.32039 41.6179C1.84876 41.6345 1.38821 41.4727 1.03066 41.1647C0.673108 40.8567 0.444851 40.4251 0.391445 39.9563C0.338038 39.4874 0.46341 39.0156 0.742537 38.6351L0.925038 38.4251L12.095 27.2501H5.37504C4.92194 27.25 4.48418 27.086 4.14271 26.7881C3.80124 26.4903 3.57916 26.0789 3.51754 25.6301L3.50004 25.3751C3.50006 24.922 3.66414 24.4842 3.96196 24.1427C4.25977 23.8013 4.67115 23.5792 5.12004 23.5176L5.37504 23.5001ZM41.075 0.925059C41.3926 1.24253 41.5857 1.66341 41.6191 2.11119C41.6526 2.55896 41.5243 3.00388 41.2575 3.36506L41.075 3.57506L28.65 16.0001H36.625C37.0781 16.0001 37.5159 16.1642 37.8574 16.462C38.1988 16.7598 38.4209 17.1712 38.4825 17.6201L38.5 17.8751C38.5 18.3282 38.3359 18.7659 38.0381 19.1074C37.7403 19.4489 37.3289 19.6709 36.88 19.7326L36.625 19.7501H24.125C23.6719 19.75 23.2342 19.586 22.8927 19.2881C22.5512 18.9903 22.3292 18.5789 22.2675 18.1301L22.25 17.8751V5.37506C22.2502 4.9 22.4307 4.44271 22.755 4.09558C23.0793 3.74845 23.5233 3.53737 23.9972 3.50499C24.4712 3.47261 24.9398 3.62135 25.3083 3.92114C25.6768 4.22093 25.9178 4.64943 25.9825 5.12006L26 5.37506V13.3451L38.425 0.925059C38.7766 0.573933 39.2532 0.376709 39.75 0.376709C40.2469 0.376709 40.7235 0.573933 41.075 0.925059Z" fill="white"/>
</svg>
