<svg width="48" height="60" viewBox="0 0 48 60" fill="none" xmlns="http://www.w3.org/2000/svg">
<path d="M42.5223 29.8601C42.5223 31.9652 42.1714 33.9919 41.5294 35.8806L38.4912 32.8423C38.69 31.8607 38.79 30.8616 38.7898 29.8601V26.1276C38.7898 25.6326 38.9864 25.1579 39.3364 24.8079C39.6864 24.4579 40.1611 24.2613 40.656 24.2613C41.151 24.2613 41.6257 24.4579 41.9757 24.8079C42.3256 25.1579 42.5223 25.6326 42.5223 26.1276V29.8601ZM23.8598 44.7901C26.9129 44.7901 29.7496 43.8756 32.1161 42.3005L34.796 44.9842C32.1316 46.9163 29.0013 48.1053 25.726 48.4293V55.9876H36.9235C37.4185 55.9876 37.8932 56.1842 38.2432 56.5342C38.5931 56.8842 38.7898 57.3589 38.7898 57.8538C38.7898 58.3488 38.5931 58.8235 38.2432 59.1735C37.8932 59.5234 37.4185 59.7201 36.9235 59.7201H10.796C10.3011 59.7201 9.82637 59.5234 9.47638 59.1735C9.12639 58.8235 8.92977 58.3488 8.92977 57.8538C8.92977 57.3589 9.12639 56.8842 9.47638 56.5342C9.82637 56.1842 10.3011 55.9876 10.796 55.9876H21.9935V48.4293C17.3902 47.9666 13.1228 45.8105 10.0192 42.3794C6.91565 38.9482 5.19721 34.4866 5.19727 29.8601V26.1276C5.19727 25.6326 5.39389 25.1579 5.74388 24.8079C6.09387 24.4579 6.56856 24.2613 7.06352 24.2613C7.55848 24.2613 8.03316 24.4579 8.38315 24.8079C8.73314 25.1579 8.92977 25.6326 8.92977 26.1276V29.8601C8.92977 33.8197 10.5027 37.6173 13.3027 40.4172C16.1026 43.2171 19.9001 44.7901 23.8598 44.7901ZM35.0573 11.1976V29.4084L13.252 7.60317C14.1065 5.09209 15.8244 2.96575 18.0999 1.60267C20.3754 0.239601 23.0607 -0.271744 25.6779 0.159672C28.295 0.591088 30.6742 1.93727 32.3918 3.95856C34.1094 5.97985 35.0539 8.54508 35.0573 11.1976V11.1976Z" fill="black"/>
<path d="M29.4064 39.5908L12.6624 22.8431V29.8602C12.6618 31.8209 13.1761 33.7475 14.1538 35.447C15.1315 37.1466 16.5383 38.5597 18.2336 39.5449C19.9289 40.5301 21.8531 41.0529 23.8138 41.0609C25.7746 41.069 27.703 40.562 29.4064 39.5908V39.5908ZM0.143555 5.05399L44.9336 49.844L47.5762 47.2014L2.78616 2.41138L0.143555 5.05399V5.05399Z" fill="black"/>
</svg>
