<svg width="36" height="51" viewBox="0 0 36 51" fill="none" xmlns="http://www.w3.org/2000/svg">
<path d="M6.18175 1.91214L8.859 1.05621C11.3695 0.255029 14.0518 1.55136 15.1267 4.08429L17.2665 9.13027C18.197 11.3273 17.6795 13.9125 15.9876 15.5198L11.2725 19.9935C11.5636 22.6708 12.4643 25.3057 13.9721 27.8984C15.404 30.4068 17.3246 32.6024 19.6203 34.3551L25.2833 32.4642C27.4281 31.7501 29.7669 32.5736 31.0807 34.5069L34.1486 39.0105C35.6788 41.2598 35.4026 44.36 33.5041 46.2659L31.4713 48.3087C29.446 50.3415 26.5522 51.0805 23.8775 50.2445C17.5576 48.2739 11.7527 42.4242 6.45296 32.6955C1.14573 22.9519 -0.72785 14.6813 0.834709 7.89365C1.49158 5.03726 3.5244 2.7606 6.18175 1.91214Z" fill="white"/>
</svg>
