<svg width="60" height="56" viewBox="0 0 60 56" fill="none" xmlns="http://www.w3.org/2000/svg">
<path fill-rule="evenodd" clip-rule="evenodd" d="M40.9119 44.1524C41.9765 43.018 42.658 41.578 42.8603 40.0355L54.4684 45.1938C55.0366 45.447 55.659 45.5541 56.2791 45.5055C56.8993 45.4569 57.4974 45.2541 58.0192 44.9155C58.541 44.5769 58.97 44.1133 59.267 43.5667C59.564 43.0202 59.7197 42.4081 59.72 41.786V13.9341C59.7195 13.3126 59.5637 12.701 59.2669 12.1549C58.9701 11.6088 58.5416 11.1455 58.0203 10.807C57.499 10.4685 56.9014 10.2655 56.2818 10.2165C55.6622 10.1675 55.0401 10.274 54.4721 10.5263L42.8603 15.6847C42.6231 13.8897 41.7416 12.242 40.38 11.0486C39.0183 9.85521 37.2694 9.19736 35.4588 9.19757H15.9452L40.9157 44.1524H40.9119ZM3.16143 10.5599C2.18434 11.2497 1.38719 12.164 0.837043 13.226C0.286892 14.288 -0.000171749 15.4666 7.70909e-08 16.6626V39.0576C7.70909e-08 41.0374 0.786489 42.9362 2.18645 44.3361C3.58641 45.7361 5.48516 46.5226 7.465 46.5226H28.8448L3.16143 10.5637V10.5599ZM39.5384 55.07L2.21337 2.815L5.25163 0.650146L42.5766 52.9052L39.5384 55.07Z" fill="black"/>
</svg>
